<svg xmlns="http://www.w3.org/2000/svg" xmlns:xlink="http://www.w3.org/1999/xlink" width="400" zoomAndPan="magnify" viewBox="0 0 300 149.999998" height="200" preserveAspectRatio="xMidYMid meet" version="1.0"><defs><g/><clipPath id="20076418be"><path d="M 78 2.671875 L 223.335938 2.671875 L 223.335938 147.421875 L 78 147.421875 Z M 78 2.671875 " clip-rule="nonzero"/></clipPath></defs><g clip-path="url(#20076418be)"><path fill="#fffefe" d="M 173.925781 83.433594 L 173.929688 83.433594 Z M 151.667969 93.511719 C 138.832031 94.679688 133.292969 81.90625 136.277344 79.863281 L 136.28125 79.863281 C 138.304688 86.027344 144.097656 90.476562 150.917969 90.476562 C 157.738281 90.476562 163.53125 86.027344 165.558594 79.863281 C 165.40625 96.207031 165.859375 91.363281 159.039062 91.363281 L 155.078125 93.542969 Z M 150.917969 47.878906 C 165.867188 47.878906 177.984375 60.03125 177.984375 75.023438 C 177.984375 76.921875 177.789062 78.777344 177.417969 80.574219 C 177.414062 80.582031 177.414062 80.585938 177.414062 80.59375 C 177.265625 81.308594 177.085938 82.011719 176.882812 82.707031 C 176.4375 84.222656 175.046875 85.265625 173.46875 85.265625 C 173.460938 85.265625 173.453125 85.265625 173.445312 85.265625 L 173.441406 85.265625 C 173.394531 87.183594 173.109375 89.046875 172.613281 90.824219 C 172.484375 91.285156 172.261719 91.722656 171.949219 92.109375 C 166.992188 98.238281 159.410156 102.167969 150.917969 102.167969 C 142.425781 102.167969 134.84375 98.238281 129.886719 92.109375 C 129.574219 91.722656 129.351562 91.285156 129.222656 90.824219 L 129.226562 90.824219 C 128.679688 88.875 128.386719 86.820312 128.386719 84.699219 C 128.386719 84.265625 128.398438 83.832031 128.421875 83.398438 C 128.253906 83.425781 128.085938 83.4375 127.910156 83.4375 C 126.222656 83.4375 124.769531 82.25 124.425781 80.59375 C 124.050781 78.792969 123.851562 76.929688 123.851562 75.023438 C 123.851562 60.03125 135.96875 47.878906 150.917969 47.878906 Z M 149.816406 14.089844 C 141.460938 14.089844 133.113281 16.046875 125.03125 20.121094 C 116.515625 24.414062 112.414062 27.953125 111.421875 28.910156 C 110.746094 29.566406 110.070312 30.207031 109.410156 30.832031 C 108.753906 31.453125 108.113281 32.058594 107.488281 32.660156 L 107.488281 32.664062 C 106.210938 33.898438 105.023438 35.097656 103.9375 36.34375 C 99.910156 40.976562 96.015625 47.191406 93.1875 55.417969 C 88.878906 67.9375 88.898438 80.621094 92.839844 93.40625 C 92.847656 93.40625 92.855469 93.40625 92.867188 93.40625 C 92.878906 93.410156 92.890625 93.410156 92.902344 93.410156 C 95.167969 93.601562 97.160156 94.375 98.867188 95.429688 C 100.101562 95.3125 101.246094 95.238281 102.242188 95.238281 C 102.300781 95.238281 102.347656 95.238281 102.40625 95.238281 C 104.683594 95.257812 106.890625 95.472656 108.859375 96.03125 C 113.058594 97.222656 116.878906 98.820312 119.75 101.09375 C 121.289062 100.917969 122.785156 100.824219 124.234375 100.824219 C 129.703125 100.824219 134.550781 102.152344 138.6875 105.28125 C 143.25 108.730469 145.769531 114.003906 147.046875 119.921875 C 151.917969 121.59375 156.0625 124.105469 159.664062 127.164062 C 161.890625 129.054688 163.484375 131.722656 164.492188 134.527344 C 174.953125 131.789062 184.675781 126.066406 192.167969 120.011719 C 197.03125 116.078125 205.496094 104.113281 207.945312 95.082031 C 212.460938 78.417969 212.25 67.484375 209.539062 59.15625 C 205.957031 48.167969 200.214844 37.792969 190.574219 29.242188 C 185.328125 24.589844 179.292969 21.773438 173.175781 18.945312 L 172.941406 18.835938 C 171.535156 18.183594 167.296875 16.378906 159.679688 14.988281 L 159.679688 14.992188 C 156.390625 14.390625 153.097656 14.089844 149.816406 14.089844 Z M 157.519531 146.199219 C 157.722656 146.460938 157.886719 146.605469 157.921875 146.605469 C 157.933594 146.605469 157.929688 146.59375 157.914062 146.566406 C 157.773438 146.453125 157.644531 146.332031 157.519531 146.199219 Z M 150.789062 2.671875 L 150.789062 2.675781 C 150.867188 2.671875 150.945312 2.675781 151.027344 2.683594 L 160.371094 3.3125 C 160.496094 3.320312 160.621094 3.335938 160.746094 3.359375 C 180.054688 6.738281 195.386719 15.214844 206.59375 28.800781 C 217.25 41.726562 222.65625 57.230469 223.210938 75.195312 C 223.664062 90.007812 220.359375 104.488281 207.726562 120.265625 C 201.636719 127.871094 194.375 133.742188 188.570312 137.351562 C 186.808594 138.441406 181.78125 141.167969 172.785156 144.371094 C 169.292969 145.613281 165.625 146.40625 161.988281 147.0625 C 161.449219 147.257812 160.875 147.375 160.28125 147.398438 C 160.195312 147.402344 160.105469 147.40625 160.015625 147.40625 C 156.914062 147.40625 154.335938 144.960938 154.195312 141.824219 C 154.0625 138.917969 152.816406 136.667969 152.128906 136.082031 C 148.890625 133.332031 145.171875 131.285156 140.59375 130.210938 C 138.226562 129.652344 136.453125 127.683594 136.144531 125.269531 C 135.347656 119.097656 133.53125 116.023438 131.671875 114.617188 C 129.984375 113.339844 127.746094 112.511719 124.234375 112.511719 C 122.734375 112.511719 121.003906 112.664062 118.996094 113.003906 C 118.671875 113.058594 118.347656 113.085938 118.027344 113.085938 C 116.855469 113.085938 115.742188 112.730469 114.816406 112.117188 C 114.167969 111.789062 113.574219 111.339844 113.070312 110.769531 C 112.367188 109.972656 110.3125 108.59375 105.679688 107.277344 C 105.082031 107.109375 104.007812 106.941406 102.308594 106.929688 C 102.289062 106.929688 102.257812 106.929688 102.238281 106.929688 C 101.425781 106.929688 100.066406 107.035156 97.953125 107.289062 C 97.722656 107.316406 97.496094 107.328125 97.261719 107.328125 C 95.867188 107.328125 94.511719 106.828125 93.445312 105.902344 C 92.777344 105.320312 92.328125 105.140625 92.066406 105.082031 C 91.929688 105.101562 91.675781 105.152344 91.390625 105.285156 C 90.59375 105.660156 89.746094 105.839844 88.910156 105.839844 C 86.730469 105.839844 84.628906 104.605469 83.636719 102.480469 C 83.492188 102.171875 83.375 101.855469 83.285156 101.53125 L 83.289062 101.53125 C 80.84375 94.859375 79.160156 88.363281 78.546875 82.039062 C 76.667969 62.6875 82.351562 44.460938 95.710938 28.027344 C 99.746094 23.0625 104.605469 19.097656 109.214844 15.457031 C 110.792969 14.214844 115.867188 11.398438 124.300781 7.570312 C 130.648438 4.6875 139.574219 3.222656 150.613281 2.679688 C 150.671875 2.675781 150.730469 2.671875 150.789062 2.671875 L 150.789062 2.675781 Z M 150.789062 2.671875 " fill-opacity="1" fill-rule="nonzero"/></g><path fill="#fdd599" d="M 149.191406 64.921875 L 148.828125 64.925781 C 145.921875 64.984375 143.242188 65.699219 140.792969 67.070312 C 139 68.179688 135.679688 70.960938 130.839844 75.421875 L 131.136719 83.199219 C 132.476562 86.023438 135.566406 89.253906 140.410156 92.886719 C 144.15625 95.632812 147.46875 97.007812 150.347656 97.011719 C 152.496094 96.914062 154.363281 96.519531 155.953125 95.828125 C 158.007812 95.050781 160.800781 93.320312 164.335938 90.640625 C 168.070312 87.179688 169.964844 83.722656 170.023438 80.265625 L 169.601562 77.351562 L 168.847656 75.035156 L 167.710938 72.941406 C 166.828125 71.621094 165.6875 70.453125 164.296875 69.433594 C 162.90625 68.414062 161.261719 67.542969 159.359375 66.820312 L 156.324219 65.855469 L 152.902344 65.113281 C 151.941406 64.996094 150.703125 64.933594 149.191406 64.921875 M 150.789062 9.183594 L 159.734375 9.785156 C 175.757812 12.328125 188.929688 19.226562 199.246094 30.476562 C 204.476562 36.171875 208.574219 42.535156 211.539062 49.566406 C 214.808594 56.90625 216.539062 65.488281 216.722656 75.304688 C 216.640625 79.105469 216.308594 82.777344 215.722656 86.320312 C 213.820312 94.96875 212.378906 100.003906 211.390625 101.433594 C 208.710938 107.773438 205.019531 113.613281 200.320312 118.949219 C 195.625 124.285156 190.347656 128.691406 184.488281 132.164062 C 176.914062 136.097656 172.199219 138.175781 170.335938 138.40625 C 166.972656 139.441406 163.464844 140.246094 159.8125 140.816406 C 160 139.257812 159.117188 136.542969 157.164062 132.667969 C 154.179688 129.632812 149.53125 126.019531 143.214844 121.828125 C 142.46875 121.109375 140.351562 117.957031 136.863281 112.375 C 136.058594 111.300781 134.777344 110.199219 133.023438 109.058594 C 131.6875 108.210938 127.019531 107.46875 119.019531 106.835938 L 112.027344 103.917969 C 110.207031 103.980469 103.71875 102.324219 92.5625 98.945312 C 91.492188 98.761719 90.371094 98.769531 89.199219 98.96875 C 86.582031 91.78125 85.125 84.859375 84.832031 78.203125 C 84.800781 58.488281 90.808594 42.390625 102.855469 29.902344 C 109.675781 23.019531 116.246094 18.222656 122.5625 15.507812 C 125.9375 13.925781 129.46875 12.640625 133.15625 11.648438 C 142.640625 9.6875 148.519531 8.863281 150.789062 9.183594 Z M 150.789062 9.183594 " fill-opacity="1" fill-rule="nonzero"/><path fill="#fbb371" d="M 86.203125 92.945312 C 88.332031 90.734375 91.296875 89.351562 95.101562 88.800781 C 99.925781 87.878906 104.214844 87.867188 107.960938 88.773438 C 110.636719 89.496094 112.863281 90.453125 114.636719 91.640625 C 115.238281 91.863281 117.363281 93.765625 121.015625 97.347656 C 121.632812 97.808594 122.1875 98.171875 122.679688 98.433594 C 125.753906 99.8125 127.464844 100.6875 127.8125 101.058594 C 129.125 101.9375 129.953125 102.796875 130.292969 103.636719 C 130.617188 104.980469 130.214844 105.691406 129.089844 105.773438 C 124.867188 106.292969 121.84375 106.34375 120.019531 105.933594 C 119 105.746094 118.21875 105.539062 117.675781 105.316406 C 114.8125 103.480469 112.46875 102.382812 110.640625 102.023438 C 109.917969 101.652344 105.78125 101.132812 98.234375 100.46875 L 90.726562 98.957031 C 90.027344 98.949219 88.933594 98.089844 87.441406 96.382812 Z M 86.203125 92.945312 " fill-opacity="1" fill-rule="nonzero"/><path fill="#fbb371" d="M 135.511719 106.460938 C 139.574219 106.679688 143.476562 108.570312 147.222656 112.128906 C 148.324219 113.132812 149.9375 115.074219 152.0625 117.957031 L 156.882812 121.621094 C 157.878906 122.515625 158.75 123.464844 159.5 124.476562 C 161.039062 126.214844 161.996094 128.859375 162.371094 132.40625 C 162.515625 133.855469 162.570312 135.023438 162.53125 135.914062 C 162.511719 136.417969 162.339844 136.628906 162.019531 136.550781 C 160.082031 134.246094 158.445312 132.65625 157.109375 131.785156 C 157.316406 131.730469 155.175781 130.628906 150.691406 128.476562 C 149.609375 127.894531 148.511719 127.160156 147.398438 126.265625 C 145.453125 125.179688 141.667969 120.164062 136.050781 111.222656 Z M 135.511719 106.460938 " fill-opacity="1" fill-rule="nonzero"/><path fill="#fbb371" d="M 131.746094 75.816406 C 131.929688 73.046875 133.761719 70.625 137.25 68.546875 C 140.871094 66.226562 144.796875 64.753906 149.023438 64.128906 C 152.804688 63.6875 156.535156 64.238281 160.214844 65.773438 C 161.324219 66.207031 162.738281 67 164.453125 68.160156 C 165.289062 68.6875 167.519531 70.398438 171.144531 73.296875 C 171.691406 73.699219 172.085938 73.925781 172.335938 73.976562 C 173.40625 74.023438 173.652344 72.710938 173.070312 70.03125 C 171.78125 65.972656 168.722656 62.113281 163.890625 58.449219 C 160.570312 55.726562 156.695312 54.304688 152.261719 54.183594 C 148.671875 53.988281 144.273438 55.558594 139.054688 58.894531 C 134.351562 62.328125 131.273438 65.835938 129.828125 69.410156 Z M 131.746094 75.816406 " fill-opacity="1" fill-rule="nonzero"/><path fill="#fbb371" d="M 199.816406 63.492188 C 202.460938 77.5625 199.589844 90.898438 191.199219 103.492188 C 183.546875 112.964844 171.90625 118.824219 156.285156 121.070312 C 159.496094 123.34375 161.324219 125.339844 161.769531 127.058594 C 162.492188 128.878906 162.664062 132.90625 162.285156 139.144531 C 162.339844 139.566406 162.519531 139.839844 162.820312 139.957031 C 164.9375 140.910156 173.492188 137.265625 188.484375 129.023438 C 194.546875 125.203125 199.46875 120.804688 203.253906 115.824219 C 213.382812 101.8125 217.304688 86.605469 215.011719 70.214844 Z M 199.816406 63.492188 " fill-opacity="1" fill-rule="nonzero"/><path fill="#fbb371" d="M 172.472656 81.839844 C 175.386719 82.996094 177.820312 83.164062 179.78125 82.339844 C 180.230469 82.085938 180.644531 81.746094 181.015625 81.328125 L 183.183594 78.363281 C 183.53125 77.949219 183.976562 77.550781 184.523438 77.167969 C 184.910156 76.925781 185.269531 76.824219 185.605469 76.867188 C 185.761719 76.835938 186.351562 77.046875 187.382812 77.496094 C 187.46875 77.515625 187.535156 77.496094 187.578125 77.441406 C 187.960938 76.335938 188.144531 74.964844 188.117188 73.332031 C 187.949219 69.957031 186.675781 68.445312 184.300781 68.804688 C 183.632812 68.960938 182.984375 69.367188 182.355469 70.023438 C 182.109375 70.28125 181.898438 70.539062 181.726562 70.789062 C 180.550781 72.644531 179.824219 73.71875 179.546875 74.015625 C 179.035156 74.652344 178.378906 75.265625 177.566406 75.851562 C 176.460938 76.746094 174.707031 77.21875 172.308594 77.273438 Z M 172.472656 81.839844 " fill-opacity="1" fill-rule="nonzero"/><path fill="#fbb371" d="M 105.421875 77.027344 C 107.589844 78.632812 110.277344 79.414062 113.484375 79.371094 C 114.542969 79.300781 115.632812 79.027344 116.753906 78.542969 C 117.640625 78.167969 118.875 77.449219 120.460938 76.386719 C 120.773438 76.207031 121.09375 76.058594 121.425781 75.9375 C 122.207031 75.679688 123 75.609375 123.808594 75.722656 C 125.578125 75.828125 127.480469 77.359375 129.511719 80.3125 C 131.359375 72.292969 130.214844 67.464844 126.074219 65.824219 C 124.292969 65.449219 122.515625 65.863281 120.738281 67.066406 C 120.019531 67.554688 119.246094 68.1875 118.417969 68.960938 C 114.507812 73.023438 112.328125 75.144531 111.871094 75.324219 Z M 105.421875 77.027344 " fill-opacity="1" fill-rule="nonzero"/><path fill="#fbb371" d="M 84.085938 74.074219 C 85.273438 71.011719 86.917969 69.742188 89.019531 70.265625 C 90.914062 70.679688 92.746094 71.433594 94.511719 72.53125 C 95.878906 73.269531 97.980469 75.003906 100.8125 77.726562 C 100.984375 77.816406 101.082031 77.761719 101.105469 77.5625 C 99.859375 72.34375 97.347656 68.089844 93.574219 64.800781 C 92.046875 63.710938 90.332031 63.242188 88.421875 63.390625 C 86.6875 63.527344 85.488281 64.28125 84.820312 65.65625 Z M 84.085938 74.074219 " fill-opacity="1" fill-rule="nonzero"/><path fill="#fbb371" d="M 154.007812 100.71875 L 154.25 100.726562 C 154.40625 100.734375 154.554688 100.753906 154.699219 100.78125 C 155.046875 100.863281 155.25 100.925781 155.300781 100.964844 C 155.660156 101.128906 155.988281 101.371094 156.289062 101.6875 C 156.5625 101.984375 156.757812 102.316406 156.875 102.683594 C 156.984375 103.15625 157.027344 103.449219 157 103.5625 L 156.917969 103.503906 C 156.910156 103.746094 156.785156 104.082031 156.542969 104.515625 C 156.203125 104.886719 155.984375 105.089844 155.886719 105.128906 C 155.566406 105.355469 155.199219 105.527344 154.789062 105.636719 C 154.257812 105.753906 153.925781 105.800781 153.796875 105.78125 C 153.71875 105.796875 153.476562 105.769531 153.078125 105.699219 C 152.917969 105.664062 152.757812 105.617188 152.597656 105.554688 C 152.273438 105.4375 151.949219 105.269531 151.621094 105.054688 C 151.25 104.773438 150.984375 104.453125 150.828125 104.101562 C 150.75 103.925781 150.699219 103.738281 150.671875 103.542969 L 150.65625 103.246094 L 150.679688 102.933594 C 150.714844 102.6875 150.761719 102.5 150.824219 102.375 C 150.960938 102.066406 151.203125 101.78125 151.558594 101.527344 C 151.910156 101.269531 152.371094 101.035156 152.941406 100.828125 C 153.242188 100.765625 153.597656 100.726562 154.007812 100.71875 Z M 154.007812 100.71875 " fill-opacity="1" fill-rule="nonzero"/><path fill="#fbb371" d="M 160.386719 105.5 L 160.40625 105.503906 C 160.640625 105.515625 160.878906 105.578125 161.125 105.6875 C 161.386719 105.828125 161.53125 105.925781 161.5625 105.976562 C 161.746094 106.183594 161.84375 106.316406 161.859375 106.378906 C 161.945312 106.457031 162.023438 106.535156 162.09375 106.617188 C 162.164062 106.703125 162.222656 106.789062 162.277344 106.878906 C 162.328125 106.96875 162.371094 107.0625 162.40625 107.160156 C 162.472656 107.410156 162.503906 107.566406 162.496094 107.625 C 162.496094 108.164062 162.285156 108.652344 161.867188 109.097656 C 161.691406 109.292969 161.40625 109.492188 161.007812 109.695312 C 160.898438 109.746094 160.792969 109.789062 160.6875 109.820312 C 160.4375 109.878906 160.289062 109.902344 160.246094 109.890625 C 160.171875 109.894531 160.023438 109.875 159.800781 109.828125 L 159.621094 109.765625 C 159.386719 109.664062 159.191406 109.496094 159.035156 109.261719 C 158.878906 109.027344 158.757812 108.722656 158.679688 108.355469 C 158.640625 108.179688 158.621094 108.011719 158.613281 107.84375 L 158.617188 107.59375 C 158.648438 107.09375 158.828125 106.636719 159.152344 106.230469 C 159.566406 105.746094 159.976562 105.5 160.386719 105.5 Z M 160.386719 105.5 " fill-opacity="1" fill-rule="nonzero"/><path fill="#fbb371" d="M 161.136719 101.890625 C 161.246094 101.5625 161.402344 101.386719 161.601562 101.359375 C 161.921875 101.289062 162.332031 101.332031 162.832031 101.492188 C 163.15625 101.617188 163.414062 101.804688 163.605469 102.0625 C 163.800781 102.351562 163.871094 102.621094 163.816406 102.863281 C 163.75 103.101562 163.535156 103.308594 163.167969 103.476562 C 162.789062 103.640625 162.457031 103.675781 162.175781 103.589844 C 161.460938 103.355469 161.089844 102.875 161.070312 102.152344 Z M 161.136719 101.890625 " fill-opacity="1" fill-rule="nonzero"/><path fill="#fb72bd" d="M 149.816406 10.375 C 153.328125 10.375 156.839844 10.699219 160.339844 11.335938 C 168.292969 12.785156 172.828125 14.691406 174.492188 15.460938 L 174.496094 15.464844 L 174.492188 15.464844 L 174.726562 15.570312 L 174.960938 15.679688 C 180.957031 18.453125 187.390625 21.460938 193.027344 26.460938 C 203.273438 35.546875 209.324219 46.539062 213.058594 58.003906 C 214.289062 61.785156 215.03125 65.976562 215.160156 70.777344 C 215.617188 70.15625 216.339844 69.800781 217.09375 69.800781 C 217.40625 69.800781 217.71875 69.859375 218.023438 69.988281 C 219.25 70.503906 219.828125 71.917969 219.316406 73.148438 C 219.230469 73.359375 219.140625 73.5625 219.046875 73.765625 C 219.046875 73.765625 219.042969 73.769531 219.042969 73.773438 C 217.9375 76.1875 216.484375 77.855469 214.792969 78.683594 C 214.773438 78.695312 214.75 78.699219 214.730469 78.699219 C 214.703125 78.699219 214.679688 78.691406 214.65625 78.675781 C 214.613281 78.652344 214.589844 78.605469 214.589844 78.558594 L 214.589844 78.542969 C 214.808594 76.214844 214.910156 74.019531 214.894531 71.933594 L 214.894531 71.9375 C 213.894531 74.097656 212.996094 74.734375 212.148438 74.734375 C 211.75 74.734375 211.382812 74.59375 211.058594 74.445312 C 211.058594 74.441406 211.058594 74.441406 211.054688 74.441406 L 211.058594 74.441406 C 209.707031 73.820312 208.832031 73.015625 208.117188 72.285156 C 208.113281 72.28125 208.109375 72.273438 208.105469 72.269531 C 207.855469 71.976562 207 70.660156 205.519531 67.949219 C 205.070312 67.128906 204.539062 66.570312 204.089844 66.191406 C 204.089844 66.191406 204.089844 66.191406 204.085938 66.191406 L 204.089844 66.191406 C 203.964844 66.089844 203.835938 65.992188 203.703125 65.898438 C 203.035156 65.449219 202.292969 65.21875 201.527344 65.21875 C 201.054688 65.21875 200.570312 65.308594 200.089844 65.496094 C 200.085938 65.496094 200.082031 65.496094 200.078125 65.5 C 199.675781 65.65625 199.300781 65.871094 198.960938 66.117188 C 198.570312 66.402344 198.285156 66.746094 198.074219 67.066406 C 197.332031 68.203125 196.960938 69.976562 196.71875 71.851562 C 196.707031 71.929688 196.703125 72.011719 196.699219 72.09375 L 196.5 85.148438 C 196.5 85.15625 196.5 85.164062 196.496094 85.175781 L 196.5 85.175781 C 196.382812 86.835938 196.140625 88.023438 195.9375 88.789062 C 195.503906 90.449219 194.695312 91.230469 193.144531 91.230469 C 192.984375 91.230469 192.816406 91.222656 192.644531 91.207031 C 192.640625 91.207031 192.636719 91.207031 192.636719 91.207031 C 190.875 91.042969 190.089844 90.191406 189.761719 88.15625 C 189.5 86.511719 189.605469 81.558594 190.421875 72.769531 L 190.421875 72.753906 C 190.617188 70.652344 189.878906 68.917969 188.699219 67.734375 C 188.511719 67.546875 188.3125 67.402344 188.164062 67.304688 C 187.65625 66.972656 186.914062 66.636719 186.070312 66.445312 C 185.628906 66.34375 185.15625 66.285156 184.671875 66.285156 C 182.40625 66.285156 179.863281 67.542969 178.945312 71.605469 C 178.570312 73.253906 177.640625 74.074219 176.820312 74.375 C 176.816406 74.375 176.8125 74.375 176.808594 74.378906 L 176.8125 74.378906 C 176.539062 74.476562 176.269531 74.523438 176.003906 74.523438 C 175.257812 74.523438 174.605469 74.125 174.238281 73.339844 C 174.226562 73.320312 174.21875 73.300781 174.214844 73.273438 C 173.324219 61.152344 163.234375 51.59375 150.917969 51.59375 C 141.371094 51.59375 133.164062 57.335938 129.539062 65.5625 C 129.515625 65.617188 129.464844 65.648438 129.40625 65.648438 C 129.398438 65.648438 129.386719 65.648438 129.378906 65.644531 C 129.339844 65.636719 129.304688 65.613281 129.285156 65.578125 C 128.722656 64.613281 128.203125 63.921875 127.734375 63.5 C 127.710938 63.476562 127.6875 63.457031 127.664062 63.4375 L 127.660156 63.4375 C 126.542969 62.457031 125.328125 61.964844 124.015625 61.964844 C 123.335938 61.964844 122.625 62.097656 121.886719 62.363281 C 120.308594 62.929688 118.949219 63.902344 117.8125 65.285156 C 117.804688 65.296875 117.796875 65.304688 117.785156 65.3125 C 116.90625 66.183594 115.238281 68.484375 112.789062 72.222656 C 112.78125 72.230469 112.773438 72.242188 112.761719 72.25 L 112.765625 72.25 C 112.191406 72.976562 111.566406 73.625 110.886719 74.191406 C 110.882812 74.199219 110.875 74.203125 110.867188 74.207031 C 109.027344 75.675781 107.558594 76.410156 106.46875 76.410156 C 106.292969 76.410156 106.128906 76.390625 105.972656 76.351562 C 105.921875 76.339844 105.871094 76.332031 105.824219 76.324219 C 104.609375 76.125 103.476562 75.367188 102.421875 74.050781 C 102.320312 73.925781 102.203125 73.808594 102.074219 73.707031 L 102.078125 73.710938 C 102.058594 73.699219 102.046875 73.6875 102.03125 73.671875 C 101.363281 72.796875 99.703125 69.667969 97.054688 64.28125 C 97.042969 64.261719 97.035156 64.242188 97.023438 64.21875 C 96.476562 63.199219 95.542969 62.246094 94.214844 61.359375 L 94.210938 61.359375 C 92.566406 60.261719 90.890625 59.710938 89.179688 59.710938 C 88.902344 59.710938 88.625 59.726562 88.34375 59.753906 L 88.34375 59.757812 C 88.3125 59.757812 88.277344 59.761719 88.246094 59.769531 C 88.238281 59.769531 88.230469 59.769531 88.222656 59.769531 C 88.1875 59.769531 88.15625 59.757812 88.128906 59.738281 C 88.097656 59.710938 88.082031 59.671875 88.082031 59.628906 L 88.085938 59.59375 C 88.535156 57.796875 89.070312 55.996094 89.683594 54.207031 C 92.671875 45.519531 96.808594 38.890625 101.144531 33.902344 C 102.914062 31.871094 104.878906 30.011719 106.867188 28.128906 C 107.527344 27.503906 108.195312 26.875 108.855469 26.238281 C 110.148438 24.988281 114.566406 21.242188 123.367188 16.804688 C 131.953125 12.476562 140.867188 10.375 149.816406 10.375 Z M 149.816406 10.375 " fill-opacity="1" fill-rule="nonzero"/><path fill="#d24f95" d="M 174.09375 13.113281 C 180.675781 16.277344 187.867188 27.40625 195.550781 46.546875 C 201.035156 60.195312 199.644531 69.238281 199.644531 69.238281 C 203.1875 68.273438 203.492188 68.859375 203.492188 68.859375 C 207.148438 75.851562 212.640625 79.425781 213.046875 77.726562 C 215.953125 74.0625 217.417969 75.046875 216.097656 68.460938 C 213.628906 56.132812 210.246094 45.886719 205.992188 37.824219 C 202.089844 30.429688 196.078125 24.308594 188.304688 19.273438 Z M 174.09375 13.113281 " fill-opacity="1" fill-rule="nonzero"/><path fill="#6a2042" d="M 150.789062 6.246094 L 160.132812 6.875 C 178.714844 10.128906 193.25 18.226562 203.847656 31.078125 C 213.945312 43.324219 219.117188 58.039062 219.648438 75.304688 C 220.082031 89.351562 217 102.980469 204.949219 118.027344 C 199.144531 125.28125 192.199219 130.894531 186.695312 134.3125 C 185.191406 135.246094 180.402344 137.871094 171.59375 141.003906 C 168.003906 142.28125 164.136719 143.070312 160.125 143.765625 C 160.25 143.699219 159.488281 143.019531 157.839844 141.730469 L 157.550781 139.464844 C 171.625 137.859375 184.84375 130.519531 194.402344 122.792969 C 199.835938 118.398438 208.730469 105.792969 211.382812 96.019531 C 216.003906 78.96875 215.929688 67.273438 212.921875 58.046875 C 209.195312 46.601562 203.15625 35.632812 192.933594 26.566406 C 187.167969 21.449219 180.5625 18.429688 174.433594 15.589844 C 172.777344 14.824219 168.253906 12.921875 160.316406 11.476562 C 147.914062 9.214844 135.355469 10.917969 123.433594 16.929688 C 114.640625 21.363281 110.234375 25.101562 108.953125 26.339844 C 106.300781 28.902344 103.601562 31.296875 101.253906 33.996094 C 96.925781 38.96875 92.800781 45.585938 89.820312 54.25 C 84.46875 69.808594 85.4375 85.597656 91.910156 101.335938 C 91.066406 101.277344 90.039062 101.503906 88.824219 102.003906 C 87.765625 101.511719 87.089844 101.097656 86.800781 100.761719 C 84.335938 94.121094 82.679688 87.773438 82.089844 81.695312 C 80.3125 63.347656 85.660156 46.042969 98.46875 30.285156 C 102.230469 25.65625 106.808594 21.902344 111.417969 18.265625 C 112.601562 17.332031 117.273438 14.679688 125.769531 10.820312 C 131.492188 8.222656 139.867188 6.78125 150.789062 6.246094 Z M 150.789062 6.246094 " fill-opacity="1" fill-rule="nonzero"/><path fill="#6a2042" d="M 174.421875 75.023438 C 174.421875 62.003906 163.898438 51.449219 150.917969 51.449219 C 137.9375 51.449219 127.414062 62.003906 127.414062 75.023438 C 127.414062 88.039062 137.9375 98.59375 150.917969 98.59375 C 163.898438 98.59375 174.421875 88.039062 174.421875 75.023438 M 169.886719 75.023438 C 169.886719 85.53125 161.394531 94.046875 150.917969 94.046875 C 140.441406 94.046875 131.949219 85.53125 131.949219 75.023438 C 131.949219 64.515625 140.441406 55.996094 150.917969 55.996094 C 161.394531 55.996094 169.886719 64.515625 169.886719 75.023438 Z M 169.886719 75.023438 " fill-opacity="1" fill-rule="nonzero"/><path fill="#6a2042" d="M 150.917969 61.128906 C 158.292969 61.128906 164.875 64.535156 169.183594 69.863281 C 171.492188 72.71875 173.152344 76.128906 173.925781 79.863281 C 173.148438 83.59375 171.492188 87.003906 169.183594 89.859375 C 169.644531 88.21875 169.886719 86.488281 169.886719 84.699219 C 169.886719 83.027344 169.671875 81.40625 169.269531 79.863281 C 169.269531 79.863281 169.269531 79.863281 169.269531 79.859375 C 167.132812 71.699219 159.726562 65.675781 150.917969 65.675781 C 142.109375 65.675781 134.703125 71.699219 132.566406 79.859375 C 132.566406 79.863281 132.566406 79.863281 132.566406 79.863281 C 132.164062 81.410156 131.949219 83.03125 131.949219 84.699219 C 131.949219 86.488281 132.195312 88.21875 132.652344 89.859375 C 130.34375 87.003906 128.6875 83.597656 127.910156 79.867188 C 128.683594 76.132812 130.34375 72.722656 132.652344 69.867188 C 136.960938 64.535156 143.542969 61.128906 150.917969 61.128906 Z M 150.917969 61.128906 " fill-opacity="1" fill-rule="nonzero"/><path fill="#6a2042" d="M 86.667969 66.441406 C 87.613281 65.113281 88.492188 64.308594 89.308594 64.023438 L 88.796875 64.136719 C 89.75 64.039062 90.742188 64.335938 91.777344 65.027344 C 92.496094 65.503906 92.953125 65.929688 93.152344 66.300781 L 93.117188 66.234375 C 96.054688 72.199219 97.949219 75.679688 98.804688 76.667969 C 99.199219 77.125 99.636719 77.421875 100.121094 77.566406 L 99 76.8125 C 100.753906 79.003906 102.792969 80.289062 105.113281 80.671875 L 104.953125 80.636719 C 107.484375 81.242188 110.386719 80.230469 113.664062 77.605469 C 113.675781 77.597656 113.6875 77.585938 113.699219 77.578125 C 114.652344 76.78125 115.523438 75.871094 116.3125 74.851562 C 116.347656 74.804688 116.382812 74.757812 116.414062 74.707031 C 118.816406 71.042969 120.296875 68.964844 120.851562 68.464844 C 120.851562 68.464844 120.851562 68.464844 120.847656 68.46875 C 120.953125 68.375 121.050781 68.277344 121.136719 68.167969 C 121.777344 67.367188 122.519531 66.8125 123.367188 66.511719 C 123.902344 66.320312 124.367188 66.402344 124.773438 66.753906 C 124.785156 66.765625 124.796875 66.773438 124.808594 66.785156 C 124.804688 66.78125 124.804688 66.78125 124.804688 66.78125 C 125.316406 67.238281 126.144531 68.820312 127.296875 71.519531 C 127.789062 72.671875 129.121094 73.210938 130.269531 72.714844 C 131.421875 72.222656 131.957031 70.886719 131.464844 69.730469 C 130.050781 66.414062 128.839844 64.300781 127.828125 63.394531 C 127.792969 63.359375 127.757812 63.328125 127.71875 63.300781 L 127.753906 63.328125 C 126.015625 61.804688 124.042969 61.4375 121.839844 62.230469 C 120.1875 62.820312 118.773438 63.855469 117.597656 65.324219 L 117.886719 65.023438 C 117.867188 65.042969 117.847656 65.058594 117.828125 65.074219 C 116.980469 65.835938 115.246094 68.214844 112.625 72.207031 L 112.730469 72.066406 C 112.140625 72.824219 111.496094 73.496094 110.796875 74.082031 L 110.832031 74.054688 C 108.707031 75.753906 107.097656 76.476562 106.003906 76.214844 C 105.953125 76.203125 105.898438 76.191406 105.847656 76.183594 C 104.667969 75.988281 103.5625 75.25 102.535156 73.964844 C 102.246094 73.601562 101.851562 73.339844 101.410156 73.207031 C 101.773438 73.316406 102.046875 73.476562 102.230469 73.6875 C 101.628906 72.996094 99.945312 69.839844 97.183594 64.21875 C 97.171875 64.199219 97.160156 64.175781 97.148438 64.152344 C 96.589844 63.113281 95.640625 62.140625 94.292969 61.242188 C 92.351562 59.945312 90.363281 59.402344 88.332031 59.613281 C 88.15625 59.632812 87.984375 59.671875 87.816406 59.730469 C 86.097656 60.332031 84.484375 61.6875 82.980469 63.796875 C 82.25 64.816406 82.484375 66.238281 83.503906 66.96875 C 84.523438 67.699219 85.9375 67.460938 86.667969 66.441406 Z M 86.667969 66.441406 " fill-opacity="1" fill-rule="nonzero"/><path fill="#6a2042" d="M 170.015625 74.613281 C 171.378906 78.382812 175.15625 79.667969 178.320312 78.511719 C 180.65625 77.664062 182.550781 75.570312 183.226562 72.582031 C 183.722656 70.398438 184.570312 70.617188 185.097656 70.738281 C 185.449219 70.820312 185.703125 70.953125 185.757812 70.992188 C 185.777344 71.003906 185.703125 70.957031 185.59375 70.847656 C 185.867188 71.125 186.121094 71.578125 186.050781 72.347656 C 185.246094 80.984375 185.054688 86.546875 185.425781 88.855469 C 185.980469 92.308594 187.953125 95.199219 192.242188 95.59375 C 196.511719 95.984375 199.222656 93.574219 200.1875 89.910156 C 200.457031 88.875 200.753906 87.382812 200.886719 85.378906 C 200.890625 85.34375 200.890625 85.304688 200.890625 85.265625 L 201.089844 72.160156 L 201.074219 72.421875 C 201.324219 70.492188 201.621094 69.675781 201.75 69.484375 C 201.753906 69.472656 201.695312 69.570312 201.539062 69.6875 C 201.625 69.621094 201.667969 69.605469 201.671875 69.605469 C 201.5625 69.644531 201.347656 69.617188 201.253906 69.558594 C 201.253906 69.558594 201.261719 69.5625 201.269531 69.570312 C 201.378906 69.660156 201.527344 69.808594 201.667969 70.066406 C 203.105469 72.699219 204.183594 74.457031 204.789062 75.160156 C 204.835938 75.214844 204.890625 75.273438 204.949219 75.335938 C 205.820312 76.226562 207.140625 77.484375 209.226562 78.445312 C 213.167969 80.261719 216.71875 78.511719 218.917969 73.703125 C 219.007812 73.507812 219.097656 73.300781 219.1875 73.09375 C 219.667969 71.933594 219.125 70.601562 217.96875 70.117188 C 216.8125 69.632812 215.484375 70.179688 215.003906 71.339844 C 214.933594 71.503906 214.867188 71.660156 214.796875 71.808594 C 213.300781 75.074219 212.109375 74.769531 211.121094 74.3125 C 209.769531 73.691406 208.90625 72.890625 208.191406 72.15625 C 208.207031 72.175781 208.21875 72.183594 208.21875 72.183594 C 207.988281 71.917969 207.136719 70.617188 205.644531 67.882812 C 205.1875 67.042969 204.640625 66.46875 204.179688 66.082031 C 204.054688 65.976562 203.921875 65.875 203.78125 65.78125 C 202.664062 65.027344 201.328125 64.863281 200.039062 65.363281 C 199.617188 65.527344 199.230469 65.746094 198.878906 66.003906 C 198.472656 66.296875 198.175781 66.660156 197.957031 66.988281 C 197.195312 68.15625 196.820312 69.957031 196.578125 71.832031 C 196.566406 71.917969 196.558594 72.003906 196.558594 72.09375 L 196.359375 85.195312 L 196.363281 85.078125 C 196.25 86.777344 196.003906 87.980469 195.800781 88.753906 C 195.332031 90.539062 194.449219 91.230469 192.65625 91.0625 C 190.96875 90.910156 190.222656 90.121094 189.902344 88.132812 C 189.640625 86.511719 189.746094 81.570312 190.5625 72.769531 C 190.761719 70.625 190.007812 68.84375 188.800781 67.632812 C 188.605469 67.4375 188.394531 67.289062 188.242188 67.1875 C 187.722656 66.847656 186.964844 66.5 186.101562 66.304688 C 183.519531 65.714844 179.9375 66.570312 178.804688 71.574219 C 178.441406 73.175781 177.546875 73.957031 176.773438 74.238281 C 175.722656 74.625 174.699219 74.234375 174.277344 73.0625 C 173.847656 71.882812 172.546875 71.273438 171.371094 71.703125 C 170.195312 72.128906 169.585938 73.433594 170.015625 74.613281 Z M 170.015625 74.613281 " fill-opacity="1" fill-rule="nonzero"/><path fill="#6a2042" d="M 133.144531 107.894531 C 138.15625 108.195312 141.597656 109.011719 143.46875 110.351562 C 143.53125 110.394531 143.59375 110.433594 143.660156 110.472656 C 145.949219 111.789062 147.933594 114.316406 149.609375 118.050781 C 149.859375 118.609375 150.324219 119.042969 150.894531 119.253906 C 152.703125 119.914062 154.507812 121.257812 156.320312 123.285156 C 156.335938 123.304688 156.351562 123.320312 156.367188 123.339844 C 159.609375 126.746094 160.96875 132.023438 160.445312 139.164062 C 160.351562 140.417969 161.289062 141.507812 162.539062 141.597656 C 163.789062 141.691406 164.875 140.75 164.964844 139.5 C 165.589844 131.015625 163.816406 124.582031 159.648438 120.199219 L 159.695312 120.253906 C 157.382812 117.660156 154.96875 115.902344 152.453125 114.980469 L 153.742188 116.183594 C 151.664062 111.550781 149.054688 108.332031 145.914062 106.527344 L 146.101562 106.648438 C 143.523438 104.804688 139.292969 103.707031 133.410156 103.355469 C 132.164062 103.28125 131.089844 104.238281 131.015625 105.492188 C 130.941406 106.746094 131.894531 107.820312 133.144531 107.894531 Z M 133.144531 107.894531 " fill-opacity="1" fill-rule="nonzero"/><path fill="#6a2042" d="M 118.40625 109.480469 C 125.703125 108.253906 130.378906 109.164062 133.8125 111.765625 L 133.8125 111.761719 C 136.792969 114.015625 138.828125 118.238281 139.675781 124.8125 C 139.796875 125.75 140.484375 126.515625 141.40625 126.734375 C 146.585938 127.949219 150.804688 130.277344 154.429688 133.359375 C 156.109375 134.785156 157.59375 138.125 157.753906 141.664062 C 157.808594 142.917969 158.871094 143.890625 160.121094 143.832031 C 161.371094 143.777344 162.339844 142.710938 162.28125 141.457031 C 162.085938 137.113281 160.304688 132.386719 157.359375 129.886719 C 153.242188 126.390625 148.386719 123.703125 142.441406 122.304688 L 144.171875 124.226562 C 143.257812 117.148438 140.945312 111.460938 136.542969 108.132812 C 131.71875 104.484375 125.589844 103.660156 117.65625 104.996094 C 116.421875 105.207031 115.585938 106.378906 115.792969 107.617188 C 116 108.855469 117.171875 109.691406 118.40625 109.480469 Z M 118.40625 109.480469 " fill-opacity="1" fill-rule="nonzero"/><path fill="#6a2042" d="M 89.105469 91.882812 C 89.039062 92.148438 88.941406 92.339844 88.808594 92.457031 C 89.167969 92.136719 90.179688 91.742188 91.847656 91.277344 L 91.867188 91.273438 C 92.765625 91.011719 94.234375 91.167969 96.269531 91.742188 C 96.84375 91.902344 97.460938 91.832031 97.980469 91.539062 C 99.28125 90.816406 100.804688 90.363281 102.542969 90.179688 L 102.394531 90.191406 C 106.125 90.039062 109 90.414062 111.015625 91.3125 L 110.921875 91.269531 C 116.539062 94.085938 118.757812 98.546875 117.585938 104.652344 C 117.347656 105.886719 118.152344 107.078125 119.382812 107.316406 C 120.613281 107.550781 121.800781 106.746094 122.039062 105.511719 C 123.644531 97.152344 120.613281 91.046875 112.949219 87.203125 C 112.917969 87.1875 112.886719 87.171875 112.855469 87.160156 C 110.195312 85.972656 106.648438 85.46875 102.214844 85.648438 C 102.164062 85.648438 102.117188 85.652344 102.066406 85.660156 C 99.71875 85.90625 97.625 86.539062 95.785156 87.5625 L 97.496094 87.363281 C 94.632812 86.558594 92.335938 86.402344 90.613281 86.902344 L 90.628906 86.898438 C 88.289062 87.550781 86.679688 88.273438 85.796875 89.058594 C 85.226562 89.566406 84.863281 90.144531 84.703125 90.796875 C 84.402344 92.015625 85.148438 93.246094 86.363281 93.546875 C 87.578125 93.847656 88.804688 93.101562 89.105469 91.882812 Z M 89.105469 91.882812 " fill-opacity="1" fill-rule="nonzero"/><path fill="#6a2042" d="M 120.109375 99.949219 C 122.234375 99.953125 124.371094 100.738281 126.511719 102.300781 C 126.53125 102.3125 126.550781 102.328125 126.570312 102.339844 C 128.046875 103.351562 129.195312 104.996094 130.011719 107.277344 C 130.433594 108.457031 131.734375 109.074219 132.910156 108.648438 C 134.089844 108.226562 134.703125 106.921875 134.28125 105.742188 C 133.132812 102.53125 131.410156 100.144531 129.121094 98.582031 L 129.179688 98.625 C 126.246094 96.480469 123.226562 95.410156 120.121094 95.402344 C 118.867188 95.398438 117.851562 96.414062 117.847656 97.671875 C 117.847656 98.925781 118.859375 99.945312 120.109375 99.949219 Z M 120.109375 99.949219 " fill-opacity="1" fill-rule="nonzero"/><path fill="#6a2042" d="M 89.875 102.054688 C 91.269531 101.394531 92.414062 101.515625 92.207031 101.5 C 93.378906 101.597656 94.554688 102.140625 95.777344 103.203125 C 96.261719 103.621094 96.898438 103.816406 97.53125 103.742188 C 99.722656 103.480469 101.296875 103.347656 102.335938 103.355469 C 104.214844 103.371094 105.632812 103.554688 106.652344 103.84375 C 111.476562 105.210938 114.339844 106.824219 115.734375 108.398438 C 116.5625 109.335938 117.996094 109.421875 118.933594 108.589844 C 119.871094 107.757812 119.953125 106.320312 119.125 105.378906 C 116.851562 102.8125 112.953125 100.90625 107.886719 99.46875 C 106.339844 99.027344 104.476562 98.828125 102.375 98.808594 C 101.019531 98.796875 99.195312 98.964844 96.996094 99.226562 L 98.75 99.765625 C 97.019531 98.265625 94.964844 97.164062 92.578125 96.96875 C 92.375 96.953125 90.339844 96.8125 87.945312 97.9375 C 86.8125 98.472656 86.324219 99.828125 86.859375 100.964844 C 87.390625 102.097656 88.742188 102.585938 89.875 102.054688 Z M 89.875 102.054688 " fill-opacity="1" fill-rule="nonzero"/><path fill="#6a2042" d="M 94.417969 89.34375 C 94.417969 89.4375 94.417969 89.527344 94.421875 89.621094 C 94.46875 90.859375 95.496094 91.828125 96.730469 91.804688 C 97.96875 91.78125 98.957031 90.769531 98.953125 89.53125 C 98.953125 89.582031 98.953125 89.632812 98.949219 89.683594 L 94.425781 89.660156 C 94.421875 89.640625 94.421875 89.625 94.421875 89.625 L 96.6875 89.539062 L 94.421875 89.625 C 94.425781 89.679688 94.4375 90.113281 94.457031 90.691406 C 94.484375 91.679688 94.527344 93.066406 94.546875 93.527344 C 94.550781 93.683594 94.554688 93.871094 94.558594 94.113281 C 94.558594 94.234375 94.5625 94.355469 94.5625 94.46875 L 94.570312 95.546875 L 94.570312 95.882812 C 94.574219 95.988281 94.578125 96.28125 94.585938 96.746094 C 94.585938 96.808594 94.589844 96.875 94.589844 96.957031 C 94.589844 97.007812 94.589844 96.964844 94.589844 97.019531 L 94.589844 97.011719 L 94.589844 97.027344 C 94.589844 97.089844 94.589844 97.261719 94.582031 97.546875 C 94.578125 97.714844 94.574219 97.871094 94.574219 97.980469 L 94.570312 97.980469 C 94.570312 98.054688 94.566406 98.125 94.566406 98.183594 C 94.566406 98.21875 94.566406 98.253906 94.566406 98.289062 L 94.566406 98.375 C 94.566406 98.523438 94.5625 98.710938 94.558594 98.949219 C 94.558594 99.027344 94.5625 99.203125 94.566406 99.339844 C 94.5625 99.246094 94.570312 99.183594 94.570312 99.195312 L 94.570312 99.191406 C 94.570312 99.199219 94.570312 99.191406 94.570312 99.203125 C 94.453125 100.453125 95.371094 101.558594 96.621094 101.671875 C 97.867188 101.789062 98.96875 100.867188 99.085938 99.617188 C 99.085938 99.601562 99.085938 99.59375 99.085938 99.574219 C 99.09375 99.515625 99.101562 99.386719 99.097656 99.234375 L 99.097656 99.238281 C 99.09375 99.011719 99.09375 98.980469 99.09375 99.015625 L 99.09375 99.019531 C 99.097656 98.75 99.097656 98.546875 99.097656 98.390625 L 99.097656 98.320312 L 99.097656 98.324219 L 99.097656 98.316406 L 99.097656 98.320312 C 99.097656 98.316406 99.097656 98.304688 99.101562 98.285156 C 99.101562 98.242188 99.101562 98.1875 99.105469 98.109375 C 99.109375 97.996094 99.113281 97.832031 99.117188 97.648438 C 99.125 97.308594 99.121094 97.09375 99.121094 97.007812 L 99.121094 97.015625 L 99.121094 97 C 99.121094 96.957031 99.121094 96.992188 99.121094 96.941406 C 99.121094 96.863281 99.121094 96.765625 99.121094 96.660156 C 99.109375 96.171875 99.105469 95.921875 99.105469 95.851562 L 99.101562 95.515625 L 99.09375 94.4375 C 99.09375 94.3125 99.09375 94.171875 99.089844 94.046875 C 99.085938 93.808594 99.082031 93.574219 99.074219 93.363281 C 99.058594 92.914062 99.019531 91.550781 98.988281 90.550781 C 98.96875 89.992188 98.957031 89.527344 98.953125 89.457031 L 96.6875 89.539062 L 98.953125 89.453125 C 98.953125 89.441406 98.953125 89.425781 98.949219 89.402344 L 94.425781 89.378906 C 94.421875 89.433594 94.421875 89.484375 94.421875 89.53125 L 98.953125 89.445312 C 98.953125 89.441406 98.953125 89.441406 98.953125 89.4375 C 98.980469 88.183594 97.984375 87.144531 96.734375 87.117188 C 95.480469 87.089844 94.445312 88.085938 94.417969 89.34375 Z M 94.417969 89.34375 " fill-opacity="1" fill-rule="nonzero"/><path fill="#6a2042" d="M 143.199219 126.011719 C 143.246094 125.988281 143.292969 125.964844 143.34375 125.9375 C 143.890625 125.652344 145.613281 124.539062 148.503906 122.59375 C 148.519531 122.585938 148.53125 122.578125 148.546875 122.566406 L 152.761719 119.601562 C 153.785156 118.878906 154.03125 117.460938 153.3125 116.433594 C 152.59375 115.40625 151.179688 115.160156 150.15625 115.878906 L 145.941406 118.847656 L 145.980469 118.816406 C 143.226562 120.667969 141.652344 121.699219 141.253906 121.90625 C 141.261719 121.902344 141.269531 121.898438 141.28125 121.890625 C 140.148438 122.421875 139.65625 123.773438 140.1875 124.914062 C 140.71875 126.050781 142.066406 126.542969 143.199219 126.011719 Z M 143.199219 126.011719 " fill-opacity="1" fill-rule="nonzero"/><path fill="#ffffff" d="M 170.089844 26.484375 L 170.085938 26.417969 L 170.089844 26.484375 C 170.085938 26.480469 170.085938 26.480469 170.085938 26.476562 C 170.085938 26.480469 170.085938 26.484375 170.085938 26.492188 L 170.089844 26.449219 C 170.074219 26.640625 170.0625 26.765625 170.058594 26.8125 C 170.058594 26.832031 170.054688 26.851562 170.054688 26.867188 L 170.054688 26.851562 L 170.042969 27.140625 L 170.042969 27.117188 C 170.019531 27.441406 170.007812 27.640625 170.003906 27.707031 L 170.003906 27.710938 L 170.003906 27.703125 L 169.976562 28.226562 L 169.980469 28.214844 C 169.957031 28.539062 169.9375 28.949219 169.910156 29.453125 L 169.910156 29.449219 C 169.90625 29.523438 169.902344 29.613281 169.898438 29.722656 L 169.898438 29.730469 C 169.894531 29.839844 169.890625 29.929688 169.890625 30 L 169.882812 30.945312 C 169.882812 30.957031 169.882812 30.96875 169.882812 30.976562 C 169.890625 31.4375 169.902344 31.734375 169.910156 31.871094 L 169.910156 31.867188 C 169.914062 31.902344 169.917969 31.933594 169.921875 31.960938 C 170.011719 32.695312 170.675781 33.21875 171.410156 33.128906 C 172.144531 33.039062 172.664062 32.367188 172.574219 31.632812 C 172.574219 31.644531 172.578125 31.65625 172.578125 31.664062 L 172.578125 31.660156 C 172.570312 31.582031 172.566406 31.339844 172.558594 30.933594 L 172.558594 30.96875 L 172.566406 30.019531 C 172.566406 29.96875 172.566406 29.898438 172.570312 29.808594 L 172.570312 29.816406 C 172.574219 29.726562 172.578125 29.652344 172.578125 29.597656 L 172.578125 29.59375 C 172.605469 29.101562 172.628906 28.695312 172.648438 28.378906 L 172.648438 28.363281 L 172.675781 27.839844 L 172.675781 27.832031 C 172.675781 27.785156 172.6875 27.609375 172.710938 27.304688 L 172.710938 27.28125 L 172.726562 26.992188 L 172.726562 26.976562 C 172.726562 26.984375 172.726562 26.996094 172.726562 27 C 172.730469 26.96875 172.738281 26.867188 172.753906 26.691406 C 172.753906 26.675781 172.757812 26.664062 172.757812 26.648438 C 172.761719 26.589844 172.761719 26.535156 172.761719 26.480469 C 172.761719 26.4375 172.761719 26.394531 172.757812 26.351562 L 172.761719 26.417969 C 172.722656 25.613281 172.09375 25.042969 171.355469 25.078125 C 170.617188 25.117188 170.050781 25.746094 170.089844 26.484375 Z M 170.089844 26.484375 " fill-opacity="1" fill-rule="nonzero"/><path fill="#fbdd72" d="M 167.167969 40.65625 C 167.175781 40.625 167.183594 40.597656 167.191406 40.578125 C 167.148438 40.671875 167.003906 40.898438 166.761719 41.25 C 166.742188 41.277344 166.722656 41.304688 166.707031 41.335938 C 166.714844 41.316406 166.726562 41.300781 166.734375 41.289062 C 166.648438 41.417969 166.050781 42.257812 164.929688 43.804688 C 164.65625 44.183594 164.742188 44.707031 165.117188 44.980469 C 165.492188 45.253906 166.015625 45.171875 166.289062 44.792969 C 167.425781 43.222656 168.042969 42.359375 168.140625 42.207031 C 168.160156 42.179688 168.175781 42.152344 168.1875 42.128906 L 168.136719 42.214844 C 168.441406 41.773438 168.640625 41.457031 168.726562 41.261719 C 168.761719 41.179688 168.789062 41.101562 168.804688 41.027344 C 168.90625 40.574219 168.625 40.125 168.171875 40.023438 C 167.71875 39.917969 167.269531 40.203125 167.167969 40.65625 Z M 167.167969 40.65625 " fill-opacity="1" fill-rule="nonzero"/><path fill="#72c6fb" d="M 192.296875 47.183594 C 192.367188 47.175781 192.441406 47.160156 192.519531 47.144531 C 192.53125 47.140625 192.542969 47.136719 192.558594 47.132812 C 192.578125 47.128906 192.59375 47.125 192.613281 47.117188 C 192.808594 47.054688 192.953125 47.015625 193.046875 46.996094 L 193.058594 46.992188 C 193.183594 46.964844 193.332031 46.933594 193.507812 46.910156 L 193.515625 46.90625 C 193.816406 46.859375 194.632812 46.761719 195.964844 46.609375 L 195.984375 46.605469 L 197.347656 46.425781 C 197.976562 46.34375 198.417969 45.769531 198.335938 45.140625 C 198.253906 44.507812 197.679688 44.066406 197.050781 44.148438 L 195.6875 44.328125 L 195.707031 44.328125 C 194.34375 44.480469 193.492188 44.585938 193.15625 44.636719 L 193.164062 44.636719 C 192.929688 44.671875 192.722656 44.710938 192.539062 44.753906 L 192.554688 44.75 C 192.398438 44.785156 192.191406 44.84375 191.933594 44.921875 L 191.988281 44.90625 C 191.984375 44.90625 191.984375 44.90625 191.984375 44.90625 C 191.988281 44.90625 191.992188 44.90625 192 44.90625 C 191.371094 44.988281 190.929688 45.5625 191.011719 46.195312 C 191.09375 46.824219 191.667969 47.265625 192.296875 47.183594 Z M 192.296875 47.183594 " fill-opacity="1" fill-rule="nonzero"/><path fill="#72c6fb" d="M 141.167969 35.675781 C 141.238281 35.675781 141.3125 35.671875 141.386719 35.664062 C 141.398438 35.664062 141.40625 35.664062 141.417969 35.660156 C 141.5 35.652344 141.554688 35.648438 141.578125 35.644531 C 141.574219 35.644531 141.570312 35.644531 141.566406 35.644531 L 141.589844 35.644531 C 141.628906 35.640625 141.675781 35.640625 141.726562 35.636719 L 141.71875 35.636719 L 141.726562 35.636719 C 141.789062 35.636719 141.84375 35.632812 141.882812 35.632812 L 141.875 35.632812 L 142.3125 35.628906 C 142.371094 35.628906 142.429688 35.628906 142.492188 35.625 L 142.507812 35.625 L 142.976562 35.609375 L 142.96875 35.609375 L 142.976562 35.609375 C 143.0625 35.605469 143.148438 35.601562 143.234375 35.601562 C 143.378906 35.597656 143.527344 35.59375 143.671875 35.59375 L 143.667969 35.59375 L 144.414062 35.589844 C 144.542969 35.589844 144.683594 35.589844 144.832031 35.589844 C 145.578125 35.582031 146.183594 34.96875 146.175781 34.21875 C 146.171875 33.46875 145.558594 32.867188 144.8125 32.871094 C 144.664062 32.871094 144.53125 32.875 144.402344 32.875 L 144.40625 32.875 L 143.65625 32.875 C 143.492188 32.878906 143.332031 32.878906 143.167969 32.882812 C 143.070312 32.886719 142.972656 32.890625 142.878906 32.890625 L 142.882812 32.890625 L 142.875 32.890625 L 142.402344 32.910156 L 142.421875 32.910156 C 142.375 32.910156 142.328125 32.914062 142.285156 32.914062 L 142.289062 32.914062 L 141.855469 32.917969 L 141.847656 32.917969 C 141.789062 32.917969 141.714844 32.917969 141.628906 32.921875 L 141.636719 32.921875 L 141.625 32.921875 C 141.546875 32.925781 141.472656 32.929688 141.40625 32.933594 L 141.429688 32.933594 C 141.414062 32.933594 141.394531 32.933594 141.378906 32.933594 C 141.324219 32.941406 141.238281 32.949219 141.121094 32.960938 L 141.15625 32.957031 C 141.148438 32.957031 141.140625 32.957031 141.132812 32.957031 C 140.382812 32.96875 139.785156 33.585938 139.796875 34.335938 C 139.804688 35.085938 140.417969 35.683594 141.167969 35.675781 Z M 141.167969 35.675781 " fill-opacity="1" fill-rule="nonzero"/><path fill="#fbdd72" d="M 124.078125 43.179688 C 124.113281 43.238281 124.148438 43.292969 124.175781 43.332031 C 124.539062 43.847656 125.921875 45.179688 128.113281 47.1875 C 128.550781 47.589844 129.230469 47.558594 129.628906 47.121094 C 130.03125 46.683594 130 46 129.5625 45.597656 C 127.261719 43.488281 126.125 42.363281 125.929688 42.089844 C 125.929688 42.085938 125.9375 42.101562 125.953125 42.128906 C 125.664062 41.609375 125.007812 41.421875 124.492188 41.714844 C 123.976562 42.003906 123.789062 42.660156 124.078125 43.179688 Z M 124.078125 43.179688 " fill-opacity="1" fill-rule="nonzero"/><path fill="#72c6fb" d="M 102.558594 56.640625 C 103.550781 55.484375 104.332031 54.65625 104.902344 54.152344 C 105.40625 53.707031 105.453125 52.9375 105.007812 52.433594 C 104.5625 51.929688 103.796875 51.878906 103.292969 52.324219 C 102.640625 52.90625 101.785156 53.8125 100.71875 55.046875 C 100.28125 55.558594 100.339844 56.324219 100.847656 56.765625 C 101.355469 57.203125 102.121094 57.148438 102.558594 56.640625 Z M 102.558594 56.640625 " fill-opacity="1" fill-rule="nonzero"/><path fill="#72c6fb" d="M 148.726562 16.421875 C 148.457031 16.914062 148.242188 17.269531 148.074219 17.480469 C 148.066406 17.488281 148.058594 17.5 148.050781 17.511719 C 147.847656 17.789062 147.472656 18.214844 146.929688 18.796875 C 146.371094 19.394531 146.398438 20.332031 146.996094 20.894531 C 147.589844 21.457031 148.527344 21.425781 149.085938 20.828125 C 149.710938 20.164062 150.15625 19.648438 150.429688 19.28125 L 150.402344 19.3125 C 150.671875 18.972656 150.976562 18.484375 151.324219 17.847656 C 151.714844 17.128906 151.453125 16.226562 150.734375 15.832031 C 150.019531 15.4375 149.121094 15.703125 148.726562 16.421875 Z M 148.726562 16.421875 " fill-opacity="1" fill-rule="nonzero"/><path fill="#72fb74" d="M 181.3125 47.949219 C 181.335938 48.378906 181.375 48.808594 181.429688 49.242188 C 181.453125 49.421875 181.476562 49.597656 181.503906 49.777344 L 181.507812 49.792969 C 181.601562 50.367188 181.652344 50.691406 181.664062 50.773438 L 181.664062 50.78125 C 181.664062 50.78125 181.664062 50.78125 181.664062 50.785156 C 181.6875 50.949219 181.699219 51.046875 181.703125 51.070312 C 181.695312 51.019531 181.695312 50.96875 181.695312 50.914062 C 181.695312 50.960938 181.695312 51.007812 181.699219 51.054688 C 181.722656 51.292969 181.757812 51.566406 181.796875 51.878906 C 181.875 52.496094 182.4375 52.933594 183.050781 52.855469 C 183.667969 52.777344 184.101562 52.210938 184.023438 51.59375 C 183.984375 51.300781 183.957031 51.046875 183.933594 50.832031 L 183.941406 50.972656 C 183.941406 50.917969 183.9375 50.859375 183.929688 50.796875 C 183.925781 50.765625 183.914062 50.65625 183.890625 50.480469 C 183.890625 50.480469 183.890625 50.480469 183.890625 50.476562 L 183.890625 50.484375 C 183.875 50.378906 183.820312 50.023438 183.722656 49.425781 L 183.722656 49.445312 C 183.699219 49.285156 183.679688 49.121094 183.65625 48.960938 C 183.609375 48.578125 183.574219 48.203125 183.554688 47.832031 C 183.523438 47.210938 182.992188 46.734375 182.375 46.765625 C 181.753906 46.800781 181.28125 47.328125 181.3125 47.949219 Z M 181.3125 47.949219 " fill-opacity="1" fill-rule="nonzero"/><path fill="#ffffff" d="M 193.742188 61.492188 C 193.265625 62.585938 192.824219 63.488281 192.410156 64.199219 C 192.089844 64.753906 192.277344 65.46875 192.832031 65.789062 C 193.386719 66.113281 194.097656 65.925781 194.421875 65.367188 C 194.875 64.578125 195.359375 63.597656 195.871094 62.425781 C 196.125 61.835938 195.859375 61.148438 195.269531 60.890625 C 194.683594 60.636719 193.996094 60.90625 193.742188 61.492188 Z M 193.742188 61.492188 " fill-opacity="1" fill-rule="nonzero"/><path fill="#ffcc00" d="M 191.953125 81.074219 C 191.949219 81.15625 191.953125 81.238281 191.960938 81.328125 C 191.964844 81.347656 191.964844 81.363281 191.96875 81.382812 C 191.972656 81.402344 191.972656 81.421875 191.976562 81.4375 C 192 81.570312 192.011719 81.671875 192.019531 81.753906 L 192.019531 81.75 L 192.066406 82.335938 C 192.066406 82.34375 192.070312 82.355469 192.070312 82.363281 C 192.121094 82.851562 192.179688 83.460938 192.242188 84.195312 C 192.296875 84.816406 192.839844 85.277344 193.460938 85.222656 C 194.082031 85.171875 194.539062 84.621094 194.488281 84 C 194.421875 83.253906 194.363281 82.625 194.3125 82.125 L 194.3125 82.152344 L 194.265625 81.566406 C 194.253906 81.421875 194.230469 81.25 194.199219 81.054688 L 194.207031 81.109375 C 194.207031 81.117188 194.207031 81.125 194.207031 81.136719 C 194.222656 80.511719 193.734375 79.992188 193.109375 79.976562 C 192.488281 79.957031 191.96875 80.449219 191.953125 81.074219 Z M 191.953125 81.074219 " fill-opacity="1" fill-rule="nonzero"/><path fill="#ffffff" d="M 205.914062 62.839844 L 205.929688 62.84375 L 205.914062 62.839844 C 206.050781 62.871094 206.195312 62.921875 206.34375 62.992188 L 206.273438 62.957031 C 206.980469 63.328125 207.597656 63.636719 208.132812 63.878906 C 208.882812 64.222656 209.765625 63.894531 210.109375 63.140625 C 210.453125 62.390625 210.125 61.503906 209.375 61.15625 C 208.890625 60.933594 208.316406 60.648438 207.65625 60.304688 C 207.632812 60.289062 207.609375 60.28125 207.585938 60.269531 C 207.257812 60.117188 206.925781 60.003906 206.59375 59.925781 L 206.578125 59.921875 C 205.789062 59.734375 204.984375 60.238281 204.800781 61.042969 C 204.613281 61.847656 205.109375 62.652344 205.914062 62.839844 Z M 205.914062 62.839844 " fill-opacity="1" fill-rule="nonzero"/><path fill="#fbdd72" d="M 180.925781 33.273438 C 181.332031 33.226562 181.746094 33.152344 182.171875 33.054688 L 182.195312 33.046875 C 184.210938 32.535156 185.5625 32.199219 186.25 32.035156 C 186.890625 31.886719 187.285156 31.246094 187.136719 30.605469 C 186.988281 29.964844 186.347656 29.570312 185.710938 29.71875 C 185.007812 29.882812 183.640625 30.222656 181.609375 30.742188 L 181.632812 30.734375 C 181.296875 30.816406 180.964844 30.875 180.648438 30.910156 C 179.996094 30.988281 179.53125 31.582031 179.609375 32.234375 C 179.6875 32.886719 180.277344 33.351562 180.925781 33.273438 Z M 180.925781 33.273438 " fill-opacity="1" fill-rule="nonzero"/><path fill="#72c6fb" d="M 178.199219 62.710938 C 178.105469 63.042969 178.023438 63.28125 177.953125 63.425781 L 177.949219 63.4375 C 177.40625 64.628906 177.066406 65.363281 176.921875 65.632812 C 176.683594 66.082031 176.855469 66.640625 177.300781 66.878906 C 177.75 67.117188 178.308594 66.949219 178.546875 66.496094 C 178.707031 66.195312 179.066406 65.429688 179.625 64.199219 L 179.617188 64.214844 C 179.726562 63.976562 179.84375 63.648438 179.96875 63.21875 C 180.105469 62.730469 179.824219 62.21875 179.335938 62.078125 C 178.847656 61.9375 178.339844 62.222656 178.199219 62.710938 Z M 178.199219 62.710938 " fill-opacity="1" fill-rule="nonzero"/><path fill="#fbdd72" d="M 155.578125 28.863281 C 155.652344 28.859375 155.777344 28.855469 155.957031 28.847656 L 155.941406 28.847656 C 155.976562 28.847656 156.011719 28.84375 156.042969 28.84375 L 156.050781 28.84375 C 156.109375 28.84375 156.195312 28.847656 156.3125 28.859375 L 156.296875 28.855469 C 157.175781 28.933594 157.875 29.015625 158.390625 29.097656 C 159.042969 29.199219 159.65625 28.753906 159.757812 28.101562 C 159.863281 27.445312 159.417969 26.832031 158.765625 26.730469 C 158.191406 26.636719 157.441406 26.550781 156.507812 26.46875 L 156.496094 26.46875 C 156.308594 26.453125 156.15625 26.445312 156.03125 26.445312 L 156.039062 26.445312 C 155.980469 26.445312 155.921875 26.449219 155.859375 26.449219 L 155.84375 26.453125 C 155.679688 26.460938 155.570312 26.464844 155.515625 26.464844 C 154.855469 26.484375 154.335938 27.035156 154.351562 27.695312 C 154.371094 28.355469 154.917969 28.878906 155.578125 28.863281 Z M 155.578125 28.863281 " fill-opacity="1" fill-rule="nonzero"/><path fill="#ffffff" d="M 127.117188 28.589844 C 128.160156 29.265625 131.472656 32.113281 131.703125 32.324219 C 131.703125 32.324219 131.703125 32.324219 131.703125 32.320312 C 132.144531 32.734375 132.835938 32.707031 133.25 32.265625 C 133.660156 31.820312 133.632812 31.125 133.191406 30.710938 C 133.183594 30.707031 133.183594 30.703125 133.179688 30.699219 C 132.957031 30.496094 129.519531 27.53125 128.304688 26.742188 C 127.796875 26.414062 127.117188 26.5625 126.789062 27.070312 C 126.460938 27.578125 126.605469 28.261719 127.117188 28.589844 Z M 127.117188 28.589844 " fill-opacity="1" fill-rule="nonzero"/><path fill="#72fb74" d="M 140.113281 44.519531 C 140.117188 44.632812 140.132812 44.804688 140.148438 45.015625 L 140.152344 45.042969 C 140.15625 45.085938 140.15625 45.136719 140.160156 45.199219 C 140.160156 45.207031 140.160156 45.210938 140.160156 45.21875 C 140.164062 45.261719 140.167969 45.359375 140.175781 45.476562 C 140.203125 45.914062 140.257812 46.8125 140.285156 47.585938 C 140.308594 48.171875 140.3125 48.570312 140.300781 48.683594 C 140.300781 48.683594 140.300781 48.683594 140.300781 48.679688 C 140.21875 49.375 140.714844 50.007812 141.410156 50.089844 C 142.105469 50.171875 142.734375 49.675781 142.816406 48.980469 C 142.816406 48.964844 142.820312 48.949219 142.820312 48.933594 C 142.851562 48.605469 142.835938 48.011719 142.816406 47.488281 C 142.785156 46.683594 142.730469 45.757812 142.703125 45.324219 C 142.695312 45.191406 142.691406 45.117188 142.691406 45.097656 C 142.691406 45.097656 142.691406 45.101562 142.691406 45.101562 C 142.6875 45.03125 142.683594 44.9375 142.675781 44.839844 L 142.671875 44.8125 C 142.65625 44.585938 142.644531 44.449219 142.640625 44.363281 C 142.597656 43.664062 141.996094 43.132812 141.296875 43.175781 C 140.601562 43.21875 140.070312 43.820312 140.113281 44.519531 Z M 140.113281 44.519531 " fill-opacity="1" fill-rule="nonzero"/><path fill="#fbdd72" d="M 106.628906 66.476562 C 107.089844 66.332031 107.390625 66.25 107.535156 66.226562 C 107.558594 66.222656 107.578125 66.21875 107.597656 66.214844 C 107.902344 66.148438 108.195312 66.109375 108.476562 66.097656 C 109.128906 66.070312 109.632812 65.519531 109.605469 64.867188 C 109.574219 64.214844 109.027344 63.707031 108.375 63.734375 C 107.960938 63.753906 107.539062 63.808594 107.109375 63.898438 L 107.171875 63.886719 C 106.910156 63.929688 106.492188 64.039062 105.921875 64.222656 C 105.300781 64.417969 104.953125 65.082031 105.152344 65.703125 C 105.347656 66.328125 106.007812 66.675781 106.628906 66.476562 Z M 106.628906 66.476562 " fill-opacity="1" fill-rule="nonzero"/><path fill="#ffffff" d="M 117.128906 51.242188 L 117.953125 54.726562 C 118.121094 55.429688 118.824219 55.863281 119.523438 55.695312 C 120.226562 55.53125 120.660156 54.824219 120.492188 54.121094 L 119.667969 50.636719 C 119.5 49.933594 118.796875 49.5 118.097656 49.667969 C 117.394531 49.832031 116.960938 50.539062 117.128906 51.242188 Z M 117.128906 51.242188 " fill-opacity="1" fill-rule="nonzero"/><path fill="#72fb74" d="M 98.757812 45.59375 C 98.761719 45.59375 98.765625 45.59375 98.765625 45.59375 C 98.894531 45.605469 99.167969 45.613281 99.589844 45.617188 C 99.632812 45.617188 99.714844 45.617188 99.832031 45.617188 L 99.828125 45.617188 C 99.867188 45.617188 100.101562 45.617188 100.53125 45.613281 L 100.527344 45.613281 C 100.640625 45.613281 100.753906 45.613281 100.871094 45.613281 C 101.167969 45.613281 101.425781 45.617188 101.648438 45.621094 L 101.652344 45.621094 C 102.007812 45.625 102.40625 45.640625 102.855469 45.667969 C 103.507812 45.703125 104.066406 45.207031 104.101562 44.554688 C 104.140625 43.902344 103.644531 43.34375 102.992188 43.304688 C 102.511719 43.277344 102.074219 43.261719 101.6875 43.253906 C 101.457031 43.25 101.183594 43.25 100.875 43.246094 C 100.753906 43.246094 100.636719 43.246094 100.519531 43.246094 C 100.097656 43.25 99.867188 43.25 99.832031 43.25 L 99.828125 43.25 C 99.722656 43.25 99.652344 43.25 99.613281 43.25 C 99.25 43.246094 99.03125 43.242188 98.957031 43.234375 C 98.953125 43.234375 98.953125 43.234375 98.953125 43.234375 C 98.304688 43.179688 97.734375 43.664062 97.679688 44.316406 C 97.625 44.964844 98.109375 45.539062 98.757812 45.59375 Z M 98.757812 45.59375 " fill-opacity="1" fill-rule="nonzero"/><path fill="#fbdd72" d="M 114.519531 30.425781 L 114.613281 30.652344 C 114.867188 31.277344 116.21875 34.921875 116.21875 34.921875 L 120.3125 34.871094 L 116.761719 37.308594 C 117.613281 40.25 118.140625 41.945312 118.34375 42.394531 C 118.328125 42.429688 118.292969 42.425781 118.242188 42.375 C 117.742188 41.882812 116.539062 40.824219 114.621094 39.21875 C 114.105469 39.703125 113.199219 40.570312 111.902344 41.824219 L 111.480469 42.175781 L 111.015625 42.523438 L 112.503906 37.410156 L 109.183594 34.890625 L 113.175781 34.914062 Z M 114.519531 30.425781 " fill-opacity="1" fill-rule="nonzero"/><path fill="#72fb74" d="M 164.710938 16.070312 L 164.761719 16.195312 C 164.902344 16.542969 165.648438 18.550781 165.648438 18.550781 L 167.90625 18.523438 L 165.949219 19.867188 C 166.417969 21.488281 166.707031 22.421875 166.820312 22.671875 C 166.8125 22.691406 166.792969 22.691406 166.765625 22.660156 C 166.488281 22.390625 165.824219 21.804688 164.769531 20.917969 C 164.484375 21.1875 163.984375 21.667969 163.265625 22.359375 L 163.035156 22.550781 L 162.777344 22.742188 L 163.597656 19.921875 L 161.765625 18.53125 L 163.96875 18.546875 Z M 164.710938 16.070312 " fill-opacity="1" fill-rule="nonzero"/><path fill="#72c6fb" d="M 172.054688 48.476562 L 172.117188 48.628906 C 172.289062 49.054688 173.207031 51.523438 173.207031 51.523438 L 175.980469 51.488281 L 173.574219 53.140625 C 174.152344 55.132812 174.507812 56.28125 174.644531 56.589844 C 174.636719 56.609375 174.609375 56.609375 174.574219 56.574219 C 174.238281 56.238281 173.421875 55.523438 172.125 54.433594 C 171.773438 54.761719 171.160156 55.351562 170.28125 56.203125 L 169.996094 56.4375 L 169.679688 56.675781 L 170.6875 53.210938 L 168.4375 51.503906 L 171.140625 51.519531 Z M 172.054688 48.476562 " fill-opacity="1" fill-rule="nonzero"/><path stroke-linecap="butt" transform="matrix(0.802191, 0, 0, 0.802191, 0.0000025, -4.998907)" fill="none" stroke-linejoin="miter" d="M 57.265035 63.998162 C 57.265035 64.825972 55.205247 65.244747 51.09054 65.244747 C 46.980702 65.244747 44.930653 64.825972 44.930653 63.998162 L 44.930653 32.721517 L 37.446268 32.721517 C 36.745063 32.721517 36.248377 31.767099 35.951339 29.858265 C 35.829602 28.947673 35.771168 28.012733 35.771168 27.058316 C 35.771168 26.099029 35.829602 25.15922 35.951339 24.243759 C 36.248377 22.339794 36.745063 21.385376 37.446268 21.385376 L 64.554641 21.385376 C 65.260715 21.385376 65.757402 22.339794 66.044701 24.243759 C 66.176177 25.15922 66.23948 26.099029 66.23948 27.058316 C 66.23948 28.012733 66.176177 28.947673 66.044701 29.858265 C 65.757402 31.767099 65.260715 32.721517 64.554641 32.721517 L 57.265035 32.721517 Z M 83.107345 64.93797 C 83.107345 65.235008 81.222858 65.381093 77.449014 65.381093 C 73.665431 65.288573 71.776074 65.123011 71.776074 64.879537 L 71.776074 44.189133 L 70.086366 44.189133 C 69.428987 44.189133 68.898214 43.784966 68.503786 42.971764 C 68.109359 42.163431 67.90971 41.15058 67.90971 39.94295 C 67.90971 35.463032 69.239077 33.223073 71.897811 33.223073 C 73.76282 33.223073 75.321053 33.792801 76.567639 34.941998 C 77.814224 36.076586 78.437517 37.371866 78.437517 38.832709 C 79.309154 37.133262 80.482697 35.769809 81.953279 34.756958 C 83.4336 33.734368 84.943137 33.223073 86.486761 33.223073 C 88.887413 33.223073 90.338517 33.846366 90.835203 35.092952 C 90.966679 35.428945 91.034852 35.920763 91.034852 36.568403 C 91.034852 37.206304 90.835203 38.36037 90.440776 40.020861 C 90.046348 41.676483 89.637312 42.874374 89.223407 43.624274 C 88.809501 44.379042 88.556289 44.753992 88.463769 44.753992 C 88.380988 44.753992 87.996299 44.593299 87.304833 44.281653 C 86.627976 43.965137 86.019292 43.809314 85.483649 43.809314 C 83.90107 43.809314 83.107345 45.0559 83.107345 47.549071 Z M 117.695233 63.311565 C 115.080325 64.855189 111.710647 65.624567 107.59594 65.624567 C 103.486102 65.624567 100.019035 64.222157 97.18987 61.427078 C 94.360704 58.61739 92.943687 54.731549 92.943687 49.774422 C 92.943687 44.802687 94.30227 40.799978 97.024308 37.771163 C 99.751214 34.73748 103.189064 33.223073 107.337858 33.223073 C 111.49639 33.223073 114.705375 34.279749 116.964812 36.402841 C 119.238857 38.521063 120.373445 41.097016 120.373445 44.130699 C 120.373445 50.850576 116.511951 54.215384 108.784092 54.215384 L 104.474606 54.215384 C 104.474606 55.46197 104.815469 56.323867 105.497196 56.801076 C 106.183792 57.278285 107.196643 57.516889 108.521141 57.516889 C 111.433087 57.516889 114.19895 56.849771 116.813858 55.520404 C 116.852814 55.481448 117.042724 55.778486 117.378718 56.406648 C 118.372091 58.188877 118.868777 59.693545 118.868777 60.920653 C 118.868777 62.15263 118.479219 62.946355 117.695233 63.311565 Z M 109.908941 45.313982 C 109.908941 43.570709 109.056783 42.699073 107.352466 42.699073 C 106.558742 42.699073 105.881885 42.937678 105.312156 43.414886 C 104.757036 43.892095 104.474606 44.58356 104.474606 45.499022 L 104.474606 47.427334 L 107.839414 47.427334 C 109.217476 47.427334 109.908941 46.72613 109.908941 45.313982 Z M 128.335039 42.377688 C 127.176103 40.298422 126.601505 38.608713 126.601505 37.298824 C 126.601505 35.988935 126.947238 35.146516 127.648443 34.771566 C 130.019877 33.739237 133.272687 33.223073 137.402003 33.223073 C 141.536188 33.223073 144.457874 34.192099 146.162191 36.125281 C 147.866507 38.053593 148.718666 40.907106 148.718666 44.690689 L 148.718666 54.5319 L 150.832018 54.5319 C 151.542962 54.5319 152.088343 54.950675 152.473032 55.783355 C 152.872329 56.611166 153.067108 57.755493 153.067108 59.201728 C 153.067108 60.652831 152.701897 62.089327 151.971476 63.511214 C 151.255663 64.918493 150.272028 65.624567 149.020573 65.624567 C 146.780614 65.624567 144.974038 65.020752 143.605716 63.813121 C 142.977553 63.316435 142.500345 62.71262 142.178959 62.001676 C 140.260386 64.416936 137.290005 65.624567 133.262948 65.624567 C 130.229265 65.624567 127.67279 64.543543 125.593524 62.381495 C 123.514257 60.224318 122.477059 57.667843 122.477059 54.71694 C 122.477059 47.953238 126.528463 44.568952 134.631271 44.568952 L 138.054513 44.568952 L 138.054513 43.945659 C 138.054513 42.859766 137.874342 42.1683 137.52374 41.861523 C 137.178007 41.549877 136.359935 41.389184 135.074394 41.389184 C 133.491814 41.389184 131.242116 41.720309 128.335039 42.377688 Z M 133.321382 53.850173 C 133.321382 54.760765 133.569725 55.457101 134.066412 55.934309 C 134.563099 56.411518 135.201 56.650122 135.970377 56.650122 C 136.739754 56.650122 137.436089 56.338476 138.054513 55.720052 L 138.054513 50.913879 L 136.320979 50.913879 C 134.319625 50.913879 133.321382 51.892644 133.321382 53.850173 Z M 170.947824 64.621454 C 170.947824 65.12788 169.199682 65.381093 165.713137 65.381093 C 161.564343 65.205792 159.489947 64.933101 159.489947 64.558151 L 159.489947 42.499425 L 156.310179 42.499425 C 155.482368 42.499425 155.063593 41.072668 155.063593 38.209416 C 155.063593 37.459517 155.136635 36.548925 155.27785 35.472771 C 155.428804 34.386878 155.735581 33.846366 156.188442 33.846366 L 159.489947 33.846366 L 159.489947 28.368205 C 159.489947 27.535525 161.247827 27.121619 164.75385 27.121619 C 168.264742 27.121619 170.017754 27.452744 170.017754 28.110123 L 170.017754 32.093354 L 170.081057 33.846366 L 175.374178 33.846366 C 176.085121 33.846366 176.435723 35.302339 176.435723 38.209416 C 176.435723 41.111624 176.085121 42.562728 175.374178 42.562728 L 170.947824 42.562728 Z M 170.947824 64.621454 " stroke="#6a2042" stroke-width="8.568409" stroke-opacity="1" stroke-miterlimit="4"/><g fill="#fb72bd" fill-opacity="1"><g transform="translate(28.390044, 47.14351)"><g><path d="M 17.546875 -0.796875 C 17.546875 -0.128906 15.894531 0.203125 12.59375 0.203125 C 9.289062 0.203125 7.640625 -0.128906 7.640625 -0.796875 L 7.640625 -25.890625 L 1.65625 -25.890625 C 1.082031 -25.890625 0.679688 -26.65625 0.453125 -28.1875 C 0.347656 -28.925781 0.296875 -29.675781 0.296875 -30.4375 C 0.296875 -31.207031 0.347656 -31.957031 0.453125 -32.6875 C 0.679688 -34.21875 1.082031 -34.984375 1.65625 -34.984375 L 23.390625 -34.984375 C 23.960938 -34.984375 24.363281 -34.21875 24.59375 -32.6875 C 24.695312 -31.957031 24.75 -31.207031 24.75 -30.4375 C 24.75 -29.675781 24.695312 -28.925781 24.59375 -28.1875 C 24.363281 -26.65625 23.960938 -25.890625 23.390625 -25.890625 L 17.546875 -25.890625 Z M 17.546875 -0.796875 "/></g></g></g><g fill="#fb72bd" fill-opacity="1"><g transform="translate(53.476985, 47.14351)"><g><path d="M 13.203125 -0.046875 C 13.203125 0.179688 11.679688 0.296875 8.640625 0.296875 C 5.609375 0.234375 4.09375 0.101562 4.09375 -0.09375 L 4.09375 -16.6875 L 2.75 -16.6875 C 2.21875 -16.6875 1.789062 -17.007812 1.46875 -17.65625 C 1.15625 -18.3125 1 -19.125 1 -20.09375 C 1 -23.6875 2.066406 -25.484375 4.203125 -25.484375 C 5.703125 -25.484375 6.953125 -25.023438 7.953125 -24.109375 C 8.953125 -23.203125 9.453125 -22.164062 9.453125 -21 C 10.148438 -22.363281 11.085938 -23.453125 12.265625 -24.265625 C 13.453125 -25.078125 14.660156 -25.484375 15.890625 -25.484375 C 17.828125 -25.484375 18.992188 -24.988281 19.390625 -24 C 19.492188 -23.726562 19.546875 -23.332031 19.546875 -22.8125 C 19.546875 -22.300781 19.382812 -21.378906 19.0625 -20.046875 C 18.75 -18.710938 18.425781 -17.742188 18.09375 -17.140625 C 17.757812 -16.546875 17.554688 -16.25 17.484375 -16.25 C 17.421875 -16.25 17.113281 -16.375 16.5625 -16.625 C 16.019531 -16.875 15.53125 -17 15.09375 -17 C 13.832031 -17 13.203125 -16 13.203125 -14 Z M 13.203125 -0.046875 "/></g></g></g><g fill="#fb72bd" fill-opacity="1"><g transform="translate(73.266681, 47.14351)"><g><path d="M 21.140625 -1.34375 C 19.046875 -0.113281 16.347656 0.5 13.046875 0.5 C 9.742188 0.5 6.957031 -0.625 4.6875 -2.875 C 2.425781 -5.125 1.296875 -8.238281 1.296875 -12.21875 C 1.296875 -16.195312 2.382812 -19.398438 4.5625 -21.828125 C 6.75 -24.265625 9.507812 -25.484375 12.84375 -25.484375 C 16.175781 -25.484375 18.75 -24.632812 20.5625 -22.9375 C 22.382812 -21.238281 23.296875 -19.175781 23.296875 -16.75 C 23.296875 -11.34375 20.195312 -8.640625 14 -8.640625 L 10.546875 -8.640625 C 10.546875 -7.640625 10.820312 -6.945312 11.375 -6.5625 C 11.925781 -6.1875 12.734375 -6 13.796875 -6 C 16.128906 -6 18.34375 -6.53125 20.4375 -7.59375 C 20.476562 -7.625 20.628906 -7.390625 20.890625 -6.890625 C 21.691406 -5.460938 22.09375 -4.253906 22.09375 -3.265625 C 22.09375 -2.285156 21.773438 -1.644531 21.140625 -1.34375 Z M 14.890625 -15.796875 C 14.890625 -17.191406 14.207031 -17.890625 12.84375 -17.890625 C 12.207031 -17.890625 11.664062 -17.695312 11.21875 -17.3125 C 10.769531 -16.9375 10.546875 -16.378906 10.546875 -15.640625 L 10.546875 -14.09375 L 13.25 -14.09375 C 14.34375 -14.09375 14.890625 -14.660156 14.890625 -15.796875 Z M 14.890625 -15.796875 "/></g></g></g><g fill="#fb72bd" fill-opacity="1"><g transform="translate(97.554038, 47.14351)"><g><path d="M 5.390625 -18.140625 C 4.460938 -19.804688 4 -21.164062 4 -22.21875 C 4 -23.269531 4.28125 -23.945312 4.84375 -24.25 C 6.75 -25.070312 9.359375 -25.484375 12.671875 -25.484375 C 15.984375 -25.484375 18.320312 -24.707031 19.6875 -23.15625 C 21.0625 -21.613281 21.75 -19.328125 21.75 -16.296875 L 21.75 -8.390625 L 23.4375 -8.390625 C 24.007812 -8.390625 24.453125 -8.054688 24.765625 -7.390625 C 25.078125 -6.722656 25.234375 -5.804688 25.234375 -4.640625 C 25.234375 -3.484375 24.941406 -2.335938 24.359375 -1.203125 C 23.785156 -0.0664062 23 0.5 22 0.5 C 20.195312 0.5 18.742188 0.015625 17.640625 -0.953125 C 17.140625 -1.347656 16.757812 -1.832031 16.5 -2.40625 C 14.96875 -0.46875 12.582031 0.5 9.34375 0.5 C 6.914062 0.5 4.867188 -0.363281 3.203125 -2.09375 C 1.535156 -3.832031 0.703125 -5.882812 0.703125 -8.25 C 0.703125 -13.675781 3.953125 -16.390625 10.453125 -16.390625 L 13.203125 -16.390625 L 13.203125 -16.890625 C 13.203125 -17.753906 13.054688 -18.3125 12.765625 -18.5625 C 12.484375 -18.8125 11.828125 -18.9375 10.796875 -18.9375 C 9.523438 -18.9375 7.722656 -18.671875 5.390625 -18.140625 Z M 9.390625 -8.953125 C 9.390625 -8.210938 9.585938 -7.648438 9.984375 -7.265625 C 10.390625 -6.890625 10.898438 -6.703125 11.515625 -6.703125 C 12.140625 -6.703125 12.703125 -6.953125 13.203125 -7.453125 L 13.203125 -11.296875 L 11.796875 -11.296875 C 10.191406 -11.296875 9.390625 -10.515625 9.390625 -8.953125 Z M 9.390625 -8.953125 "/></g></g></g><g fill="#fb72bd" fill-opacity="1"><g transform="translate(123.390585, 47.14351)"><g><path d="M 13.75 -0.296875 C 13.75 0.0976562 12.347656 0.296875 9.546875 0.296875 C 6.210938 0.160156 4.546875 -0.0507812 4.546875 -0.34375 L 4.546875 -18.046875 L 2 -18.046875 C 1.332031 -18.046875 1 -19.195312 1 -21.5 C 1 -22.09375 1.054688 -22.820312 1.171875 -23.6875 C 1.285156 -24.5625 1.53125 -25 1.90625 -25 L 4.546875 -25 L 4.546875 -29.390625 C 4.546875 -30.054688 5.953125 -30.390625 8.765625 -30.390625 C 11.585938 -30.390625 13 -30.125 13 -29.59375 L 13 -26.390625 L 13.046875 -25 L 17.296875 -25 C 17.859375 -25 18.140625 -23.832031 18.140625 -21.5 C 18.140625 -19.164062 17.859375 -18 17.296875 -18 L 13.75 -18 Z M 13.75 -0.296875 "/></g></g></g><path stroke-linecap="butt" transform="matrix(0.75, 0, 0, 0.75, 129.819765, 85.249999)" fill="none" stroke-linejoin="miter" d="M 62.422608 68.859381 C 62.422608 69.619798 60.177816 70.000006 55.688233 70.000006 C 51.203858 70.000006 48.964274 69.619798 48.964274 68.859381 L 48.964274 53.531255 L 39.625732 53.531255 L 39.625732 68.859381 C 39.625732 69.619798 37.375732 70.000006 32.886148 70.000006 C 28.406981 70.000006 26.162189 69.619798 26.162189 68.859381 L 26.162189 24.677087 C 26.162189 23.744795 28.406981 23.276045 32.886148 23.276045 C 37.375732 23.276045 39.625732 23.744795 39.625732 24.677087 L 39.625732 40.333338 L 48.964274 40.333338 L 48.964274 24.807295 C 48.964274 24.187503 50.073649 23.744795 52.287191 23.473962 C 53.443441 23.38542 54.578858 23.343753 55.688233 23.343753 L 59.089275 23.473962 C 61.313233 23.744795 62.422608 24.187503 62.422608 24.807295 Z M 72.94865 45.802088 C 71.709067 43.578129 71.094484 41.765629 71.094484 40.364588 C 71.094484 38.963546 71.469484 38.062504 72.214275 37.661462 C 74.755942 36.557296 78.229901 36.005212 82.646568 36.005212 C 87.073651 36.005212 90.198651 37.036462 92.021568 39.109379 C 93.844485 41.171879 94.755943 44.229171 94.755943 48.276046 L 94.755943 58.802089 L 97.01636 58.802089 C 97.776777 58.802089 98.365319 59.250005 98.776777 60.135422 C 99.198652 61.026047 99.412194 62.250005 99.412194 63.796881 C 99.412194 65.348964 99.021569 66.885422 98.240319 68.406256 C 97.469485 69.911464 96.417402 70.666673 95.07886 70.666673 C 92.683027 70.666673 90.750735 70.020839 89.287193 68.729173 C 88.615318 68.197922 88.104901 67.552089 87.755943 66.791672 C 85.709068 69.375006 82.526776 70.666673 78.219484 70.666673 C 74.974692 70.666673 72.240317 69.510423 70.016359 67.203131 C 67.7924 64.890631 66.683025 62.156255 66.683025 59.000005 C 66.683025 51.760422 71.016359 48.145838 79.688234 48.145838 L 83.349693 48.145838 L 83.349693 47.473963 C 83.349693 46.317713 83.156984 45.572921 82.776776 45.244796 C 82.406984 44.911463 81.537193 44.739588 80.156984 44.739588 C 78.464276 44.739588 76.063234 45.093754 72.94865 45.802088 Z M 78.287192 58.072922 C 78.287192 59.04688 78.552817 59.791672 79.084068 60.302089 C 79.615318 60.812505 80.292401 61.067714 81.115318 61.067714 C 81.943443 61.067714 82.688234 60.73438 83.349693 60.072922 L 83.349693 54.932297 L 81.490318 54.932297 C 79.354901 54.932297 78.287192 55.979172 78.287192 58.072922 Z M 100.620527 36.864587 C 100.479902 36.515629 102.552819 36.343754 106.839277 36.343754 C 111.136153 36.343754 113.281986 36.453129 113.281986 36.671879 L 118.08407 59.338547 L 121.683028 36.994796 C 121.813237 36.604171 124.011153 36.411462 128.27157 36.411462 C 132.589279 36.411462 134.677821 36.583337 134.537196 36.932296 L 125.14657 69.526048 C 124.83407 69.973964 122.188237 70.192714 117.20907 70.192714 C 112.235111 70.192714 109.573653 69.864589 109.214278 69.203131 Z M 163.146572 68.192714 C 160.349697 69.843756 156.74553 70.666673 152.33928 70.666673 C 147.948655 70.666673 144.235113 69.171881 141.209071 66.177089 C 138.183029 63.171881 136.667404 59.01563 136.667404 53.708338 C 136.667404 48.39063 138.120529 44.114588 141.031988 40.869796 C 143.948655 37.625004 147.625738 36.005212 152.063238 36.005212 C 156.511155 36.005212 159.948656 37.135421 162.365322 39.406254 C 164.797614 41.671879 166.011156 44.427088 166.011156 47.67188 C 166.011156 54.864588 161.875739 58.463547 153.610114 58.463547 L 149.005947 58.463547 C 149.005947 59.79688 149.37053 60.718755 150.094488 61.229172 C 150.834072 61.739589 151.912197 61.994797 153.334072 61.994797 C 156.448655 61.994797 159.406989 61.281255 162.203864 59.85938 C 162.245531 59.817714 162.448656 60.130214 162.808031 60.807297 C 163.870531 62.713547 164.401781 64.328131 164.401781 65.640631 C 164.401781 66.953131 163.985114 67.802089 163.146572 68.192714 Z M 154.813239 48.942713 C 154.813239 47.072921 153.90178 46.14063 152.078863 46.14063 C 151.235113 46.14063 150.505947 46.395838 149.90178 46.906255 C 149.302822 47.416671 149.005947 48.161463 149.005947 49.135421 L 149.005947 51.20313 L 152.599697 51.20313 C 154.078864 51.20313 154.813239 50.447921 154.813239 48.942713 Z M 184.266365 69.593756 C 184.266365 69.906256 182.662199 70.062506 179.464282 70.062506 C 175.026781 69.932298 172.808031 69.692714 172.808031 69.333339 L 172.808031 47.73438 L 171.068448 47.73438 C 169.917406 47.73438 169.162198 46.760421 168.802823 44.807296 C 168.719489 44.218754 168.672614 43.640629 168.672614 43.067713 C 168.672614 41.687504 168.938239 40.312504 169.469489 38.932296 C 170.271573 36.979171 171.516365 36.005212 173.198656 36.005212 C 174.891365 36.005212 176.401782 36.406254 177.740323 37.208337 C 179.073657 38.000004 179.964282 38.796879 180.40699 39.598962 C 183.209074 37.203129 186.537199 36.005212 190.401782 36.005212 C 194.271574 36.005212 197.073658 37.052087 198.797616 39.145837 C 200.531991 41.229171 201.401783 44.645838 201.401783 49.395838 L 201.401783 69.395839 C 201.401783 69.927089 199.500741 70.192714 195.703866 70.192714 C 191.906991 70.192714 190.011157 69.927089 190.011157 69.395839 L 190.011157 50.130213 C 190.011157 47.916671 189.229907 46.807296 187.667407 46.807296 C 187.21949 46.807296 186.599699 47.000005 185.792407 47.380213 C 185.00074 47.750005 184.490324 48.026046 184.266365 48.208338 Z M 184.266365 69.593756 " stroke="#6a2042" stroke-width="9.166671" stroke-opacity="1" stroke-miterlimit="4"/><g fill="#fdd599" fill-opacity="1"><g transform="translate(146.940858, 137.749996)"><g><path d="M 29.703125 -0.84375 C 29.703125 -0.28125 28.015625 0 24.640625 0 C 21.273438 0 19.59375 -0.28125 19.59375 -0.84375 L 19.59375 -12.34375 L 12.59375 -12.34375 L 12.59375 -0.84375 C 12.59375 -0.28125 10.910156 0 7.546875 0 C 4.179688 0 2.5 -0.28125 2.5 -0.84375 L 2.5 -34 C 2.5 -34.695312 4.179688 -35.046875 7.546875 -35.046875 C 10.910156 -35.046875 12.59375 -34.695312 12.59375 -34 L 12.59375 -22.25 L 19.59375 -22.25 L 19.59375 -33.90625 C 19.59375 -34.363281 20.425781 -34.695312 22.09375 -34.90625 C 22.96875 -34.96875 23.820312 -35 24.65625 -35 L 27.203125 -34.90625 C 28.867188 -34.695312 29.703125 -34.363281 29.703125 -33.90625 Z M 29.703125 -0.84375 "/></g></g></g><g fill="#fdd599" fill-opacity="1"><g transform="translate(179.135879, 137.749996)"><g><path d="M 5.40625 -18.15625 C 4.46875 -19.820312 4 -21.175781 4 -22.21875 C 4 -23.269531 4.28125 -23.945312 4.84375 -24.25 C 6.75 -25.082031 9.359375 -25.5 12.671875 -25.5 C 15.992188 -25.5 18.335938 -24.722656 19.703125 -23.171875 C 21.066406 -21.617188 21.75 -19.328125 21.75 -16.296875 L 21.75 -8.40625 L 23.453125 -8.40625 C 24.015625 -8.40625 24.453125 -8.070312 24.765625 -7.40625 C 25.085938 -6.738281 25.25 -5.820312 25.25 -4.65625 C 25.25 -3.488281 24.957031 -2.335938 24.375 -1.203125 C 23.789062 -0.0664062 23 0.5 22 0.5 C 20.195312 0.5 18.75 0.015625 17.65625 -0.953125 C 17.15625 -1.347656 16.769531 -1.832031 16.5 -2.40625 C 14.96875 -0.46875 12.582031 0.5 9.34375 0.5 C 6.914062 0.5 4.867188 -0.363281 3.203125 -2.09375 C 1.535156 -3.832031 0.703125 -5.882812 0.703125 -8.25 C 0.703125 -13.6875 3.953125 -16.40625 10.453125 -16.40625 L 13.203125 -16.40625 L 13.203125 -16.90625 C 13.203125 -17.769531 13.054688 -18.328125 12.765625 -18.578125 C 12.484375 -18.828125 11.828125 -18.953125 10.796875 -18.953125 C 9.535156 -18.953125 7.738281 -18.6875 5.40625 -18.15625 Z M 9.40625 -8.953125 C 9.40625 -8.210938 9.601562 -7.648438 10 -7.265625 C 10.394531 -6.890625 10.898438 -6.703125 11.515625 -6.703125 C 12.140625 -6.703125 12.703125 -6.953125 13.203125 -7.453125 L 13.203125 -11.296875 L 11.796875 -11.296875 C 10.203125 -11.296875 9.40625 -10.515625 9.40625 -8.953125 Z M 9.40625 -8.953125 "/></g></g></g><g fill="#fdd599" fill-opacity="1"><g transform="translate(204.981878, 137.749996)"><g><path d="M 0.296875 -24.84375 C 0.203125 -25.113281 1.757812 -25.25 4.96875 -25.25 C 8.1875 -25.25 9.796875 -25.164062 9.796875 -25 L 13.40625 -8 L 16.09375 -24.75 C 16.195312 -25.050781 17.847656 -25.203125 21.046875 -25.203125 C 24.285156 -25.203125 25.851562 -25.066406 25.75 -24.796875 L 18.703125 -0.34375 C 18.460938 -0.0078125 16.476562 0.15625 12.75 0.15625 C 9.019531 0.15625 7.019531 -0.09375 6.75 -0.59375 Z M 0.296875 -24.84375 "/></g></g></g><g fill="#fdd599" fill-opacity="1"><g transform="translate(231.027851, 137.749996)"><g><path d="M 21.15625 -1.34375 C 19.050781 -0.113281 16.347656 0.5 13.046875 0.5 C 9.742188 0.5 6.957031 -0.625 4.6875 -2.875 C 2.425781 -5.125 1.296875 -8.238281 1.296875 -12.21875 C 1.296875 -16.207031 2.382812 -19.414062 4.5625 -21.84375 C 6.75 -24.28125 9.507812 -25.5 12.84375 -25.5 C 16.175781 -25.5 18.75 -24.648438 20.5625 -22.953125 C 22.382812 -21.253906 23.296875 -19.1875 23.296875 -16.75 C 23.296875 -11.351562 20.195312 -8.65625 14 -8.65625 L 10.546875 -8.65625 C 10.546875 -7.65625 10.820312 -6.960938 11.375 -6.578125 C 11.925781 -6.191406 12.734375 -6 13.796875 -6 C 16.128906 -6 18.347656 -6.53125 20.453125 -7.59375 C 20.484375 -7.632812 20.632812 -7.40625 20.90625 -6.90625 C 21.695312 -5.46875 22.09375 -4.253906 22.09375 -3.265625 C 22.09375 -2.285156 21.78125 -1.644531 21.15625 -1.34375 Z M 14.90625 -15.796875 C 14.90625 -17.203125 14.21875 -17.90625 12.84375 -17.90625 C 12.21875 -17.90625 11.675781 -17.710938 11.21875 -17.328125 C 10.769531 -16.941406 10.546875 -16.382812 10.546875 -15.65625 L 10.546875 -14.09375 L 13.25 -14.09375 C 14.351562 -14.09375 14.90625 -14.660156 14.90625 -15.796875 Z M 14.90625 -15.796875 "/></g></g></g><g fill="#fdd599" fill-opacity="1"><g transform="translate(255.324091, 137.749996)"><g><path d="M 12.703125 -0.296875 C 12.703125 -0.0664062 11.5 0.046875 9.09375 0.046875 C 5.757812 -0.046875 4.09375 -0.226562 4.09375 -0.5 L 4.09375 -16.703125 L 2.796875 -16.703125 C 1.929688 -16.703125 1.363281 -17.4375 1.09375 -18.90625 C 1.03125 -19.332031 1 -19.765625 1 -20.203125 C 1 -21.234375 1.195312 -22.265625 1.59375 -23.296875 C 2.195312 -24.765625 3.128906 -25.5 4.390625 -25.5 C 5.660156 -25.5 6.796875 -25.195312 7.796875 -24.59375 C 8.796875 -24 9.460938 -23.398438 9.796875 -22.796875 C 11.898438 -24.597656 14.398438 -25.5 17.296875 -25.5 C 20.203125 -25.5 22.300781 -24.710938 23.59375 -23.140625 C 24.894531 -21.578125 25.546875 -19.015625 25.546875 -15.453125 L 25.546875 -0.453125 C 25.546875 -0.046875 24.117188 0.15625 21.265625 0.15625 C 18.421875 0.15625 17 -0.046875 17 -0.453125 L 17 -14.90625 C 17 -16.570312 16.414062 -17.40625 15.25 -17.40625 C 14.914062 -17.40625 14.445312 -17.257812 13.84375 -16.96875 C 13.25 -16.6875 12.867188 -16.476562 12.703125 -16.34375 Z M 12.703125 -0.296875 "/></g></g></g></svg>