<svg xmlns="http://www.w3.org/2000/svg" xmlns:xlink="http://www.w3.org/1999/xlink" width="500" zoomAndPan="magnify" viewBox="0 0 375 374.999991" height="500" preserveAspectRatio="xMidYMid meet" version="1.0"><defs><g/><clipPath id="4b82dc652e"><path d="M 51 129.722656 L 168 129.722656 L 168 245.222656 L 51 245.222656 Z M 51 129.722656 " clip-rule="nonzero"/></clipPath></defs><g clip-path="url(#4b82dc652e)"><path fill="#fffefe" d="M 128.273438 194.164062 Z M 110.445312 202.207031 C 100.160156 203.140625 95.726562 192.945312 98.117188 191.316406 C 99.738281 196.238281 104.378906 199.785156 109.84375 199.785156 C 115.308594 199.785156 119.949219 196.234375 121.570312 191.316406 C 121.449219 204.359375 121.8125 200.492188 116.347656 200.492188 L 113.175781 202.234375 Z M 109.84375 165.796875 C 121.816406 165.796875 131.523438 175.492188 131.523438 187.453125 C 131.523438 188.96875 131.367188 190.453125 131.070312 191.882812 C 131.070312 191.890625 131.066406 191.894531 131.066406 191.898438 C 130.945312 192.46875 130.804688 193.03125 130.640625 193.585938 C 130.285156 194.796875 129.171875 195.628906 127.90625 195.628906 C 127.898438 195.628906 127.894531 195.628906 127.886719 195.628906 C 127.847656 197.160156 127.621094 198.644531 127.21875 200.0625 C 127.117188 200.429688 126.9375 200.78125 126.691406 201.085938 C 122.71875 205.976562 116.648438 209.113281 109.84375 209.113281 C 103.039062 209.113281 96.96875 205.976562 92.996094 201.085938 C 92.746094 200.78125 92.570312 200.429688 92.464844 200.0625 L 92.46875 200.0625 C 92.027344 198.507812 91.796875 196.867188 91.796875 195.175781 C 91.796875 194.828125 91.804688 194.480469 91.824219 194.136719 C 91.691406 194.15625 91.554688 194.167969 91.414062 194.167969 C 90.0625 194.167969 88.898438 193.222656 88.621094 191.898438 C 88.320312 190.460938 88.164062 188.976562 88.164062 187.453125 C 88.164062 175.492188 97.871094 165.796875 109.84375 165.796875 Z M 108.960938 138.835938 C 102.269531 138.835938 95.582031 140.394531 89.109375 143.648438 C 82.289062 147.074219 79.003906 149.894531 78.207031 150.660156 C 77.664062 151.183594 77.121094 151.695312 76.59375 152.191406 C 76.070312 152.6875 75.554688 153.171875 75.054688 153.652344 C 74.03125 154.640625 73.078125 155.597656 72.210938 156.59375 C 68.984375 160.289062 65.867188 165.246094 63.597656 171.808594 C 60.148438 181.800781 60.164062 191.921875 63.320312 202.121094 C 63.328125 202.121094 63.335938 202.125 63.34375 202.125 C 63.351562 202.125 63.359375 202.125 63.371094 202.125 C 65.1875 202.28125 66.78125 202.894531 68.148438 203.738281 C 69.140625 203.644531 70.054688 203.585938 70.851562 203.585938 C 70.898438 203.585938 70.9375 203.585938 70.984375 203.585938 C 72.808594 203.601562 74.578125 203.773438 76.152344 204.21875 C 79.515625 205.167969 82.578125 206.445312 84.878906 208.257812 C 86.109375 208.117188 87.308594 208.042969 88.46875 208.042969 C 92.851562 208.042969 96.730469 209.101562 100.046875 211.597656 C 103.703125 214.351562 105.71875 218.558594 106.742188 223.28125 C 110.644531 224.613281 113.964844 226.617188 116.847656 229.058594 C 118.632812 230.566406 119.90625 232.695312 120.71875 234.933594 C 129.097656 232.746094 136.886719 228.183594 142.882812 223.351562 C 146.78125 220.214844 153.5625 210.664062 155.523438 203.457031 C 159.140625 190.164062 158.972656 181.441406 156.796875 174.792969 C 153.933594 166.023438 149.332031 157.75 141.609375 150.925781 C 137.40625 147.214844 132.574219 144.964844 127.671875 142.707031 L 127.484375 142.621094 C 126.355469 142.101562 122.960938 140.660156 116.863281 139.554688 C 114.226562 139.074219 111.589844 138.835938 108.960938 138.835938 Z M 115.132812 244.25 C 115.292969 244.453125 115.425781 244.574219 115.453125 244.574219 C 115.460938 244.574219 115.460938 244.5625 115.449219 244.539062 C 115.335938 244.449219 115.230469 244.351562 115.132812 244.25 Z M 109.738281 129.726562 C 109.800781 129.726562 109.867188 129.726562 109.929688 129.730469 L 117.414062 130.234375 C 117.515625 130.242188 117.617188 130.253906 117.714844 130.269531 C 133.183594 132.96875 145.464844 139.734375 154.441406 150.574219 C 162.976562 160.886719 167.308594 173.257812 167.75 187.59375 C 168.113281 199.410156 165.46875 210.964844 155.347656 223.554688 C 150.46875 229.621094 144.65625 234.308594 140.003906 237.1875 C 138.59375 238.058594 134.566406 240.234375 127.359375 242.785156 C 124.558594 243.777344 121.625 244.414062 118.710938 244.9375 C 118.28125 245.089844 117.820312 245.183594 117.34375 245.207031 C 117.273438 245.207031 117.203125 245.210938 117.132812 245.210938 C 114.648438 245.210938 112.582031 243.257812 112.46875 240.757812 C 112.363281 238.4375 111.363281 236.640625 110.8125 236.175781 C 108.21875 233.980469 105.242188 232.347656 101.574219 231.488281 C 99.679688 231.046875 98.257812 229.476562 98.007812 227.546875 C 97.371094 222.621094 95.917969 220.167969 94.425781 219.046875 C 93.074219 218.027344 91.28125 217.367188 88.46875 217.367188 C 87.269531 217.367188 85.882812 217.492188 84.273438 217.761719 C 84.015625 217.804688 83.753906 217.824219 83.496094 217.824219 C 82.558594 217.824219 81.667969 217.542969 80.925781 217.050781 C 80.40625 216.792969 79.929688 216.429688 79.527344 215.976562 C 78.960938 215.34375 77.316406 214.242188 73.609375 213.191406 C 73.128906 213.054688 72.265625 212.921875 70.90625 212.914062 C 70.890625 212.910156 70.867188 212.910156 70.851562 212.910156 C 70.199219 212.910156 69.109375 212.996094 67.417969 213.199219 C 67.234375 213.222656 67.050781 213.234375 66.863281 213.234375 C 65.746094 213.234375 64.660156 212.832031 63.808594 212.09375 C 63.269531 211.628906 62.910156 211.484375 62.703125 211.4375 L 62.703125 211.441406 C 62.589844 211.453125 62.390625 211.492188 62.160156 211.601562 C 61.523438 211.902344 60.84375 212.046875 60.175781 212.046875 C 58.429688 212.046875 56.746094 211.058594 55.949219 209.363281 C 55.832031 209.117188 55.738281 208.863281 55.667969 208.605469 L 55.671875 208.605469 C 53.714844 203.285156 52.363281 198.097656 51.871094 193.054688 C 50.367188 177.609375 54.921875 163.066406 65.621094 149.957031 C 68.851562 145.992188 72.746094 142.828125 76.441406 139.925781 C 77.703125 138.933594 81.765625 136.6875 88.523438 133.632812 C 93.609375 131.332031 100.757812 130.160156 109.597656 129.730469 C 109.644531 129.726562 109.691406 129.726562 109.738281 129.726562 Z M 109.738281 129.726562 " fill-opacity="1" fill-rule="nonzero"/></g><path fill="#fdd599" d="M 108.460938 179.394531 L 108.167969 179.398438 C 105.839844 179.445312 103.695312 180.015625 101.730469 181.109375 C 100.296875 181.992188 97.636719 184.214844 93.757812 187.769531 L 94 193.976562 C 95.070312 196.234375 97.546875 198.808594 101.425781 201.710938 C 104.429688 203.898438 107.082031 204.996094 109.386719 205 C 111.105469 204.921875 112.605469 204.605469 113.878906 204.054688 C 115.523438 203.433594 117.761719 202.054688 120.59375 199.914062 C 123.582031 197.15625 125.101562 194.394531 125.148438 191.636719 L 124.8125 189.3125 L 124.203125 187.464844 L 123.292969 185.792969 C 122.585938 184.742188 121.675781 183.808594 120.558594 182.992188 C 119.445312 182.179688 118.128906 181.484375 116.605469 180.910156 L 114.171875 180.136719 L 111.433594 179.546875 C 110.664062 179.457031 109.671875 179.40625 108.460938 179.394531 M 109.738281 134.917969 L 116.90625 135.398438 C 129.738281 137.429688 140.289062 142.933594 148.554688 151.910156 C 152.746094 156.453125 156.027344 161.53125 158.402344 167.144531 C 161.023438 173 162.40625 179.84375 162.554688 187.679688 C 162.488281 190.710938 162.222656 193.640625 161.753906 196.46875 C 160.230469 203.367188 159.074219 207.386719 158.285156 208.527344 C 156.136719 213.585938 153.179688 218.246094 149.417969 222.503906 C 145.652344 226.761719 141.425781 230.277344 136.734375 233.046875 C 130.667969 236.1875 126.890625 237.847656 125.398438 238.027344 C 122.703125 238.855469 119.894531 239.496094 116.96875 239.953125 C 117.117188 238.710938 116.410156 236.542969 114.847656 233.453125 C 112.457031 231.03125 108.730469 228.144531 103.671875 224.800781 C 103.074219 224.226562 101.378906 221.710938 98.585938 217.257812 C 97.941406 216.402344 96.914062 215.519531 95.507812 214.613281 C 94.4375 213.9375 90.699219 213.34375 84.292969 212.839844 L 78.691406 210.511719 C 77.234375 210.558594 72.035156 209.238281 63.101562 206.542969 C 62.242188 206.394531 61.34375 206.402344 60.40625 206.558594 C 58.308594 200.828125 57.144531 195.304688 56.910156 189.992188 C 56.882812 174.261719 61.691406 161.414062 71.34375 151.449219 C 76.808594 145.960938 82.070312 142.132812 87.128906 139.96875 C 89.832031 138.703125 92.660156 137.679688 95.613281 136.886719 C 103.214844 135.320312 107.921875 134.664062 109.738281 134.917969 Z M 109.738281 134.917969 " fill-opacity="1" fill-rule="nonzero"/><path fill="#fbb371" d="M 58.003906 201.753906 C 59.710938 199.992188 62.085938 198.886719 65.132812 198.445312 C 68.996094 197.710938 72.433594 197.703125 75.433594 198.425781 C 77.578125 199.003906 79.359375 199.765625 80.78125 200.714844 C 81.261719 200.890625 82.964844 202.410156 85.890625 205.269531 C 86.386719 205.636719 86.828125 205.925781 87.222656 206.132812 C 89.683594 207.234375 91.054688 207.933594 91.332031 208.230469 C 92.386719 208.929688 93.050781 209.617188 93.320312 210.285156 C 93.582031 211.355469 93.261719 211.925781 92.359375 211.988281 C 88.972656 212.402344 86.554688 212.445312 85.09375 212.117188 C 84.277344 211.96875 83.652344 211.804688 83.214844 211.625 C 80.921875 210.160156 79.046875 209.285156 77.582031 208.996094 C 77 208.703125 73.6875 208.289062 67.640625 207.757812 L 61.628906 206.550781 C 61.070312 206.542969 60.191406 205.859375 58.996094 204.496094 Z M 58.003906 201.753906 " fill-opacity="1" fill-rule="nonzero"/><path fill="#fbb371" d="M 97.503906 212.539062 C 100.753906 212.714844 103.882812 214.222656 106.882812 217.0625 C 107.765625 217.863281 109.058594 219.414062 110.761719 221.710938 L 114.621094 224.636719 C 115.417969 225.347656 116.117188 226.109375 116.71875 226.914062 C 117.949219 228.300781 118.714844 230.410156 119.015625 233.242188 C 119.132812 234.398438 119.175781 235.328125 119.148438 236.039062 C 119.132812 236.441406 118.992188 236.613281 118.734375 236.546875 C 117.183594 234.710938 115.871094 233.441406 114.804688 232.746094 C 114.96875 232.703125 113.253906 231.820312 109.664062 230.105469 C 108.796875 229.640625 107.917969 229.054688 107.027344 228.34375 C 105.464844 227.472656 102.433594 223.472656 97.933594 216.339844 Z M 97.503906 212.539062 " fill-opacity="1" fill-rule="nonzero"/><path fill="#fbb371" d="M 94.488281 188.085938 C 94.632812 185.878906 96.101562 183.945312 98.894531 182.289062 C 101.796875 180.433594 104.941406 179.257812 108.328125 178.761719 C 111.355469 178.410156 114.34375 178.847656 117.289062 180.074219 C 118.179688 180.417969 119.3125 181.054688 120.683594 181.976562 C 121.355469 182.398438 123.140625 183.765625 126.046875 186.078125 C 126.484375 186.398438 126.800781 186.578125 127 186.617188 C 127.855469 186.65625 128.054688 185.609375 127.585938 183.472656 C 126.554688 180.234375 124.105469 177.152344 120.234375 174.230469 C 117.574219 172.058594 114.46875 170.921875 110.917969 170.828125 C 108.046875 170.671875 104.519531 171.921875 100.339844 174.585938 C 96.570312 177.328125 94.109375 180.125 92.949219 182.976562 Z M 94.488281 188.085938 " fill-opacity="1" fill-rule="nonzero"/><path fill="#fbb371" d="M 149.011719 178.253906 C 151.128906 189.480469 148.828125 200.121094 142.109375 210.171875 C 135.980469 217.726562 126.65625 222.402344 114.140625 224.195312 C 116.714844 226.007812 118.179688 227.601562 118.535156 228.972656 C 119.117188 230.425781 119.253906 233.640625 118.949219 238.617188 C 118.992188 238.957031 119.136719 239.171875 119.378906 239.265625 C 121.074219 240.023438 127.925781 237.117188 139.933594 230.542969 C 144.792969 227.496094 148.734375 223.984375 151.765625 220.011719 C 159.878906 208.828125 163.019531 196.699219 161.183594 183.617188 Z M 149.011719 178.253906 " fill-opacity="1" fill-rule="nonzero"/><path fill="#fbb371" d="M 127.109375 192.894531 C 129.441406 193.816406 131.394531 193.949219 132.960938 193.292969 C 133.324219 193.089844 133.65625 192.820312 133.953125 192.484375 L 135.6875 190.121094 C 135.964844 189.789062 136.324219 189.472656 136.761719 189.167969 C 137.070312 188.972656 137.359375 188.890625 137.628906 188.925781 C 137.753906 188.902344 138.226562 189.066406 139.054688 189.425781 C 139.121094 189.441406 139.175781 189.429688 139.207031 189.382812 C 139.515625 188.5 139.660156 187.410156 139.640625 186.105469 C 139.503906 183.410156 138.488281 182.207031 136.585938 182.492188 C 136.046875 182.617188 135.527344 182.941406 135.023438 183.464844 C 134.828125 183.671875 134.660156 183.875 134.523438 184.078125 C 133.578125 185.554688 132.996094 186.414062 132.773438 186.652344 C 132.367188 187.160156 131.839844 187.648438 131.1875 188.113281 C 130.304688 188.828125 128.898438 189.207031 126.976562 189.25 Z M 127.109375 192.894531 " fill-opacity="1" fill-rule="nonzero"/><path fill="#fbb371" d="M 73.398438 189.054688 C 75.136719 190.335938 77.289062 190.957031 79.859375 190.921875 C 80.707031 190.867188 81.578125 190.648438 82.476562 190.261719 C 83.1875 189.964844 84.175781 189.390625 85.445312 188.542969 C 85.695312 188.398438 85.953125 188.28125 86.21875 188.183594 C 86.84375 187.980469 87.480469 187.921875 88.128906 188.011719 C 89.546875 188.097656 91.066406 189.316406 92.695312 191.675781 C 94.175781 185.277344 93.257812 181.425781 89.941406 180.113281 C 88.515625 179.816406 87.09375 180.144531 85.671875 181.105469 C 85.09375 181.496094 84.476562 182 83.8125 182.617188 C 80.679688 185.859375 78.929688 187.550781 78.566406 187.695312 Z M 73.398438 189.054688 " fill-opacity="1" fill-rule="nonzero"/><path fill="#fbb371" d="M 56.308594 186.699219 C 57.257812 184.253906 58.578125 183.242188 60.261719 183.660156 C 61.78125 183.988281 63.246094 184.589844 64.660156 185.46875 C 65.757812 186.058594 67.4375 187.4375 69.707031 189.613281 C 69.84375 189.683594 69.921875 189.640625 69.941406 189.480469 C 68.945312 185.316406 66.933594 181.921875 63.910156 179.296875 C 62.6875 178.429688 61.3125 178.054688 59.78125 178.175781 C 58.394531 178.28125 57.433594 178.882812 56.898438 179.980469 Z M 56.308594 186.699219 " fill-opacity="1" fill-rule="nonzero"/><path fill="#fbb371" d="M 112.320312 207.957031 L 112.511719 207.964844 C 112.636719 207.96875 112.757812 207.984375 112.871094 208.007812 C 113.152344 208.074219 113.3125 208.121094 113.355469 208.152344 C 113.640625 208.285156 113.902344 208.476562 114.144531 208.730469 C 114.367188 208.96875 114.523438 209.234375 114.613281 209.523438 C 114.703125 209.902344 114.738281 210.136719 114.714844 210.226562 L 114.648438 210.179688 C 114.644531 210.371094 114.542969 210.640625 114.351562 210.988281 C 114.074219 211.28125 113.898438 211.445312 113.824219 211.476562 C 113.566406 211.660156 113.273438 211.792969 112.941406 211.882812 C 112.515625 211.976562 112.253906 212.015625 112.148438 211.996094 C 112.085938 212.007812 111.894531 211.988281 111.574219 211.933594 C 111.445312 211.902344 111.316406 211.863281 111.1875 211.816406 C 110.929688 211.722656 110.667969 211.589844 110.40625 211.417969 C 110.109375 211.191406 109.898438 210.9375 109.769531 210.65625 C 109.707031 210.515625 109.667969 210.367188 109.648438 210.210938 L 109.632812 209.972656 L 109.652344 209.726562 C 109.679688 209.527344 109.71875 209.378906 109.769531 209.277344 C 109.875 209.03125 110.074219 208.804688 110.355469 208.601562 C 110.636719 208.394531 111.007812 208.210938 111.464844 208.046875 C 111.707031 207.992188 111.992188 207.964844 112.320312 207.957031 Z M 112.320312 207.957031 " fill-opacity="1" fill-rule="nonzero"/><path fill="#fbb371" d="M 117.429688 211.773438 L 117.441406 211.773438 C 117.628906 211.785156 117.824219 211.835938 118.019531 211.921875 C 118.230469 212.035156 118.347656 212.113281 118.367188 212.152344 C 118.515625 212.316406 118.597656 212.425781 118.605469 212.472656 C 118.675781 212.535156 118.738281 212.597656 118.796875 212.664062 C 118.851562 212.730469 118.898438 212.800781 118.941406 212.875 C 118.984375 212.945312 119.015625 213.019531 119.042969 213.097656 C 119.101562 213.296875 119.125 213.421875 119.117188 213.46875 C 119.117188 213.898438 118.949219 214.289062 118.613281 214.644531 C 118.472656 214.796875 118.242188 214.957031 117.925781 215.121094 C 117.835938 215.160156 117.753906 215.195312 117.671875 215.21875 C 117.46875 215.265625 117.351562 215.285156 117.316406 215.273438 C 117.257812 215.277344 117.136719 215.261719 116.960938 215.226562 L 116.816406 215.175781 C 116.628906 215.097656 116.472656 214.960938 116.347656 214.773438 C 116.21875 214.585938 116.125 214.34375 116.058594 214.050781 C 116.03125 213.914062 116.011719 213.777344 116.007812 213.644531 L 116.011719 213.445312 C 116.035156 213.042969 116.179688 212.679688 116.441406 212.355469 C 116.769531 211.96875 117.097656 211.773438 117.429688 211.773438 Z M 117.429688 211.773438 " fill-opacity="1" fill-rule="nonzero"/><path fill="#fbb371" d="M 118.027344 208.890625 C 118.117188 208.628906 118.242188 208.488281 118.402344 208.46875 C 118.65625 208.410156 118.984375 208.445312 119.386719 208.574219 C 119.644531 208.671875 119.851562 208.824219 120.003906 209.027344 C 120.160156 209.261719 120.21875 209.476562 120.175781 209.667969 C 120.121094 209.859375 119.949219 210.023438 119.65625 210.160156 C 119.351562 210.289062 119.085938 210.316406 118.863281 210.25 C 118.289062 210.058594 117.992188 209.679688 117.976562 209.101562 Z M 118.027344 208.890625 " fill-opacity="1" fill-rule="nonzero"/><path fill="#fb72bd" d="M 108.960938 135.871094 C 111.773438 135.871094 114.585938 136.128906 117.390625 136.636719 C 123.757812 137.792969 127.394531 139.316406 128.726562 139.929688 L 129.101562 140.101562 C 133.902344 142.316406 139.058594 144.714844 143.574219 148.707031 C 151.78125 155.957031 156.628906 164.726562 159.617188 173.875 C 160.605469 176.890625 161.199219 180.234375 161.300781 184.066406 C 161.667969 183.574219 162.25 183.285156 162.851562 183.285156 C 163.101562 183.285156 163.351562 183.335938 163.59375 183.4375 L 163.597656 183.4375 C 164.578125 183.847656 165.042969 184.976562 164.632812 185.957031 C 164.5625 186.125 164.488281 186.289062 164.417969 186.449219 C 164.414062 186.453125 164.414062 186.453125 164.414062 186.457031 C 163.527344 188.382812 162.363281 189.714844 161.007812 190.375 C 160.992188 190.382812 160.976562 190.386719 160.957031 190.386719 C 160.9375 190.386719 160.917969 190.382812 160.898438 190.371094 C 160.863281 190.347656 160.84375 190.3125 160.84375 190.273438 L 160.84375 190.261719 C 161.023438 188.40625 161.101562 186.652344 161.089844 184.992188 C 160.289062 186.714844 159.570312 187.226562 158.890625 187.226562 C 158.570312 187.226562 158.277344 187.109375 158.019531 186.992188 C 158.015625 186.992188 158.015625 186.992188 158.015625 186.992188 C 156.933594 186.492188 156.234375 185.851562 155.660156 185.269531 L 155.664062 185.269531 C 155.65625 185.265625 155.652344 185.261719 155.648438 185.257812 C 155.453125 185.023438 154.765625 183.972656 153.582031 181.8125 C 153.222656 181.15625 152.796875 180.710938 152.433594 180.40625 C 152.335938 180.324219 152.234375 180.246094 152.125 180.175781 C 151.589844 179.816406 150.996094 179.632812 150.382812 179.632812 C 150.003906 179.632812 149.613281 179.703125 149.230469 179.851562 C 149.226562 179.851562 149.222656 179.855469 149.222656 179.855469 C 148.898438 179.980469 148.601562 180.152344 148.328125 180.347656 C 148.015625 180.574219 147.785156 180.851562 147.617188 181.105469 C 147.023438 182.015625 146.726562 183.425781 146.53125 184.921875 C 146.519531 184.988281 146.515625 185.050781 146.515625 185.117188 L 146.355469 195.535156 C 146.355469 195.539062 146.355469 195.546875 146.355469 195.554688 C 146.261719 196.878906 146.066406 197.828125 145.90625 198.4375 C 145.554688 199.765625 144.910156 200.386719 143.667969 200.386719 C 143.539062 200.386719 143.40625 200.378906 143.265625 200.367188 C 143.265625 200.367188 143.261719 200.367188 143.257812 200.367188 L 143.261719 200.367188 C 141.847656 200.234375 141.222656 199.558594 140.957031 197.933594 C 140.746094 196.621094 140.832031 192.667969 141.488281 185.65625 L 141.488281 185.644531 C 141.644531 183.96875 141.050781 182.582031 140.109375 181.640625 C 140.109375 181.640625 140.105469 181.640625 140.105469 181.640625 L 140.109375 181.640625 C 139.957031 181.488281 139.796875 181.375 139.679688 181.296875 L 139.675781 181.296875 C 139.273438 181.03125 138.679688 180.761719 138.003906 180.609375 C 137.648438 180.527344 137.269531 180.484375 136.878906 180.484375 C 135.066406 180.484375 133.03125 181.488281 132.292969 184.726562 C 131.996094 186.042969 131.25 186.699219 130.59375 186.9375 C 130.589844 186.9375 130.585938 186.9375 130.582031 186.9375 L 130.582031 186.941406 C 130.367188 187.015625 130.148438 187.058594 129.9375 187.058594 C 129.339844 187.058594 128.816406 186.738281 128.523438 186.113281 C 128.511719 186.097656 128.507812 186.078125 128.503906 186.058594 C 127.792969 176.386719 119.710938 168.757812 109.84375 168.757812 C 102.195312 168.757812 95.621094 173.339844 92.71875 179.90625 C 92.699219 179.949219 92.65625 179.976562 92.613281 179.976562 C 92.605469 179.976562 92.597656 179.972656 92.589844 179.972656 C 92.558594 179.964844 92.53125 179.945312 92.515625 179.917969 C 92.0625 179.148438 91.648438 178.597656 91.273438 178.257812 C 91.253906 178.242188 91.234375 178.226562 91.214844 178.210938 L 91.214844 178.207031 C 90.316406 177.425781 89.34375 177.035156 88.292969 177.035156 C 87.75 177.035156 87.179688 177.140625 86.589844 177.351562 C 85.324219 177.804688 84.238281 178.582031 83.324219 179.683594 C 83.320312 179.691406 83.3125 179.699219 83.304688 179.707031 C 82.597656 180.398438 81.265625 182.238281 79.300781 185.21875 C 79.292969 185.226562 79.289062 185.234375 79.28125 185.242188 C 78.824219 185.824219 78.320312 186.339844 77.777344 186.792969 C 77.773438 186.796875 77.769531 186.800781 77.761719 186.804688 C 76.285156 187.976562 75.113281 188.558594 74.238281 188.558594 C 74.097656 188.558594 73.964844 188.546875 73.839844 188.515625 C 73.800781 188.507812 73.761719 188.5 73.722656 188.492188 C 72.75 188.332031 71.839844 187.730469 70.996094 186.679688 C 70.914062 186.578125 70.820312 186.484375 70.71875 186.40625 C 70.707031 186.398438 70.695312 186.386719 70.683594 186.375 C 70.148438 185.679688 68.820312 183.179688 66.699219 178.882812 C 66.6875 178.867188 66.679688 178.851562 66.671875 178.835938 C 66.234375 178.019531 65.484375 177.261719 64.421875 176.550781 L 64.417969 176.550781 C 63.101562 175.675781 61.761719 175.238281 60.390625 175.238281 C 60.167969 175.238281 59.945312 175.25 59.722656 175.273438 C 59.695312 175.273438 59.667969 175.277344 59.640625 175.28125 C 59.632812 175.285156 59.628906 175.285156 59.621094 175.285156 C 59.597656 175.285156 59.570312 175.273438 59.550781 175.257812 C 59.523438 175.234375 59.507812 175.203125 59.507812 175.171875 L 59.511719 175.144531 C 59.875 173.707031 60.300781 172.273438 60.792969 170.84375 C 63.1875 163.914062 66.5 158.621094 69.976562 154.644531 C 71.390625 153.023438 72.964844 151.539062 74.558594 150.039062 C 75.085938 149.539062 75.621094 149.035156 76.148438 148.527344 C 77.183594 147.53125 80.722656 144.539062 87.777344 141 C 94.652344 137.546875 101.792969 135.871094 108.960938 135.871094 Z M 108.960938 135.871094 " fill-opacity="1" fill-rule="nonzero"/><path fill="#d24f95" d="M 128.40625 138.054688 C 133.679688 140.578125 139.441406 149.460938 145.597656 164.730469 C 149.988281 175.625 148.875 182.839844 148.875 182.839844 C 151.710938 182.070312 151.957031 182.535156 151.957031 182.535156 C 154.882812 188.113281 159.285156 190.964844 159.609375 189.609375 C 161.9375 186.6875 163.109375 187.472656 162.054688 182.21875 C 160.074219 172.382812 157.367188 164.207031 153.960938 157.773438 C 150.832031 151.875 146.015625 146.988281 139.789062 142.96875 Z M 128.40625 138.054688 " fill-opacity="1" fill-rule="nonzero"/><path fill="#6a2042" d="M 109.738281 132.574219 L 117.222656 133.078125 C 132.109375 135.675781 143.753906 142.136719 152.242188 152.390625 C 160.328125 162.160156 164.472656 173.902344 164.898438 187.679688 C 165.246094 198.886719 162.777344 209.761719 153.125 221.769531 C 148.472656 227.554688 142.910156 232.035156 138.5 234.761719 C 137.296875 235.507812 133.460938 237.601562 126.40625 240.101562 C 123.527344 241.121094 120.429688 241.75 117.21875 242.304688 C 117.316406 242.253906 116.707031 241.710938 115.390625 240.679688 L 115.15625 238.875 C 126.429688 237.589844 137.019531 231.734375 144.675781 225.570312 C 149.027344 222.066406 156.152344 212.007812 158.277344 204.207031 C 161.976562 190.601562 161.917969 181.273438 159.511719 173.910156 C 156.523438 164.777344 151.6875 156.023438 143.5 148.789062 C 138.878906 144.707031 133.589844 142.296875 128.679688 140.03125 C 127.351562 139.421875 123.730469 137.902344 117.371094 136.75 C 107.4375 134.945312 97.378906 136.304688 87.828125 141.101562 C 80.785156 144.636719 77.253906 147.621094 76.226562 148.609375 C 74.101562 150.652344 71.941406 152.566406 70.0625 154.71875 C 66.597656 158.6875 63.289062 163.964844 60.902344 170.878906 C 56.613281 183.292969 57.394531 195.890625 62.574219 208.449219 C 61.902344 208.402344 61.078125 208.582031 60.105469 208.984375 C 59.257812 208.589844 58.714844 208.261719 58.484375 207.992188 C 56.511719 202.691406 55.183594 197.628906 54.710938 192.777344 C 53.285156 178.136719 57.570312 164.332031 67.832031 151.757812 C 70.84375 148.0625 74.511719 145.070312 78.203125 142.167969 C 79.152344 141.421875 82.894531 139.304688 89.699219 136.226562 C 94.28125 134.15625 100.992188 133.003906 109.738281 132.574219 Z M 109.738281 132.574219 " fill-opacity="1" fill-rule="nonzero"/><path fill="#6a2042" d="M 128.671875 187.453125 C 128.671875 177.066406 120.242188 168.644531 109.84375 168.644531 C 99.445312 168.644531 91.015625 177.066406 91.015625 187.453125 C 91.015625 197.839844 99.445312 206.261719 109.84375 206.261719 C 120.242188 206.261719 128.671875 197.839844 128.671875 187.453125 M 125.039062 187.453125 C 125.039062 195.835938 118.234375 202.632812 109.84375 202.632812 C 101.449219 202.632812 94.648438 195.835938 94.648438 187.453125 C 94.648438 179.070312 101.449219 172.273438 109.84375 172.273438 C 118.234375 172.273438 125.039062 179.070312 125.039062 187.453125 Z M 125.039062 187.453125 " fill-opacity="1" fill-rule="nonzero"/><path fill="#6a2042" d="M 109.84375 176.367188 C 115.75 176.367188 121.023438 179.085938 124.472656 183.339844 C 126.324219 185.617188 127.652344 188.335938 128.273438 191.316406 C 127.652344 194.292969 126.324219 197.015625 124.472656 199.292969 C 124.84375 197.984375 125.039062 196.601562 125.039062 195.175781 C 125.039062 193.84375 124.867188 192.546875 124.542969 191.316406 C 122.832031 184.800781 116.898438 179.996094 109.84375 179.996094 C 102.789062 179.996094 96.855469 184.800781 95.144531 191.316406 C 94.820312 192.550781 94.648438 193.84375 94.648438 195.175781 C 94.648438 196.601562 94.84375 197.984375 95.214844 199.292969 C 93.363281 197.015625 92.035156 194.296875 91.414062 191.320312 C 92.035156 188.339844 93.363281 185.621094 95.210938 183.339844 C 98.664062 179.085938 103.9375 176.367188 109.84375 176.367188 Z M 109.84375 176.367188 " fill-opacity="1" fill-rule="nonzero"/><path fill="#6a2042" d="M 58.375 180.605469 C 59.132812 179.546875 59.839844 178.90625 60.492188 178.675781 L 60.082031 178.769531 C 60.847656 178.691406 61.644531 178.925781 62.472656 179.476562 C 63.046875 179.859375 63.410156 180.199219 63.570312 180.492188 L 63.542969 180.441406 C 65.894531 185.203125 67.414062 187.976562 68.097656 188.765625 C 68.414062 189.128906 68.765625 189.371094 69.15625 189.484375 L 68.253906 188.882812 C 69.660156 190.628906 71.292969 191.65625 73.152344 191.960938 L 73.027344 191.933594 C 75.050781 192.417969 77.375 191.609375 80 189.515625 C 80.011719 189.507812 80.019531 189.5 80.03125 189.492188 C 80.792969 188.855469 81.492188 188.132812 82.125 187.316406 C 82.152344 187.28125 82.179688 187.242188 82.207031 187.203125 C 84.128906 184.277344 85.316406 182.617188 85.757812 182.222656 C 85.839844 182.152344 85.917969 182.070312 85.988281 181.984375 C 86.5 181.34375 87.097656 180.90625 87.773438 180.660156 C 88.203125 180.507812 88.578125 180.574219 88.902344 180.855469 C 88.910156 180.863281 88.917969 180.871094 88.929688 180.878906 C 88.925781 180.878906 88.925781 180.878906 88.925781 180.878906 C 89.335938 181.242188 90 182.503906 90.921875 184.65625 C 91.316406 185.578125 92.382812 186.007812 93.304688 185.613281 C 94.226562 185.21875 94.65625 184.152344 94.261719 183.234375 C 93.128906 180.585938 92.15625 178.898438 91.347656 178.175781 C 91.320312 178.148438 91.289062 178.125 91.261719 178.097656 L 91.289062 178.125 C 89.894531 176.90625 88.316406 176.617188 86.550781 177.246094 C 85.226562 177.71875 84.09375 178.542969 83.152344 179.714844 L 83.386719 179.476562 C 83.371094 179.488281 83.355469 179.503906 83.339844 179.515625 C 82.660156 180.125 81.269531 182.023438 79.171875 185.207031 L 79.253906 185.09375 C 78.78125 185.699219 78.265625 186.238281 77.707031 186.703125 L 77.734375 186.679688 C 76.03125 188.039062 74.742188 188.613281 73.867188 188.40625 C 73.824219 188.394531 73.78125 188.386719 73.738281 188.378906 C 72.796875 188.226562 71.910156 187.636719 71.085938 186.609375 C 70.855469 186.320312 70.539062 186.109375 70.1875 186.003906 C 70.476562 186.089844 70.695312 186.21875 70.84375 186.390625 C 70.363281 185.835938 69.015625 183.316406 66.800781 178.835938 C 66.789062 178.816406 66.78125 178.796875 66.773438 178.78125 C 66.328125 177.949219 65.5625 177.175781 64.484375 176.457031 C 62.929688 175.425781 61.339844 174.992188 59.710938 175.160156 C 59.570312 175.175781 59.429688 175.203125 59.296875 175.25 C 57.917969 175.730469 56.628906 176.8125 55.421875 178.496094 C 54.839844 179.3125 55.027344 180.445312 55.84375 181.027344 C 56.660156 181.609375 57.792969 181.421875 58.375 180.605469 Z M 58.375 180.605469 " fill-opacity="1" fill-rule="nonzero"/><path fill="#6a2042" d="M 125.140625 187.128906 C 126.234375 190.136719 129.261719 191.160156 131.792969 190.238281 C 133.664062 189.558594 135.183594 187.890625 135.722656 185.503906 C 136.121094 183.765625 136.796875 183.941406 137.222656 184.035156 C 137.503906 184.101562 137.707031 184.207031 137.75 184.238281 C 137.765625 184.246094 137.707031 184.210938 137.617188 184.125 L 137.617188 184.121094 C 137.839844 184.34375 138.042969 184.707031 137.984375 185.320312 C 137.339844 192.210938 137.1875 196.652344 137.484375 198.492188 C 137.929688 201.246094 139.511719 203.554688 142.945312 203.867188 C 146.363281 204.179688 148.539062 202.253906 149.308594 199.332031 C 149.527344 198.507812 149.761719 197.316406 149.871094 195.71875 C 149.871094 195.6875 149.871094 195.65625 149.871094 195.625 L 150.035156 185.171875 L 150.019531 185.378906 C 150.21875 183.839844 150.457031 183.1875 150.558594 183.035156 C 150.5625 183.027344 150.515625 183.105469 150.390625 183.195312 C 150.460938 183.144531 150.496094 183.128906 150.496094 183.128906 C 150.410156 183.164062 150.238281 183.140625 150.164062 183.09375 C 150.164062 183.09375 150.167969 183.097656 150.175781 183.105469 C 150.261719 183.175781 150.382812 183.292969 150.492188 183.5 C 151.644531 185.601562 152.511719 187.003906 152.996094 187.5625 C 153.03125 187.605469 153.074219 187.652344 153.125 187.703125 C 153.820312 188.414062 154.878906 189.417969 156.550781 190.1875 C 159.707031 191.632812 162.550781 190.238281 164.3125 186.402344 C 164.386719 186.242188 164.457031 186.082031 164.527344 185.914062 C 164.914062 184.988281 164.476562 183.925781 163.550781 183.542969 C 162.625 183.15625 161.5625 183.589844 161.175781 184.515625 C 161.121094 184.644531 161.066406 184.769531 161.011719 184.886719 C 159.816406 187.496094 158.859375 187.253906 158.066406 186.886719 C 156.984375 186.394531 156.292969 185.75 155.71875 185.164062 C 155.734375 185.179688 155.742188 185.191406 155.742188 185.1875 C 155.558594 184.976562 154.875 183.9375 153.679688 181.757812 C 153.3125 181.085938 152.878906 180.628906 152.507812 180.320312 C 152.40625 180.234375 152.300781 180.15625 152.1875 180.082031 C 151.292969 179.480469 150.222656 179.347656 149.1875 179.746094 C 148.851562 179.875 148.542969 180.054688 148.261719 180.257812 C 147.933594 180.492188 147.695312 180.78125 147.523438 181.042969 C 146.910156 181.976562 146.613281 183.414062 146.417969 184.90625 C 146.410156 184.976562 146.402344 185.046875 146.402344 185.117188 L 146.242188 195.570312 L 146.246094 195.476562 C 146.15625 196.832031 145.957031 197.792969 145.796875 198.410156 C 145.421875 199.835938 144.714844 200.386719 143.277344 200.253906 C 141.921875 200.128906 141.328125 199.503906 141.070312 197.914062 C 140.863281 196.621094 140.945312 192.679688 141.601562 185.65625 C 141.761719 183.945312 141.152344 182.523438 140.1875 181.558594 C 140.03125 181.402344 139.863281 181.28125 139.742188 181.203125 C 139.324219 180.929688 138.71875 180.65625 138.027344 180.5 C 135.957031 180.027344 133.089844 180.710938 132.183594 184.703125 C 131.890625 185.980469 131.171875 186.605469 130.554688 186.828125 C 129.710938 187.136719 128.894531 186.824219 128.554688 185.890625 C 128.210938 184.949219 127.167969 184.460938 126.226562 184.804688 C 125.285156 185.144531 124.796875 186.1875 125.140625 187.128906 Z M 125.140625 187.128906 " fill-opacity="1" fill-rule="nonzero"/><path fill="#6a2042" d="M 95.605469 213.683594 C 99.621094 213.921875 102.378906 214.574219 103.878906 215.644531 C 103.925781 215.679688 103.976562 215.710938 104.027344 215.738281 C 105.863281 216.789062 107.453125 218.804688 108.792969 221.785156 C 108.996094 222.230469 109.367188 222.578125 109.824219 222.746094 C 111.273438 223.273438 112.71875 224.347656 114.171875 225.964844 C 114.183594 225.980469 114.195312 225.992188 114.207031 226.007812 C 116.804688 228.726562 117.894531 232.9375 117.472656 238.632812 C 117.402344 239.632812 118.152344 240.503906 119.152344 240.574219 C 120.152344 240.648438 121.023438 239.898438 121.097656 238.898438 C 121.59375 232.132812 120.175781 227 116.835938 223.503906 L 116.875 223.542969 C 115.023438 221.476562 113.085938 220.074219 111.074219 219.339844 L 112.105469 220.296875 C 110.441406 216.601562 108.351562 214.03125 105.835938 212.59375 L 105.984375 212.6875 C 103.917969 211.21875 100.53125 210.34375 95.820312 210.0625 C 94.820312 210.003906 93.960938 210.765625 93.902344 211.765625 C 93.839844 212.765625 94.605469 213.625 95.605469 213.683594 Z M 95.605469 213.683594 " fill-opacity="1" fill-rule="nonzero"/><path fill="#6a2042" d="M 83.800781 214.949219 C 89.644531 213.96875 93.390625 214.699219 96.144531 216.769531 C 98.527344 218.566406 100.160156 221.9375 100.835938 227.179688 C 100.933594 227.929688 101.488281 228.542969 102.222656 228.714844 C 106.375 229.6875 109.75 231.542969 112.65625 234 C 114 235.136719 115.191406 237.804688 115.316406 240.628906 C 115.363281 241.628906 116.210938 242.402344 117.214844 242.359375 C 118.214844 242.3125 118.992188 241.464844 118.945312 240.464844 C 118.789062 237 117.363281 233.226562 115.003906 231.230469 C 111.703125 228.441406 107.816406 226.296875 103.054688 225.183594 L 104.4375 226.714844 C 103.707031 221.066406 101.855469 216.527344 98.328125 213.875 C 94.464844 210.964844 89.554688 210.304688 83.199219 211.371094 C 82.210938 211.539062 81.542969 212.472656 81.707031 213.460938 C 81.875 214.449219 82.8125 215.117188 83.800781 214.949219 Z M 83.800781 214.949219 " fill-opacity="1" fill-rule="nonzero"/><path fill="#6a2042" d="M 60.328125 200.90625 C 60.277344 201.117188 60.199219 201.269531 60.089844 201.367188 C 60.378906 201.109375 61.191406 200.796875 62.527344 200.421875 L 62.542969 200.417969 C 63.261719 200.210938 64.4375 200.335938 66.070312 200.792969 C 66.53125 200.921875 67.023438 200.863281 67.441406 200.632812 C 68.484375 200.054688 69.699219 199.695312 71.09375 199.550781 L 70.976562 199.558594 C 73.964844 199.4375 76.265625 199.734375 77.878906 200.453125 L 77.804688 200.417969 C 82.304688 202.664062 84.082031 206.226562 83.144531 211.097656 C 82.953125 212.078125 83.597656 213.03125 84.582031 213.21875 C 85.566406 213.410156 86.519531 212.765625 86.710938 211.78125 C 87.996094 205.109375 85.570312 200.242188 79.429688 197.171875 C 79.40625 197.160156 79.378906 197.148438 79.355469 197.136719 C 77.222656 196.191406 74.382812 195.789062 70.828125 195.933594 C 70.792969 195.933594 70.753906 195.9375 70.714844 195.941406 C 68.832031 196.136719 67.152344 196.644531 65.679688 197.460938 L 67.050781 197.300781 C 64.757812 196.65625 62.917969 196.535156 61.535156 196.933594 L 61.550781 196.929688 C 59.675781 197.453125 58.386719 198.027344 57.679688 198.652344 C 57.222656 199.058594 56.929688 199.519531 56.800781 200.039062 C 56.5625 201.015625 57.160156 201.996094 58.132812 202.234375 C 59.105469 202.472656 60.089844 201.878906 60.328125 200.90625 Z M 60.328125 200.90625 " fill-opacity="1" fill-rule="nonzero"/><path fill="#6a2042" d="M 85.167969 207.34375 C 86.867188 207.347656 88.578125 207.972656 90.292969 209.21875 C 90.308594 209.230469 90.324219 209.242188 90.339844 209.253906 C 91.523438 210.058594 92.445312 211.371094 93.097656 213.191406 C 93.4375 214.132812 94.476562 214.625 95.421875 214.285156 C 96.363281 213.945312 96.855469 212.90625 96.515625 211.964844 C 95.597656 209.40625 94.21875 207.5 92.382812 206.253906 L 92.429688 206.285156 C 90.078125 204.578125 87.660156 203.71875 85.171875 203.714844 C 84.171875 203.714844 83.355469 204.523438 83.355469 205.527344 C 83.351562 206.527344 84.164062 207.339844 85.167969 207.34375 Z M 85.167969 207.34375 " fill-opacity="1" fill-rule="nonzero"/><path fill="#6a2042" d="M 60.945312 209.023438 C 62.0625 208.496094 62.980469 208.59375 62.816406 208.582031 C 63.753906 208.65625 64.695312 209.089844 65.675781 209.9375 C 66.0625 210.273438 66.574219 210.429688 67.082031 210.371094 C 68.835938 210.160156 70.09375 210.054688 70.929688 210.0625 C 72.429688 210.074219 73.570312 210.21875 74.386719 210.449219 C 78.25 211.542969 80.542969 212.828125 81.660156 214.085938 C 82.324219 214.835938 83.472656 214.902344 84.222656 214.238281 C 84.972656 213.574219 85.042969 212.425781 84.375 211.675781 C 82.558594 209.628906 79.433594 208.109375 75.375 206.960938 C 74.132812 206.609375 72.644531 206.449219 70.960938 206.433594 C 69.875 206.425781 68.414062 206.558594 66.648438 206.765625 L 68.054688 207.199219 C 66.667969 206 65.023438 205.121094 63.113281 204.964844 C 62.949219 204.953125 61.316406 204.839844 59.402344 205.738281 C 58.492188 206.164062 58.105469 207.246094 58.53125 208.152344 C 58.957031 209.058594 60.039062 209.449219 60.945312 209.023438 Z M 60.945312 209.023438 " fill-opacity="1" fill-rule="nonzero"/><path fill="#6a2042" d="M 64.585938 198.878906 C 64.585938 198.953125 64.585938 199.027344 64.589844 199.101562 C 64.628906 200.089844 65.449219 200.863281 66.4375 200.84375 C 67.429688 200.824219 68.21875 200.019531 68.21875 199.03125 C 68.21875 199.070312 68.21875 199.109375 68.214844 199.152344 L 64.589844 199.132812 C 64.589844 199.121094 64.589844 199.105469 64.589844 199.105469 L 66.402344 199.039062 L 64.589844 199.105469 C 64.589844 199.148438 64.601562 199.496094 64.617188 199.957031 C 64.640625 200.742188 64.675781 201.851562 64.6875 202.21875 C 64.691406 202.34375 64.695312 202.496094 64.699219 202.6875 C 64.699219 202.785156 64.699219 202.882812 64.699219 202.96875 L 64.699219 202.972656 L 64.707031 203.832031 L 64.707031 204.097656 C 64.710938 204.183594 64.714844 204.414062 64.722656 204.789062 C 64.722656 204.839844 64.722656 204.890625 64.722656 204.957031 C 64.722656 204.996094 64.722656 204.960938 64.722656 205.007812 L 64.722656 205 L 64.722656 205.011719 C 64.722656 205.0625 64.722656 205.199219 64.71875 205.429688 C 64.714844 205.558594 64.710938 205.6875 64.710938 205.773438 C 64.707031 205.832031 64.707031 205.886719 64.703125 205.933594 L 64.703125 205.9375 C 64.703125 205.960938 64.703125 205.992188 64.703125 206.019531 L 64.703125 206.089844 C 64.703125 206.207031 64.703125 206.355469 64.699219 206.546875 C 64.699219 206.609375 64.703125 206.75 64.703125 206.859375 C 64.703125 206.78125 64.707031 206.730469 64.707031 206.742188 L 64.707031 206.738281 C 64.707031 206.746094 64.707031 206.738281 64.707031 206.746094 C 64.613281 207.746094 65.351562 208.628906 66.347656 208.71875 C 67.347656 208.808594 68.230469 208.074219 68.324219 207.078125 C 68.324219 207.066406 68.324219 207.058594 68.324219 207.046875 L 68.328125 207.042969 C 68.332031 206.996094 68.339844 206.894531 68.335938 206.773438 C 68.332031 206.59375 68.332031 206.570312 68.332031 206.601562 C 68.335938 206.386719 68.335938 206.222656 68.335938 206.097656 L 68.335938 206.042969 L 68.335938 206.046875 L 68.335938 206.042969 C 68.335938 206.042969 68.335938 206.03125 68.335938 206.015625 C 68.335938 205.984375 68.335938 205.9375 68.339844 205.875 C 68.34375 205.785156 68.34375 205.65625 68.347656 205.507812 C 68.355469 205.238281 68.355469 205.066406 68.355469 204.996094 L 68.355469 205.003906 L 68.355469 204.992188 C 68.355469 204.953125 68.355469 204.984375 68.355469 204.941406 L 68.355469 204.945312 C 68.355469 204.882812 68.351562 204.800781 68.351562 204.71875 C 68.34375 204.328125 68.339844 204.128906 68.339844 204.074219 L 68.339844 203.804688 L 68.332031 202.945312 C 68.332031 202.847656 68.332031 202.734375 68.328125 202.636719 C 68.324219 202.445312 68.324219 202.257812 68.316406 202.089844 C 68.304688 201.730469 68.269531 200.644531 68.246094 199.84375 C 68.230469 199.398438 68.21875 199.027344 68.21875 198.96875 L 66.402344 199.039062 L 68.21875 198.96875 C 68.21875 198.957031 68.21875 198.945312 68.214844 198.929688 L 64.589844 198.910156 C 64.589844 198.953125 64.585938 198.992188 64.585938 199.03125 L 68.21875 198.960938 C 68.21875 198.960938 68.21875 198.957031 68.21875 198.957031 C 68.238281 197.957031 67.441406 197.125 66.441406 197.105469 C 65.4375 197.085938 64.609375 197.878906 64.585938 198.878906 Z M 64.585938 198.878906 " fill-opacity="1" fill-rule="nonzero"/><path fill="#6a2042" d="M 103.660156 228.136719 C 103.699219 228.121094 103.738281 228.101562 103.777344 228.082031 C 104.214844 227.855469 105.59375 226.964844 107.910156 225.414062 C 107.921875 225.40625 107.933594 225.398438 107.941406 225.390625 L 111.320312 223.023438 C 112.140625 222.449219 112.339844 221.316406 111.761719 220.496094 C 111.1875 219.675781 110.054688 219.480469 109.230469 220.054688 L 105.855469 222.421875 L 105.890625 222.398438 C 103.683594 223.875 102.421875 224.695312 102.101562 224.863281 C 102.109375 224.859375 102.117188 224.855469 102.125 224.851562 C 101.214844 225.273438 100.824219 226.355469 101.25 227.261719 C 101.671875 228.171875 102.753906 228.5625 103.660156 228.136719 Z M 103.660156 228.136719 " fill-opacity="1" fill-rule="nonzero"/><path fill="#ffffff" d="M 125.199219 148.726562 L 125.199219 148.671875 L 125.199219 148.726562 C 125.199219 148.722656 125.199219 148.71875 125.199219 148.71875 C 125.199219 148.722656 125.199219 148.722656 125.199219 148.730469 L 125.199219 148.695312 C 125.1875 148.851562 125.179688 148.949219 125.175781 148.988281 C 125.175781 149.003906 125.171875 149.019531 125.171875 149.03125 L 125.171875 149.015625 L 125.160156 149.246094 L 125.164062 149.230469 C 125.144531 149.488281 125.132812 149.644531 125.132812 149.703125 L 125.132812 149.695312 L 125.109375 150.117188 L 125.109375 150.105469 C 125.09375 150.363281 125.078125 150.691406 125.054688 151.09375 L 125.054688 151.089844 C 125.050781 151.148438 125.050781 151.222656 125.046875 151.308594 L 125.046875 151.3125 C 125.042969 151.402344 125.042969 151.472656 125.042969 151.53125 L 125.042969 151.527344 L 125.035156 152.285156 C 125.035156 152.292969 125.035156 152.300781 125.035156 152.308594 C 125.042969 152.675781 125.050781 152.914062 125.058594 153.019531 C 125.058594 153.046875 125.0625 153.070312 125.0625 153.09375 C 125.136719 153.679688 125.671875 154.097656 126.257812 154.027344 C 126.84375 153.953125 127.261719 153.417969 127.191406 152.832031 C 127.191406 152.84375 127.191406 152.851562 127.191406 152.855469 C 127.1875 152.792969 127.183594 152.597656 127.175781 152.273438 L 127.175781 152.300781 L 127.183594 151.546875 L 127.183594 151.542969 C 127.183594 151.503906 127.183594 151.449219 127.1875 151.378906 L 127.1875 151.375 L 127.1875 151.382812 C 127.191406 151.3125 127.191406 151.253906 127.195312 151.210938 L 127.195312 151.207031 C 127.214844 150.8125 127.234375 150.488281 127.25 150.234375 L 127.25 150.222656 L 127.269531 149.804688 L 127.269531 149.800781 C 127.273438 149.761719 127.28125 149.621094 127.300781 149.378906 L 127.300781 149.363281 L 127.3125 149.128906 L 127.3125 149.117188 C 127.3125 149.125 127.3125 149.132812 127.3125 149.136719 C 127.3125 149.113281 127.320312 149.027344 127.335938 148.890625 C 127.335938 148.878906 127.335938 148.867188 127.335938 148.855469 C 127.339844 148.808594 127.339844 148.765625 127.339844 148.722656 C 127.339844 148.6875 127.339844 148.652344 127.339844 148.617188 L 127.339844 148.671875 C 127.308594 148.027344 126.804688 147.574219 126.214844 147.601562 C 125.625 147.632812 125.167969 148.136719 125.199219 148.726562 Z M 125.199219 148.726562 " fill-opacity="1" fill-rule="nonzero"/><path fill="#fbdd72" d="M 122.859375 160.03125 C 122.867188 160.007812 122.871094 159.984375 122.878906 159.96875 C 122.84375 160.046875 122.730469 160.226562 122.53125 160.503906 C 122.515625 160.527344 122.503906 160.550781 122.492188 160.574219 C 122.496094 160.558594 122.503906 160.546875 122.511719 160.539062 C 122.445312 160.640625 121.964844 161.308594 121.066406 162.546875 C 120.847656 162.847656 120.914062 163.265625 121.214844 163.484375 C 121.515625 163.703125 121.9375 163.632812 122.15625 163.335938 C 123.066406 162.078125 123.5625 161.390625 123.640625 161.269531 C 123.65625 161.246094 123.667969 161.226562 123.675781 161.207031 L 123.632812 161.277344 C 123.878906 160.925781 124.039062 160.671875 124.109375 160.515625 C 124.136719 160.449219 124.15625 160.390625 124.171875 160.328125 C 124.253906 159.96875 124.027344 159.609375 123.664062 159.527344 C 123.300781 159.445312 122.941406 159.671875 122.859375 160.03125 Z M 122.859375 160.03125 " fill-opacity="1" fill-rule="nonzero"/><path fill="#72c6fb" d="M 142.988281 165.242188 C 143.046875 165.234375 143.105469 165.222656 143.164062 165.207031 C 143.175781 165.207031 143.1875 165.203125 143.199219 165.199219 C 143.210938 165.195312 143.226562 165.191406 143.242188 165.1875 C 143.398438 165.140625 143.515625 165.105469 143.589844 165.089844 L 143.601562 165.085938 C 143.699219 165.066406 143.816406 165.042969 143.960938 165.019531 L 143.964844 165.019531 C 144.207031 164.980469 144.859375 164.902344 145.925781 164.78125 L 145.941406 164.78125 L 147.035156 164.636719 C 147.539062 164.570312 147.890625 164.109375 147.824219 163.609375 C 147.761719 163.105469 147.300781 162.753906 146.796875 162.820312 L 145.703125 162.964844 L 145.722656 162.960938 C 144.625 163.085938 143.945312 163.167969 143.675781 163.210938 L 143.683594 163.207031 C 143.496094 163.238281 143.328125 163.269531 143.183594 163.300781 L 143.195312 163.300781 C 143.070312 163.328125 142.902344 163.375 142.695312 163.4375 L 142.738281 163.425781 C 142.742188 163.425781 142.746094 163.425781 142.75 163.421875 C 142.246094 163.488281 141.894531 163.949219 141.957031 164.449219 C 142.023438 164.953125 142.484375 165.308594 142.988281 165.242188 Z M 142.988281 165.242188 " fill-opacity="1" fill-rule="nonzero"/><path fill="#72c6fb" d="M 102.03125 156.058594 C 102.089844 156.058594 102.148438 156.054688 102.207031 156.050781 C 102.214844 156.046875 102.226562 156.046875 102.234375 156.046875 C 102.300781 156.039062 102.34375 156.035156 102.359375 156.035156 C 102.359375 156.035156 102.355469 156.035156 102.351562 156.035156 L 102.371094 156.035156 C 102.402344 156.03125 102.441406 156.03125 102.480469 156.027344 L 102.472656 156.027344 L 102.480469 156.027344 C 102.53125 156.027344 102.574219 156.023438 102.605469 156.023438 L 102.601562 156.023438 L 102.949219 156.023438 C 102.996094 156.019531 103.042969 156.019531 103.09375 156.019531 L 103.105469 156.019531 L 103.484375 156.003906 L 103.476562 156.003906 L 103.480469 156.003906 C 103.550781 156 103.617188 156 103.6875 155.996094 C 103.804688 155.996094 103.921875 155.992188 104.039062 155.992188 L 104.035156 155.992188 L 104.632812 155.992188 C 104.738281 155.992188 104.847656 155.988281 104.96875 155.988281 C 105.566406 155.984375 106.050781 155.496094 106.046875 154.898438 C 106.039062 154.296875 105.550781 153.816406 104.953125 153.820312 C 104.835938 153.820312 104.726562 153.824219 104.625 153.824219 L 104.027344 153.824219 C 103.894531 153.824219 103.765625 153.828125 103.636719 153.832031 L 103.632812 153.832031 C 103.554688 153.832031 103.480469 153.835938 103.402344 153.835938 L 103.40625 153.835938 L 103.398438 153.835938 L 103.023438 153.851562 L 103.035156 153.851562 C 103 153.851562 102.964844 153.851562 102.929688 153.855469 L 102.578125 153.855469 C 102.53125 153.855469 102.472656 153.859375 102.402344 153.859375 L 102.410156 153.859375 L 102.398438 153.859375 C 102.335938 153.863281 102.277344 153.867188 102.222656 153.871094 L 102.242188 153.871094 C 102.230469 153.871094 102.214844 153.871094 102.203125 153.871094 C 102.15625 153.875 102.089844 153.882812 101.996094 153.890625 L 102.023438 153.890625 C 102.019531 153.890625 102.011719 153.890625 102.003906 153.890625 C 101.40625 153.898438 100.925781 154.390625 100.933594 154.988281 C 100.941406 155.585938 101.433594 156.066406 102.03125 156.058594 Z M 102.03125 156.058594 " fill-opacity="1" fill-rule="nonzero"/><path fill="#fbdd72" d="M 88.34375 162.046875 C 88.371094 162.09375 88.398438 162.136719 88.421875 162.167969 C 88.714844 162.578125 89.820312 163.640625 91.574219 165.246094 C 91.925781 165.566406 92.46875 165.539062 92.789062 165.191406 C 93.113281 164.839844 93.085938 164.296875 92.738281 163.976562 C 90.894531 162.289062 89.980469 161.394531 89.828125 161.175781 C 89.828125 161.175781 89.835938 161.183594 89.847656 161.207031 C 89.613281 160.792969 89.089844 160.644531 88.675781 160.875 C 88.261719 161.109375 88.113281 161.632812 88.34375 162.046875 Z M 88.34375 162.046875 " fill-opacity="1" fill-rule="nonzero"/><path fill="#72c6fb" d="M 71.105469 172.785156 C 71.902344 171.867188 72.527344 171.203125 72.984375 170.800781 C 73.386719 170.445312 73.425781 169.832031 73.066406 169.429688 C 72.710938 169.027344 72.097656 168.988281 71.695312 169.34375 C 71.171875 169.804688 70.484375 170.53125 69.632812 171.515625 C 69.28125 171.921875 69.328125 172.535156 69.734375 172.886719 C 70.140625 173.238281 70.753906 173.191406 71.105469 172.785156 Z M 71.105469 172.785156 " fill-opacity="1" fill-rule="nonzero"/><path fill="#72c6fb" d="M 108.089844 140.695312 C 107.871094 141.089844 107.699219 141.371094 107.566406 141.539062 C 107.558594 141.546875 107.554688 141.554688 107.546875 141.566406 C 107.382812 141.785156 107.082031 142.125 106.648438 142.589844 C 106.199219 143.066406 106.222656 143.816406 106.699219 144.265625 C 107.179688 144.710938 107.929688 144.6875 108.375 144.210938 C 108.875 143.679688 109.234375 143.269531 109.453125 142.976562 L 109.429688 143.003906 C 109.644531 142.730469 109.890625 142.339844 110.167969 141.832031 C 110.484375 141.257812 110.273438 140.539062 109.699219 140.226562 C 109.125 139.910156 108.402344 140.121094 108.089844 140.695312 Z M 108.089844 140.695312 " fill-opacity="1" fill-rule="nonzero"/><path fill="#72fb74" d="M 134.191406 165.851562 C 134.207031 166.191406 134.238281 166.535156 134.285156 166.882812 C 134.300781 167.027344 134.320312 167.167969 134.34375 167.308594 L 134.34375 167.324219 C 134.421875 167.78125 134.460938 168.039062 134.46875 168.105469 L 134.472656 168.109375 C 134.472656 168.109375 134.472656 168.113281 134.472656 168.113281 C 134.488281 168.246094 134.5 168.320312 134.503906 168.34375 C 134.496094 168.300781 134.496094 168.261719 134.496094 168.21875 C 134.496094 168.253906 134.496094 168.292969 134.5 168.328125 C 134.519531 168.519531 134.546875 168.738281 134.578125 168.988281 C 134.640625 169.480469 135.089844 169.828125 135.582031 169.765625 C 136.074219 169.703125 136.425781 169.253906 136.359375 168.761719 C 136.332031 168.527344 136.308594 168.324219 136.289062 168.152344 L 136.292969 168.265625 C 136.296875 168.21875 136.292969 168.171875 136.289062 168.125 C 136.285156 168.097656 136.273438 168.011719 136.253906 167.871094 C 136.253906 167.871094 136.253906 167.871094 136.253906 167.867188 L 136.253906 167.875 C 136.242188 167.789062 136.199219 167.507812 136.121094 167.03125 L 136.121094 167.042969 C 136.101562 166.917969 136.085938 166.789062 136.070312 166.660156 L 136.066406 166.660156 C 136.03125 166.355469 136.003906 166.054688 135.988281 165.757812 C 135.960938 165.261719 135.535156 164.882812 135.039062 164.90625 C 134.542969 164.933594 134.164062 165.355469 134.191406 165.851562 Z M 134.191406 165.851562 " fill-opacity="1" fill-rule="nonzero"/><path fill="#ffffff" d="M 144.144531 176.660156 C 143.765625 177.53125 143.410156 178.25 143.078125 178.816406 C 142.820312 179.261719 142.972656 179.832031 143.417969 180.089844 C 143.863281 180.34375 144.429688 180.195312 144.6875 179.75 C 145.054688 179.121094 145.441406 178.339844 145.851562 177.402344 C 146.054688 176.933594 145.839844 176.382812 145.371094 176.179688 C 144.898438 175.972656 144.351562 176.1875 144.144531 176.660156 Z M 144.144531 176.660156 " fill-opacity="1" fill-rule="nonzero"/><path fill="#ffcc00" d="M 142.714844 192.28125 C 142.710938 192.347656 142.714844 192.414062 142.71875 192.484375 C 142.722656 192.5 142.722656 192.515625 142.726562 192.53125 C 142.726562 192.542969 142.730469 192.558594 142.730469 192.574219 C 142.75 192.675781 142.761719 192.761719 142.765625 192.824219 L 142.804688 193.289062 C 142.804688 193.296875 142.804688 193.304688 142.804688 193.3125 C 142.847656 193.699219 142.894531 194.1875 142.945312 194.773438 C 142.988281 195.269531 143.425781 195.636719 143.921875 195.59375 C 144.417969 195.550781 144.785156 195.113281 144.742188 194.617188 C 144.691406 194.019531 144.644531 193.519531 144.601562 193.121094 L 144.605469 193.144531 L 144.566406 192.675781 C 144.554688 192.558594 144.539062 192.425781 144.511719 192.269531 L 144.519531 192.3125 C 144.519531 192.3125 144.515625 192.3125 144.515625 192.3125 C 144.519531 192.316406 144.519531 192.324219 144.519531 192.332031 C 144.53125 191.835938 144.140625 191.421875 143.640625 191.40625 C 143.144531 191.390625 142.726562 191.785156 142.714844 192.28125 Z M 142.714844 192.28125 " fill-opacity="1" fill-rule="nonzero"/><path fill="#ffffff" d="M 153.894531 177.734375 L 153.90625 177.734375 L 153.894531 177.734375 C 154.007812 177.757812 154.121094 177.800781 154.238281 177.851562 L 154.183594 177.824219 C 154.75 178.121094 155.246094 178.367188 155.671875 178.5625 C 156.273438 178.835938 156.984375 178.574219 157.257812 177.976562 C 157.53125 177.375 157.269531 176.664062 156.667969 176.390625 C 156.28125 176.214844 155.820312 175.984375 155.292969 175.707031 C 155.273438 175.699219 155.253906 175.691406 155.234375 175.679688 C 154.972656 175.558594 154.707031 175.46875 154.4375 175.40625 L 154.425781 175.402344 C 153.796875 175.257812 153.152344 175.65625 153.003906 176.296875 C 152.851562 176.941406 153.253906 177.582031 153.894531 177.734375 Z M 153.894531 177.734375 " fill-opacity="1" fill-rule="nonzero"/><path fill="#fbdd72" d="M 133.882812 154.144531 C 134.207031 154.105469 134.539062 154.046875 134.878906 153.964844 L 134.898438 153.960938 C 136.511719 153.550781 137.59375 153.28125 138.144531 153.152344 C 138.65625 153.035156 138.972656 152.523438 138.855469 152.011719 C 138.734375 151.503906 138.222656 151.183594 137.710938 151.304688 C 137.148438 151.4375 136.054688 151.707031 134.429688 152.121094 L 134.449219 152.117188 C 134.175781 152.179688 133.914062 152.226562 133.65625 152.257812 C 133.136719 152.320312 132.761719 152.792969 132.824219 153.3125 C 132.886719 153.832031 133.359375 154.203125 133.882812 154.144531 Z M 133.882812 154.144531 " fill-opacity="1" fill-rule="nonzero"/><path fill="#72c6fb" d="M 131.695312 177.628906 C 131.621094 177.894531 131.554688 178.085938 131.5 178.199219 L 131.496094 178.210938 C 131.0625 179.160156 130.789062 179.746094 130.671875 179.960938 C 130.480469 180.320312 130.617188 180.765625 130.976562 180.957031 C 131.335938 181.148438 131.78125 181.011719 131.972656 180.652344 C 132.101562 180.410156 132.390625 179.796875 132.835938 178.820312 L 132.832031 178.828125 C 132.921875 178.640625 133.015625 178.375 133.113281 178.035156 C 133.222656 177.644531 133 177.238281 132.609375 177.125 C 132.214844 177.015625 131.808594 177.238281 131.695312 177.628906 Z M 131.695312 177.628906 " fill-opacity="1" fill-rule="nonzero"/><path fill="#fbdd72" d="M 113.578125 150.621094 C 113.636719 150.621094 113.734375 150.617188 113.878906 150.609375 L 113.867188 150.609375 C 113.898438 150.609375 113.921875 150.609375 113.949219 150.609375 L 113.953125 150.609375 C 114 150.609375 114.070312 150.609375 114.164062 150.617188 L 114.152344 150.617188 C 114.855469 150.679688 115.414062 150.742188 115.828125 150.808594 C 116.351562 150.890625 116.84375 150.535156 116.925781 150.015625 C 117.007812 149.492188 116.652344 149.003906 116.128906 148.917969 C 115.671875 148.847656 115.066406 148.777344 114.320312 148.710938 L 114.308594 148.710938 C 114.164062 148.699219 114.039062 148.695312 113.9375 148.695312 L 113.945312 148.695312 C 113.898438 148.695312 113.851562 148.695312 113.800781 148.699219 L 113.789062 148.699219 C 113.660156 148.703125 113.570312 148.707031 113.527344 148.710938 C 112.996094 148.722656 112.582031 149.164062 112.59375 149.691406 C 112.609375 150.21875 113.046875 150.636719 113.578125 150.621094 Z M 113.578125 150.621094 " fill-opacity="1" fill-rule="nonzero"/><path fill="#ffffff" d="M 90.777344 150.402344 C 91.613281 150.941406 94.265625 153.214844 94.453125 153.382812 C 94.453125 153.382812 94.449219 153.382812 94.449219 153.382812 C 94.804688 153.710938 95.359375 153.691406 95.691406 153.335938 C 96.019531 152.980469 96 152.425781 95.644531 152.097656 C 95.640625 152.09375 95.636719 152.089844 95.632812 152.089844 C 95.457031 151.925781 92.703125 149.558594 91.726562 148.929688 C 91.320312 148.667969 90.777344 148.785156 90.515625 149.191406 C 90.253906 149.597656 90.371094 150.140625 90.777344 150.402344 Z M 90.777344 150.402344 " fill-opacity="1" fill-rule="nonzero"/><path fill="#72fb74" d="M 101.1875 163.117188 C 101.191406 163.207031 101.203125 163.34375 101.21875 163.511719 L 101.21875 163.535156 C 101.222656 163.566406 101.222656 163.605469 101.226562 163.660156 L 101.226562 163.65625 C 101.226562 163.664062 101.226562 163.667969 101.226562 163.671875 C 101.226562 163.707031 101.234375 163.785156 101.238281 163.878906 C 101.257812 164.226562 101.304688 164.945312 101.328125 165.5625 C 101.34375 166.03125 101.347656 166.34375 101.339844 166.4375 C 101.339844 166.4375 101.339844 166.4375 101.339844 166.433594 C 101.273438 166.992188 101.671875 167.496094 102.226562 167.558594 C 102.78125 167.625 103.289062 167.230469 103.351562 166.671875 C 103.355469 166.664062 103.355469 166.648438 103.355469 166.636719 C 103.382812 166.375 103.371094 165.902344 103.355469 165.484375 C 103.328125 164.839844 103.285156 164.101562 103.261719 163.757812 C 103.257812 163.648438 103.253906 163.59375 103.253906 163.578125 L 103.253906 163.574219 C 103.253906 163.574219 103.253906 163.578125 103.253906 163.578125 C 103.25 163.523438 103.246094 163.449219 103.242188 163.371094 L 103.238281 163.347656 C 103.226562 163.167969 103.214844 163.058594 103.210938 162.992188 C 103.175781 162.433594 102.695312 162.007812 102.136719 162.042969 C 101.578125 162.078125 101.152344 162.558594 101.1875 163.117188 Z M 101.1875 163.117188 " fill-opacity="1" fill-rule="nonzero"/><path fill="#fbdd72" d="M 74.367188 180.636719 C 74.734375 180.519531 74.976562 180.453125 75.09375 180.433594 C 75.109375 180.433594 75.128906 180.429688 75.144531 180.425781 C 75.386719 180.375 75.621094 180.34375 75.847656 180.332031 C 76.367188 180.3125 76.773438 179.871094 76.75 179.351562 C 76.726562 178.828125 76.285156 178.425781 75.765625 178.449219 C 75.433594 178.460938 75.097656 178.503906 74.75 178.578125 L 74.800781 178.570312 C 74.59375 178.601562 74.257812 178.691406 73.800781 178.835938 C 73.300781 178.992188 73.027344 179.523438 73.183594 180.019531 C 73.339844 180.515625 73.871094 180.792969 74.367188 180.636719 Z M 74.367188 180.636719 " fill-opacity="1" fill-rule="nonzero"/><path fill="#ffffff" d="M 82.777344 168.480469 L 83.4375 171.257812 C 83.570312 171.820312 84.136719 172.167969 84.695312 172.035156 C 85.257812 171.902344 85.605469 171.339844 85.472656 170.777344 L 84.808594 167.996094 C 84.675781 167.4375 84.113281 167.089844 83.550781 167.222656 C 82.992188 167.355469 82.644531 167.917969 82.777344 168.480469 Z M 82.777344 168.480469 " fill-opacity="1" fill-rule="nonzero"/><path fill="#72fb74" d="M 68.0625 163.972656 C 68.066406 163.972656 68.066406 163.972656 68.070312 163.972656 L 68.066406 163.972656 C 68.171875 163.980469 68.390625 163.988281 68.726562 163.992188 C 68.765625 163.992188 68.828125 163.992188 68.921875 163.992188 L 68.917969 163.992188 C 68.953125 163.992188 69.140625 163.988281 69.480469 163.988281 C 69.570312 163.988281 69.660156 163.988281 69.757812 163.988281 L 69.753906 163.988281 C 69.992188 163.988281 70.199219 163.992188 70.378906 163.992188 C 70.664062 163.996094 70.984375 164.011719 71.34375 164.03125 C 71.867188 164.0625 72.3125 163.664062 72.34375 163.144531 C 72.375 162.621094 71.976562 162.175781 71.453125 162.144531 C 71.066406 162.125 70.71875 162.109375 70.40625 162.105469 L 70.410156 162.105469 C 70.222656 162.101562 70.007812 162.101562 69.757812 162.101562 C 69.660156 162.101562 69.566406 162.101562 69.472656 162.101562 C 69.132812 162.101562 68.949219 162.101562 68.921875 162.101562 C 68.835938 162.101562 68.777344 162.101562 68.75 162.101562 C 68.457031 162.097656 68.28125 162.09375 68.21875 162.089844 C 67.699219 162.046875 67.242188 162.433594 67.199219 162.953125 C 67.15625 163.472656 67.542969 163.929688 68.0625 163.972656 Z M 68.0625 163.972656 " fill-opacity="1" fill-rule="nonzero"/><path fill="#fbdd72" d="M 80.6875 151.867188 L 80.761719 152.050781 C 80.964844 152.550781 82.046875 155.457031 82.046875 155.457031 L 85.328125 155.417969 L 82.484375 157.359375 C 83.167969 159.707031 83.589844 161.058594 83.75 161.417969 C 83.738281 161.445312 83.710938 161.445312 83.667969 161.402344 C 83.269531 161.007812 82.304688 160.167969 80.769531 158.882812 C 80.355469 159.269531 79.628906 159.964844 78.589844 160.964844 L 78.253906 161.242188 L 77.878906 161.523438 L 79.074219 157.441406 L 76.410156 155.429688 L 79.609375 155.449219 Z M 80.6875 151.867188 " fill-opacity="1" fill-rule="nonzero"/><path fill="#72fb74" d="M 120.890625 140.414062 L 120.933594 140.515625 C 121.046875 140.789062 121.644531 142.394531 121.644531 142.394531 L 123.453125 142.371094 L 121.882812 143.445312 C 122.257812 144.738281 122.492188 145.484375 122.582031 145.683594 C 122.574219 145.699219 122.558594 145.695312 122.535156 145.675781 C 122.316406 145.457031 121.785156 144.992188 120.9375 144.285156 C 120.710938 144.496094 120.308594 144.878906 119.734375 145.433594 L 119.550781 145.585938 L 119.34375 145.738281 L 120 143.488281 L 118.535156 142.378906 L 120.296875 142.390625 Z M 120.890625 140.414062 " fill-opacity="1" fill-rule="nonzero"/><path fill="#72c6fb" d="M 126.773438 166.273438 L 126.824219 166.394531 C 126.960938 166.734375 127.695312 168.703125 127.695312 168.703125 L 129.917969 168.675781 L 127.992188 169.996094 C 128.453125 171.585938 128.738281 172.5 128.847656 172.746094 C 128.84375 172.761719 128.820312 172.761719 128.792969 172.734375 C 128.523438 172.46875 127.871094 171.894531 126.828125 171.027344 C 126.550781 171.289062 126.054688 171.757812 125.351562 172.4375 L 125.125 172.625 L 124.871094 172.816406 L 125.679688 170.050781 L 123.875 168.6875 L 126.042969 168.699219 Z M 126.773438 166.273438 " fill-opacity="1" fill-rule="nonzero"/><path stroke-linecap="butt" transform="matrix(0.820952, 0, 0, 0.820952, 134.835332, 130.364624)" fill="none" stroke-linejoin="miter" d="M 57.265595 63.996065 C 57.265595 64.828749 55.205297 65.242711 51.08946 65.242711 C 46.983139 65.242711 44.9276 64.828749 44.9276 63.996065 L 44.9276 32.72046 L 37.442962 32.72046 C 36.743507 32.72046 36.248655 31.764063 35.953647 29.860786 C 35.829934 28.947212 35.772836 28.014607 35.772836 27.05821 C 35.772836 26.097055 35.829934 25.159691 35.953647 24.246117 C 36.248655 22.338082 36.743507 21.386443 37.442962 21.386443 L 64.555147 21.386443 C 65.264118 21.386443 65.75897 22.338082 66.044462 24.246117 C 66.177691 25.159691 66.239548 26.097055 66.239548 27.05821 C 66.239548 28.014607 66.177691 28.947212 66.044462 29.860786 C 65.75897 31.764063 65.264118 32.72046 64.555147 32.72046 L 57.265595 32.72046 Z M 83.107343 64.938187 C 83.107343 65.233195 81.223099 65.380699 77.449851 65.380699 C 73.667088 65.290293 71.773327 65.123757 71.773327 64.876331 L 71.773327 44.187706 L 70.084168 44.187706 C 69.427537 44.187706 68.899378 43.783259 68.504448 42.974367 C 68.109518 42.160715 67.909674 41.151978 67.909674 39.943397 C 67.909674 35.461179 69.241968 33.22007 71.89704 33.22007 C 73.762251 33.22007 75.318181 33.795812 76.564827 34.942536 C 77.816232 36.074986 78.439555 37.373973 78.439555 38.834738 C 79.310305 37.131305 80.48082 35.770462 81.951102 34.756967 C 83.4309 33.733955 84.944006 33.22007 86.48566 33.22007 C 88.888548 33.22007 90.339797 33.843393 90.834649 35.09004 C 90.967879 35.427872 91.034493 35.917966 91.034493 36.569838 C 91.034493 37.207436 90.834649 38.358919 90.439719 40.019528 C 90.044789 41.67538 89.640343 42.874444 89.221622 43.626239 C 88.807659 44.378034 88.555475 44.753931 88.465069 44.753931 C 88.38418 44.753931 87.998766 44.59691 87.308828 44.28287 C 86.628406 43.964071 86.019358 43.80705 85.481682 43.80705 C 83.897203 43.80705 83.107343 45.058455 83.107343 47.551749 Z M 117.694651 63.310885 C 115.077644 64.85254 111.713602 65.623367 107.593006 65.623367 C 103.486685 65.623367 100.017962 64.224458 97.191596 61.42664 C 94.36047 58.614548 92.947287 54.731862 92.947287 49.773825 C 92.947287 44.801513 94.303372 40.799872 97.020301 37.768903 C 99.751504 34.737934 103.186919 33.22007 107.336064 33.22007 C 111.494725 33.22007 114.706505 34.281147 116.966647 36.398543 C 119.236305 38.520698 120.373514 41.09488 120.373514 44.130607 C 120.373514 50.853935 116.509861 54.213219 108.782555 54.213219 L 104.47639 54.213219 C 104.47639 55.459866 104.814221 56.325857 105.494643 56.801676 C 106.184581 57.277496 107.193318 57.515405 108.520854 57.515405 C 111.432868 57.515405 114.197379 56.849258 116.814385 55.521722 C 116.85245 55.483657 117.042778 55.773907 117.375852 56.406746 C 118.370314 58.191069 118.869924 59.694658 118.869924 60.922272 C 118.869924 62.149886 118.474994 62.944504 117.694651 63.310885 Z M 109.905488 45.315398 C 109.905488 43.569141 109.053772 42.698391 107.350338 42.698391 C 106.560478 42.698391 105.880057 42.936301 105.313832 43.41212 C 104.757123 43.88794 104.47639 44.582636 104.47639 45.496209 L 104.47639 47.428035 L 107.840432 47.428035 C 109.21555 47.428035 109.905488 46.723823 109.905488 45.315398 Z M 128.333971 42.379592 C 127.17773 40.300262 126.59723 38.606345 126.59723 37.297842 C 126.59723 35.989339 126.949337 35.147138 127.648791 34.771241 C 130.02313 33.738713 133.272976 33.22007 137.398329 33.22007 C 141.537958 33.22007 144.459488 34.190742 146.162922 36.127326 C 147.866355 38.054395 148.718071 40.909311 148.718071 44.692074 L 148.718071 54.532018 L 150.830709 54.532018 C 151.544438 54.532018 152.09163 54.950739 152.477044 55.783423 C 152.871974 56.611349 153.06706 57.753315 153.06706 59.204564 C 153.06706 60.655813 152.705437 62.088029 151.972676 63.510729 C 151.254188 64.919154 150.269242 65.623367 149.022596 65.623367 C 146.781487 65.623367 144.973373 65.019076 143.607772 63.815253 C 142.97969 63.315643 142.499113 62.711353 142.175556 62.002382 C 140.258004 64.414786 137.288891 65.623367 133.263459 65.623367 C 130.227732 65.623367 127.672582 64.543257 125.593252 62.383037 C 123.513921 60.222817 122.476635 57.667668 122.476635 54.717588 C 122.476635 47.951437 126.525858 44.568361 134.629061 44.568361 L 138.05496 44.568361 L 138.05496 43.945038 C 138.05496 42.86017 137.878907 42.165474 137.522042 41.860949 C 137.174694 41.546909 136.361043 41.389888 135.071573 41.389888 C 133.491853 41.389888 131.245985 41.718203 128.333971 42.379592 Z M 133.325316 53.851597 C 133.325316 54.760411 133.572742 55.455108 134.067594 55.935685 C 134.567204 56.411505 135.200044 56.649414 135.970871 56.649414 C 136.741699 56.649414 137.436395 56.340132 138.05496 55.721567 L 138.05496 50.911033 L 136.318219 50.911033 C 134.319778 50.911033 133.325316 51.891221 133.325316 53.851597 Z M 170.948351 64.619388 C 170.948351 65.128515 169.202094 65.380699 165.714338 65.380699 C 161.565193 65.209404 159.490621 64.933429 159.490621 64.557532 L 159.490621 42.498547 L 156.312148 42.498547 C 155.479464 42.498547 155.065501 41.071089 155.065501 38.211415 C 155.065501 37.45962 155.136874 36.546047 155.27962 35.470696 C 155.427124 34.385828 155.731648 33.843393 156.188435 33.843393 L 159.490621 33.843393 L 159.490621 28.366713 C 159.490621 27.538787 161.246394 27.120066 164.753183 27.120066 C 168.26473 27.120066 170.020503 27.448382 170.020503 28.10977 L 170.020503 32.097136 L 170.077601 33.843393 L 175.373471 33.843393 C 176.082441 33.843393 176.439306 35.299401 176.439306 38.211415 C 176.439306 41.109155 176.082441 42.560404 175.373471 42.560404 L 170.948351 42.560404 Z M 170.948351 64.619388 " stroke="#6a2042" stroke-width="8.568409" stroke-opacity="1" stroke-miterlimit="4"/><g fill="#fb72bd" fill-opacity="1"><g transform="translate(163.889348, 183.726527)"><g><path d="M 17.953125 -0.8125 C 17.953125 -0.132812 16.265625 0.203125 12.890625 0.203125 C 9.515625 0.203125 7.828125 -0.132812 7.828125 -0.8125 L 7.828125 -26.5 L 1.6875 -26.5 C 1.101562 -26.5 0.691406 -27.285156 0.453125 -28.859375 C 0.359375 -29.609375 0.3125 -30.375 0.3125 -31.15625 C 0.3125 -31.9375 0.359375 -32.703125 0.453125 -33.453125 C 0.691406 -35.023438 1.101562 -35.8125 1.6875 -35.8125 L 23.9375 -35.8125 C 24.519531 -35.8125 24.929688 -35.023438 25.171875 -33.453125 C 25.273438 -32.703125 25.328125 -31.9375 25.328125 -31.15625 C 25.328125 -30.375 25.273438 -29.609375 25.171875 -28.859375 C 24.929688 -27.285156 24.519531 -26.5 23.9375 -26.5 L 17.953125 -26.5 Z M 17.953125 -0.8125 "/></g></g></g><g fill="#fb72bd" fill-opacity="1"><g transform="translate(189.563012, 183.726527)"><g><path d="M 13.5 -0.046875 C 13.5 0.191406 11.945312 0.3125 8.84375 0.3125 C 5.738281 0.238281 4.1875 0.0976562 4.1875 -0.109375 L 4.1875 -17.09375 L 2.8125 -17.09375 C 2.269531 -17.09375 1.832031 -17.421875 1.5 -18.078125 C 1.175781 -18.742188 1.015625 -19.570312 1.015625 -20.5625 C 1.015625 -24.25 2.109375 -26.09375 4.296875 -26.09375 C 5.828125 -26.09375 7.101562 -25.625 8.125 -24.6875 C 9.15625 -23.75 9.671875 -22.679688 9.671875 -21.484375 C 10.390625 -22.878906 11.351562 -23.992188 12.5625 -24.828125 C 13.769531 -25.671875 15.003906 -26.09375 16.265625 -26.09375 C 18.242188 -26.09375 19.4375 -25.582031 19.84375 -24.5625 C 19.945312 -24.28125 20 -23.875 20 -23.34375 C 20 -22.820312 19.835938 -21.878906 19.515625 -20.515625 C 19.191406 -19.148438 18.859375 -18.160156 18.515625 -17.546875 C 18.171875 -16.929688 17.960938 -16.625 17.890625 -16.625 C 17.828125 -16.625 17.515625 -16.75 16.953125 -17 C 16.390625 -17.257812 15.890625 -17.390625 15.453125 -17.390625 C 14.148438 -17.390625 13.5 -16.367188 13.5 -14.328125 Z M 13.5 -0.046875 "/></g></g></g><g fill="#fb72bd" fill-opacity="1"><g transform="translate(209.815542, 183.726527)"><g><path d="M 21.640625 -1.375 C 19.492188 -0.113281 16.726562 0.515625 13.34375 0.515625 C 9.96875 0.515625 7.117188 -0.632812 4.796875 -2.9375 C 2.484375 -5.238281 1.328125 -8.425781 1.328125 -12.5 C 1.328125 -16.582031 2.441406 -19.867188 4.671875 -22.359375 C 6.910156 -24.847656 9.734375 -26.09375 13.140625 -26.09375 C 16.554688 -26.09375 19.191406 -25.222656 21.046875 -23.484375 C 22.910156 -21.742188 23.84375 -19.628906 23.84375 -17.140625 C 23.84375 -11.609375 20.671875 -8.84375 14.328125 -8.84375 L 10.796875 -8.84375 C 10.796875 -7.820312 11.078125 -7.113281 11.640625 -6.71875 C 12.203125 -6.332031 13.03125 -6.140625 14.125 -6.140625 C 16.507812 -6.140625 18.773438 -6.6875 20.921875 -7.78125 C 20.953125 -7.8125 21.109375 -7.570312 21.390625 -7.0625 C 22.203125 -5.59375 22.609375 -4.351562 22.609375 -3.34375 C 22.609375 -2.34375 22.285156 -1.6875 21.640625 -1.375 Z M 15.25 -16.171875 C 15.25 -17.597656 14.546875 -18.3125 13.140625 -18.3125 C 12.492188 -18.3125 11.941406 -18.113281 11.484375 -17.71875 C 11.023438 -17.332031 10.796875 -16.765625 10.796875 -16.015625 L 10.796875 -14.421875 L 13.5625 -14.421875 C 14.6875 -14.421875 15.25 -15.003906 15.25 -16.171875 Z M 15.25 -16.171875 "/></g></g></g><g fill="#fb72bd" fill-opacity="1"><g transform="translate(234.670922, 183.726527)"><g><path d="M 5.53125 -18.5625 C 4.570312 -20.269531 4.09375 -21.660156 4.09375 -22.734375 C 4.09375 -23.804688 4.382812 -24.5 4.96875 -24.8125 C 6.90625 -25.664062 9.570312 -26.09375 12.96875 -26.09375 C 16.363281 -26.09375 18.757812 -25.296875 20.15625 -23.703125 C 21.550781 -22.117188 22.25 -19.773438 22.25 -16.671875 L 22.25 -8.59375 L 24 -8.59375 C 24.570312 -8.59375 25.019531 -8.25 25.34375 -7.5625 C 25.664062 -6.882812 25.828125 -5.945312 25.828125 -4.75 C 25.828125 -3.5625 25.53125 -2.382812 24.9375 -1.21875 C 24.34375 -0.0625 23.535156 0.515625 22.515625 0.515625 C 20.671875 0.515625 19.1875 0.0195312 18.0625 -0.96875 C 17.550781 -1.375 17.15625 -1.867188 16.875 -2.453125 C 15.3125 -0.472656 12.875 0.515625 9.5625 0.515625 C 7.070312 0.515625 4.972656 -0.367188 3.265625 -2.140625 C 1.566406 -3.921875 0.71875 -6.019531 0.71875 -8.4375 C 0.71875 -14 4.039062 -16.78125 10.6875 -16.78125 L 13.5 -16.78125 L 13.5 -17.296875 C 13.5 -18.179688 13.351562 -18.75 13.0625 -19 C 12.78125 -19.257812 12.109375 -19.390625 11.046875 -19.390625 C 9.753906 -19.390625 7.914062 -19.113281 5.53125 -18.5625 Z M 9.625 -9.15625 C 9.625 -8.40625 9.828125 -7.832031 10.234375 -7.4375 C 10.640625 -7.050781 11.15625 -6.859375 11.78125 -6.859375 C 12.414062 -6.859375 12.988281 -7.113281 13.5 -7.625 L 13.5 -11.5625 L 12.078125 -11.5625 C 10.441406 -11.5625 9.625 -10.757812 9.625 -9.15625 Z M 9.625 -9.15625 "/></g></g></g><g fill="#fb72bd" fill-opacity="1"><g transform="translate(261.111723, 183.726527)"><g><path d="M 14.0625 -0.3125 C 14.0625 0.101562 12.628906 0.3125 9.765625 0.3125 C 6.359375 0.175781 4.65625 -0.046875 4.65625 -0.359375 L 4.65625 -18.46875 L 2.046875 -18.46875 C 1.359375 -18.46875 1.015625 -19.644531 1.015625 -22 C 1.015625 -22.613281 1.070312 -23.363281 1.1875 -24.25 C 1.3125 -25.132812 1.5625 -25.578125 1.9375 -25.578125 L 4.65625 -25.578125 L 4.65625 -30.078125 C 4.65625 -30.765625 6.09375 -31.109375 8.96875 -31.109375 C 11.851562 -31.109375 13.296875 -30.832031 13.296875 -30.28125 L 13.296875 -27.015625 L 13.359375 -25.578125 L 17.703125 -25.578125 C 18.273438 -25.578125 18.5625 -24.382812 18.5625 -22 C 18.5625 -19.613281 18.273438 -18.421875 17.703125 -18.421875 L 14.0625 -18.421875 Z M 14.0625 -0.3125 "/></g></g></g><path stroke-linecap="butt" transform="matrix(0.820952, 0, 0, 0.820952, 134.835332, 173.212503)" fill="none" stroke-linejoin="miter" d="M 58.388529 63.933937 C 58.388529 64.642908 56.285407 64.999772 52.088681 64.999772 C 47.901471 64.999772 45.807865 64.642908 45.807865 63.933937 L 45.807865 49.607017 L 37.071822 49.607017 L 37.071822 63.933937 C 37.071822 64.642908 34.973459 64.999772 30.776733 64.999772 C 26.589522 64.999772 24.495917 64.642908 24.495917 63.933937 L 24.495917 22.632819 C 24.495917 21.762069 26.589522 21.324316 30.776733 21.324316 C 34.973459 21.324316 37.071822 21.762069 37.071822 22.632819 L 37.071822 37.269022 L 45.807865 37.269022 L 45.807865 22.756532 C 45.807865 22.176032 46.840393 21.762069 48.910208 21.509885 C 49.995076 21.424238 51.056153 21.386172 52.088681 21.386172 L 55.267154 21.509885 C 57.346484 21.762069 58.388529 22.176032 58.388529 22.756532 Z M 68.218956 42.379321 C 67.062715 40.299991 66.482216 38.606074 66.482216 37.297571 C 66.482216 35.989068 66.834322 35.146867 67.533776 34.77097 C 69.908115 33.738442 73.157961 33.219799 77.283315 33.219799 C 81.422943 33.219799 84.344473 34.190471 86.047907 36.127055 C 87.75134 38.054124 88.603056 40.90904 88.603056 44.691803 L 88.603056 54.531747 L 90.715694 54.531747 C 91.429423 54.531747 91.976616 54.950468 92.362029 55.783152 C 92.756959 56.611078 92.952045 57.753044 92.952045 59.204293 C 92.952045 60.655542 92.590423 62.087758 91.857661 63.510458 C 91.139174 64.918883 90.154228 65.623096 88.907581 65.623096 C 86.666472 65.623096 84.858358 65.018805 83.492757 63.814982 C 82.864675 63.315372 82.384098 62.711081 82.060541 62.002111 C 80.142989 64.414515 77.173876 65.623096 73.148444 65.623096 C 70.112717 65.623096 67.557567 64.542986 65.478237 62.382766 C 63.398906 60.222546 62.36162 57.667397 62.36162 54.717317 C 62.36162 47.951166 66.410843 44.56809 74.514046 44.56809 L 77.939945 44.56809 L 77.939945 43.944767 C 77.939945 42.859899 77.759134 42.165203 77.407028 41.860678 C 77.059679 41.546637 76.246028 41.389617 74.956558 41.389617 C 73.376838 41.389617 71.13097 41.717932 68.218956 42.379321 Z M 73.205543 53.851325 C 73.205543 54.76014 73.457727 55.454837 73.952579 55.935414 C 74.452189 56.411233 75.085029 56.649143 75.855856 56.649143 C 76.626684 56.649143 77.32138 56.339861 77.939945 55.721295 L 77.939945 50.91552 L 76.203205 50.91552 C 74.204763 50.91552 73.205543 51.89095 73.205543 53.851325 Z M 94.079737 34.028692 C 93.951266 33.705135 95.887851 33.538598 99.894249 33.538598 C 103.910165 33.538598 105.918122 33.643278 105.918122 33.843122 L 110.405098 55.036116 L 113.769141 34.147647 C 113.888096 33.786024 115.943636 33.600455 119.926243 33.600455 C 123.96595 33.600455 125.916809 33.762233 125.783579 34.090548 L 117.004713 64.557261 C 116.714463 64.975982 114.240202 65.180584 109.581931 65.180584 C 104.937934 65.180584 102.449399 64.871301 102.116326 64.252736 Z M 152.519868 63.310614 C 149.902862 64.852268 146.538819 65.623096 142.418223 65.623096 C 138.311903 65.623096 134.84318 64.224187 132.016813 61.426369 C 129.185688 58.614277 127.772504 54.731591 127.772504 49.773554 C 127.772504 44.801242 129.128589 40.804359 131.845518 37.768632 C 134.576721 34.737663 138.012136 33.219799 142.161281 33.219799 C 146.319942 33.219799 149.531722 34.280876 151.791864 36.40303 C 154.061523 38.520426 155.198731 41.094609 155.198731 44.130336 C 155.198731 50.853664 151.335078 54.212948 143.607772 54.212948 L 139.301607 54.212948 C 139.301607 55.459595 139.639438 56.325586 140.31986 56.801405 C 141.009798 57.277225 142.018535 57.515134 143.346071 57.515134 C 146.258085 57.515134 149.022596 56.848987 151.639602 55.521451 C 151.677668 55.483386 151.867995 55.778394 152.201069 56.406475 C 153.195531 58.190798 153.695142 59.694387 153.695142 60.922001 C 153.695142 62.149615 153.300212 62.944233 152.519868 63.310614 Z M 144.730705 45.315127 C 144.730705 43.56887 143.878989 42.69812 142.175556 42.69812 C 141.385695 42.69812 140.705274 42.93603 140.139049 43.411849 C 139.58234 43.892427 139.301607 44.587123 139.301607 45.495938 L 139.301607 47.427764 L 142.665649 47.427764 C 144.040767 47.427764 144.730705 46.723552 144.730705 45.315127 Z M 172.256854 64.619117 C 172.256854 64.914125 170.758023 65.061629 167.769878 65.061629 C 163.620733 64.937916 161.546161 64.709523 161.546161 64.376449 L 161.546161 44.187435 L 159.918859 44.187435 C 158.843507 44.187435 158.139294 43.27862 157.801462 41.451474 C 157.720573 40.904281 157.682508 40.361847 157.682508 39.824171 C 157.682508 38.534701 157.929934 37.245231 158.429544 35.960518 C 159.17658 34.133372 160.33758 33.219799 161.912542 33.219799 C 163.492262 33.219799 164.910203 33.595696 166.15685 34.347491 C 167.403497 35.085011 168.236181 35.832047 168.650143 36.583842 C 171.26715 34.342733 174.379008 33.219799 177.990477 33.219799 C 181.611462 33.219799 184.228468 34.199987 185.841496 36.155604 C 187.46404 38.106464 188.272933 41.299211 188.272933 45.743364 L 188.272933 64.438306 C 188.272933 64.933158 186.498127 65.180584 182.948514 65.180584 C 179.398902 65.180584 177.624096 64.933158 177.624096 64.438306 L 177.624096 46.423786 C 177.624096 44.35873 176.896092 43.321444 175.435327 43.321444 C 175.021364 43.321444 174.436106 43.497497 173.684312 43.854361 C 172.946792 44.201709 172.466214 44.458652 172.256854 44.629947 Z M 172.256854 64.619117 " stroke="#6a2042" stroke-width="8.568409" stroke-opacity="1" stroke-miterlimit="4"/><g fill="#fdd599" fill-opacity="1"><g transform="translate(152.383188, 226.574406)"><g><path d="M 30.390625 -0.875 C 30.390625 -0.289062 28.664062 0 25.21875 0 C 21.769531 0 20.046875 -0.289062 20.046875 -0.875 L 20.046875 -12.640625 L 12.890625 -12.640625 L 12.890625 -0.875 C 12.890625 -0.289062 11.164062 0 7.71875 0 C 4.28125 0 2.5625 -0.289062 2.5625 -0.875 L 2.5625 -34.78125 C 2.5625 -35.5 4.28125 -35.859375 7.71875 -35.859375 C 11.164062 -35.859375 12.890625 -35.5 12.890625 -34.78125 L 12.890625 -22.765625 L 20.046875 -22.765625 L 20.046875 -34.6875 C 20.046875 -35.164062 20.898438 -35.503906 22.609375 -35.703125 C 23.492188 -35.773438 24.363281 -35.8125 25.21875 -35.8125 L 27.828125 -35.703125 C 29.535156 -35.503906 30.390625 -35.164062 30.390625 -34.6875 Z M 30.390625 -0.875 "/></g></g></g><g fill="#fdd599" fill-opacity="1"><g transform="translate(185.319128, 226.574406)"><g><path d="M 5.53125 -18.5625 C 4.570312 -20.269531 4.09375 -21.660156 4.09375 -22.734375 C 4.09375 -23.804688 4.382812 -24.5 4.96875 -24.8125 C 6.90625 -25.664062 9.570312 -26.09375 12.96875 -26.09375 C 16.363281 -26.09375 18.757812 -25.296875 20.15625 -23.703125 C 21.550781 -22.117188 22.25 -19.773438 22.25 -16.671875 L 22.25 -8.59375 L 24 -8.59375 C 24.570312 -8.59375 25.019531 -8.25 25.34375 -7.5625 C 25.664062 -6.882812 25.828125 -5.945312 25.828125 -4.75 C 25.828125 -3.5625 25.53125 -2.382812 24.9375 -1.21875 C 24.34375 -0.0625 23.535156 0.515625 22.515625 0.515625 C 20.671875 0.515625 19.1875 0.0195312 18.0625 -0.96875 C 17.550781 -1.375 17.15625 -1.867188 16.875 -2.453125 C 15.3125 -0.472656 12.875 0.515625 9.5625 0.515625 C 7.070312 0.515625 4.972656 -0.367188 3.265625 -2.140625 C 1.566406 -3.921875 0.71875 -6.019531 0.71875 -8.4375 C 0.71875 -14 4.039062 -16.78125 10.6875 -16.78125 L 13.5 -16.78125 L 13.5 -17.296875 C 13.5 -18.179688 13.351562 -18.75 13.0625 -19 C 12.78125 -19.257812 12.109375 -19.390625 11.046875 -19.390625 C 9.753906 -19.390625 7.914062 -19.113281 5.53125 -18.5625 Z M 9.625 -9.15625 C 9.625 -8.40625 9.828125 -7.832031 10.234375 -7.4375 C 10.640625 -7.050781 11.15625 -6.859375 11.78125 -6.859375 C 12.414062 -6.859375 12.988281 -7.113281 13.5 -7.625 L 13.5 -11.5625 L 12.078125 -11.5625 C 10.441406 -11.5625 9.625 -10.757812 9.625 -9.15625 Z M 9.625 -9.15625 "/></g></g></g><g fill="#fdd599" fill-opacity="1"><g transform="translate(211.759929, 226.574406)"><g><path d="M 0.3125 -25.421875 C 0.207031 -25.691406 1.800781 -25.828125 5.09375 -25.828125 C 8.382812 -25.828125 10.03125 -25.742188 10.03125 -25.578125 L 13.703125 -8.1875 L 16.46875 -25.328125 C 16.570312 -25.628906 18.257812 -25.78125 21.53125 -25.78125 C 24.84375 -25.78125 26.445312 -25.644531 26.34375 -25.375 L 19.125 -0.359375 C 18.894531 -0.015625 16.867188 0.15625 13.046875 0.15625 C 9.222656 0.15625 7.175781 -0.0976562 6.90625 -0.609375 Z M 0.3125 -25.421875 "/></g></g></g><g fill="#fdd599" fill-opacity="1"><g transform="translate(238.405305, 226.574406)"><g><path d="M 21.640625 -1.375 C 19.492188 -0.113281 16.726562 0.515625 13.34375 0.515625 C 9.96875 0.515625 7.117188 -0.632812 4.796875 -2.9375 C 2.484375 -5.238281 1.328125 -8.425781 1.328125 -12.5 C 1.328125 -16.582031 2.441406 -19.867188 4.671875 -22.359375 C 6.910156 -24.847656 9.734375 -26.09375 13.140625 -26.09375 C 16.554688 -26.09375 19.191406 -25.222656 21.046875 -23.484375 C 22.910156 -21.742188 23.84375 -19.628906 23.84375 -17.140625 C 23.84375 -11.609375 20.671875 -8.84375 14.328125 -8.84375 L 10.796875 -8.84375 C 10.796875 -7.820312 11.078125 -7.113281 11.640625 -6.71875 C 12.203125 -6.332031 13.03125 -6.140625 14.125 -6.140625 C 16.507812 -6.140625 18.773438 -6.6875 20.921875 -7.78125 C 20.953125 -7.8125 21.109375 -7.570312 21.390625 -7.0625 C 22.203125 -5.59375 22.609375 -4.351562 22.609375 -3.34375 C 22.609375 -2.34375 22.285156 -1.6875 21.640625 -1.375 Z M 15.25 -16.171875 C 15.25 -17.597656 14.546875 -18.3125 13.140625 -18.3125 C 12.492188 -18.3125 11.941406 -18.113281 11.484375 -17.71875 C 11.023438 -17.332031 10.796875 -16.765625 10.796875 -16.015625 L 10.796875 -14.421875 L 13.5625 -14.421875 C 14.6875 -14.421875 15.25 -15.003906 15.25 -16.171875 Z M 15.25 -16.171875 "/></g></g></g><g fill="#fdd599" fill-opacity="1"><g transform="translate(263.260684, 226.574406)"><g><path d="M 13 -0.3125 C 13 -0.0703125 11.769531 0.046875 9.3125 0.046875 C 5.894531 -0.0546875 4.1875 -0.242188 4.1875 -0.515625 L 4.1875 -17.09375 L 2.859375 -17.09375 C 1.972656 -17.09375 1.394531 -17.84375 1.125 -19.34375 C 1.050781 -19.78125 1.015625 -20.222656 1.015625 -20.671875 C 1.015625 -21.722656 1.222656 -22.78125 1.640625 -23.84375 C 2.253906 -25.34375 3.207031 -26.09375 4.5 -26.09375 C 5.800781 -26.09375 6.960938 -25.785156 7.984375 -25.171875 C 9.003906 -24.554688 9.6875 -23.941406 10.03125 -23.328125 C 12.175781 -25.171875 14.734375 -26.09375 17.703125 -26.09375 C 20.671875 -26.09375 22.816406 -25.289062 24.140625 -23.6875 C 25.472656 -22.082031 26.140625 -19.457031 26.140625 -15.8125 L 26.140625 -0.453125 C 26.140625 -0.046875 24.679688 0.15625 21.765625 0.15625 C 18.847656 0.15625 17.390625 -0.046875 17.390625 -0.453125 L 17.390625 -15.25 C 17.390625 -16.945312 16.796875 -17.796875 15.609375 -17.796875 C 15.265625 -17.796875 14.785156 -17.648438 14.171875 -17.359375 C 13.554688 -17.078125 13.164062 -16.867188 13 -16.734375 Z M 13 -0.3125 "/></g></g></g></svg>